<mxfile host="Electron" agent="Mozilla/5.0 (Windows NT 10.0; Win64; x64) AppleWebKit/537.36 (KHTML, like Gecko) draw.io/27.0.9 Chrome/134.0.6998.205 Electron/35.4.0 Safari/537.36" version="27.0.9">
  <diagram name="PÃ¡gina-1" id="IKVGy_DopQR0RWY-qbrC">
    <mxGraphModel dx="946" dy="1830" grid="1" gridSize="10" guides="1" tooltips="1" connect="1" arrows="1" fold="1" page="1" pageScale="1" pageWidth="827" pageHeight="1169" math="0" shadow="0">
      <root>
        <mxCell id="0" />
        <mxCell id="1" parent="0" />
        <mxCell id="6QEWEcsO1uMgyKAbUauT-1" value="" style="shape=image;verticalLabelPosition=bottom;labelBackgroundColor=default;verticalAlign=top;aspect=fixed;imageAspect=0;image=data:image/png,iVBORw0KGgoAAAANSUhEUgAAAtcAAAEqCAYAAADeanwHAAAAAXNSR0IArs4c6QAAAARnQU1BAACxjwv8YQUAAAAJcEhZcwAADsMAAA7DAcdvqGQAAP+lSURBVHhe7J15XFTl/sc/s7ALgiaJhKDimDuIueAuGbdyrRSvS2KicStcUksxDbdIu2ZpXbfcUrO4ef25glsssrshm2CILLIzzCCLDMw5398fwzrMAkhl9bxfL14vPcvzfPfnOec8Z46AiAgMBoPBYDAYDAbjqRGqb2AwGAwGg8FgMBhtg02uGQwGg8FgMBiMdoJNrhkMBoPBYDAYjHaCTa4ZDAaDwWAwGIx2gk2uGQwGg8FgMBiMdoJNrhkMBoPBYDAYjHaCTa4Zvwl8WToS0uTg1XcwGAwGg8Fg/IVp2+RamYMb/7cXH84Yi9GjRmHUmKlYtHoN1ny0Eh94TsfE0aMxdu5/kKysPb4yHJ+6Po+O9tOxN4VTa6wd4bPx48I+sOrsjBWBJep71eCR/eNC9LHqDOcVgdB3tGZ45Af/G2+PdkRnM2N0tB8Fr0MJqFQ7SpETgcO+b2HoyNUIq1bbqZNKpF45iI3vuGP06NEY9/JkvOXxFqZPewuL1vwHwVkK9RP+eLhs/LLDE8N69IfH/hTUhQCDwWAwGAzG34G2Ta7Ftnhp+kJMtctBdGQkIm8oMdL3c3y+fQe+OfIjvlv+ImTJWSiru21ZlYPUtGKU5aXigfS3nFzL8GtSNkpl6Uh++Bi6e+Ih+zUJ2aUypCc/xGPdB2ukLPwrbA0ywmvLPoHPKy9AkR2JQ++/i133VI3xBbH48QtvTHAeh0X+p3C3qFUzawCm6DNpEVZPt8Gv0fdg9/7P+Pmnn/HDjlkQXVgF91HzcPRh6wTni27h5oPWndMqRHaY6LMY4zoT2vp1ot9cxt8dHkW3buIvpRKDwWAwGAyNtG1yDQAQwMBADEGTbQoU5FfC4Y3P8PGrFg37Onng0K1biIgLhf8owyZntCviQVh36Q4iY+7g5/ccIFLf3wQxBq27hDuRMbjz83tw0H2wBjiUdZ0O/20+mD3TE35HtmKapRCkLIW8dqYufH4YZq/+FgeXu0CsfnorEFt2hHkjT5k6zsK2Na/CLOcMdh9vzd3hCsR8vQFH7rf8jDYhsoSlRdPIaDm/k4y/JxUx+HrDEfyVVGIwGAwGg6GZp5hca6D6Bo4du40aoTWm+SxEXzEAvhSp4UEITcyDPCsFv5Y0XoVbhnsX9+Pzzduw/0IySgEAlciIuYTAwEAEBoUiScqhIvU8vvH/Flez6m79lSI16CC2b/wUW3afwh0pD4BD7q1LuBSdDlnxr7jXeMlEaSqCDm7Hxk+3YPepO5DyAJd7C5cuRSNdVoxf72Wh4Wge0rv/hz3+G7Hpi0MISi3Tsm5YhG6OPdGh9n98eQnkNabot8AP7w1tfAEhgIW5mdpFSAN8UTSObtuGo9FFWvrRjFGHDjAUAMTV3iXPi8OVoEAEBl1HipwHuFzcuhSIwMBLiH5YCfBFiN61APN2xCIj7jKCghNRVNuhUnofMcHXEHIjHfImd1d5yB/EIPR6HLJKpcjNq2i8sxnKkjTEhobhTvYT9V0AgMrcBESEhOFWphabapWxElkJKSjiqpB7NxYpJbVCKqW4HxOMayE3kN5UcFRkJSBVygPVBUiKjERyYdOZLS9/gJjQ64jLKoU0Nw91mvFlD5GUXgaekyEtOgwxafLmT0A4GdJvXkdYdAoK1R9GVGYhIaUIXFUu7samoDg/GrsWzMOO2AzEXQ5CcGKDn/Xag8FgMBgMxp+O9ptcE4eCcwfxv3TVJMbcxkZ1t1XYEfZdErDtjdfx2uSF2BNfozqey0TAomEYuzUPEz2H4d7HozBm6QUU8qboapWIL958Ha9Nno8vj3+BqWOmY6nvCqw8EA/wOfjfEleM8svC6DesELJ2FlxHr8CVUhGe716OHxdPwWuvTcXas1LwAPic/2GJ6yj4ZY3GG1YhWDvLFaNXXEH5891R/uNiTHntNUxdexZSHgCUuH/YAy4jlyPa0RML+0TigyED8da+pEaTb3WqUXj3FPwWbsEvCjN0sjJSP0AHCgR/6oFFa9Zg0cz1uKa9k6ZUJePQvkCUWI3Hwtn9IQYg7NQdLxR8jyXTFuNgshIQdYKddSp2zZ2KDwNyUSPPhdTECh14HooKOeSllVCCQ/rxBRjx5te4W5yPSH93SEZvRFQlAFQjfpcnfH7IhrIqGYfmjsBb32VouUteiYT98+HudRBxOWk45+uDffcbTUn5PARtXoyV+0IRf+MnrBwtwdh1V2tt3uiwZjKWIz/6EJZNcIRkkh/2bnsLo11HYtjCYyhMP44FI97E13eLkR/pD3fJaGyMqgRfFIujyyfAUfIq/E8exBL31zFn/utwGjgd+9JUMlXH74Knzw/IVlYh+dBcjHjrO2QoshG22wvD7Pthzu4T2PjKEAyf9DJG9pVg4qaI2gs/QB79FTw91iAgIQupZ1diTD93bAouAs8XIvrQMkxwlGCS315se2s0XEe+hPn7H8LEqgN4XoEKuRyllcoW24PBYDAYDMafEGozCgr/UEJigCB2pFfmT6JepmKyXRxIVeqHVpyktzoICKKe5BNcRUQcFZ6cRdZCQxq3M4M4ekIXFtmQyHAYbUlUEj05TfM7CwkCE7J/YzfduH2Cls/wIP/rj0l2egHZigzopc1JpFTeo22jTEhgOIy2JiuJauLJz8WAAEOauDuHOJLR6QW2JDJ4iTYnKUl5bxuNMhGQ4bCtlKysoXg/FzIAyHDibsrhiLi8ozSjs5AEHWfRT+WkkuM5IQk6vkr7sjh1rVQoM+naruX0mqQDCQGCsCO9vDut0QEcPdo1gQwBEvdaSqGKRrtISRnH55OkY0eSzDtGD5WN9zWgCF1KvcSmNOitlbTCezZN6COh4fM20E8Jj5scp0zeQsOM+9CqiNpOFBG0qo8Jjfz8V1ISEZf7DbkZ25LXxVoPKe/RZ8NNyWVjAtUQUU3sWhpg7EQb7tQQKSJp1QAn+jj6CRERcfknaMvuJKpp1F8dFeGraVDPhXRGVruh/DwtsjWgF1dHkYI4Kjg5lyasiSaVVBxl7hxHhgbOqn7UaCYjcZS5czwZmgykZZcLSZZ0lYLuFlLSZ8PJ1GUjJagEp7UDjMlpwx2qISLlgy9olKEFDV12htIVRCT/meZaG9HoLx6QkhQUuWoAOX0cTU+IiLh8OrFlNyXVkErnPgZkM/FTCnpUQ1SRTAdm2JLI0IX87tYQyS7Su5K+tDxUZROiCgpf2ZcMbWbTj/kcEZdJO8cbksnAZXS5UEZJV4PorrSGcr9xI2NbL1Kp1Dp7MBgMBoPB+HPRPneuRb0x86uL+GXfm+imsUX1l9uqcP3cVRTzPPKCd8N3zQacjH8CqknEjVuNf2tDBKepczHUeQ52/u9HrBktQsj/LiCPE8DMvAMEohex8vRNRMT8Dyv7alg0XRmC/13IAycwg3kHAUQvrsTpmxGI+d9KaDq87JczuFbCQ9ixMzqJAQgsYNFBAHp8HYEhj9UPVyHqjok+O3Eh9go2jOoIIf8Y4ReuqR+lBRHs536PVLkcqcfm6V73LTDGwDmbsG6yBR49LIBB/zcwbYC5+lGtQySB99EwnPBxQHbIIWw7HA0Zr8CTKh4Q20Jin4kvp47Fgs9OIcnAA+s+6Kdh7Xg5gvYcQfrA8ZhgWbvJuAccbOqUqUTI6SDk3D+PHf7+8PffhhNP3OG36W24mDRqRitCmJgYQmgxFG5jusCynxvcB3XBi95HEXbCBw7ZITi07TCiZTwUT6rAAxB16AAzkTmc3N3RwxCAmQS97YQolZeAIIatxB6ZX07F2AWf4VSSATzWfYB+YgBCE5gYi9DFdRrcbMWAaV94blwMJ0pAaGgBis8dwI/ZjhjsbFwrmymGe0yHpPg8fgiUq843FMJiqBvGdLFEPzd3DOqknhBPaw8Gg8FgMBjPMuojf9sRiNF91vuY2bNu+lWJjPQ8tYPqKEdhcTl4CNDZdQm2fr4dx2Jl4PgK/N/bjSaMwo54vqtpo/MqUFBQBh48ivLzoQQg6tIPI51soXExRkUBCsp4gC9Cfr4SgAhd+o2Ek62mo3k8LipBFQECQ0MYCgDUrZSmasilj3Wvi+04Amv8F8JRDJDWFdZPixCdX9+O/R90x80ti7AlSvcaaP0IIX4Sh12LvXEodzDe8Z4IG2HtZZCwOxYdu4K9HuYI3ToLQ/q4YtnpLA3rj7OR8qscEIk1BxNfhiLpExj1nY7Va9dibd3fmuWY2qf5VF0zze0pFD9B3K7F8D6Ui8HveGOijbDhAk4gaHqGQASRACCeAAjRfdExXNnrAfPQrZg1pA9cl51G/XJ+NcS9+qO3GVCjqER+1iNU8tWormq038EetsJqyGW18dFc1Ka0iz0YDAaDwWA8q2icD7UZw2F4++0hMADA557C4TMF6kfUYoYunc0gBIeUmzfr17M2Rwhhk7u5Zuja1QJCcEgLC0GGlglRPWZd0dVCCHBpCAvJaD4xbIIQnbq/gI5CgHgePAFAFRQ1AITm6GbXuamx+BLEfP8lDkcU1E+6DSQSdBeKMWD48MZH6oaXIy02Fg9KdU7dG9ER4zcfwEd9U/HvxesRLG+0SySGCFQrewNEWjQvv4gV03whnfkNNs9xgXXd3I5Uk+bER3bw3HUNKUnn4DsoC3t8tuKq+rpwQSc810mMqsRbiFPbRzwPCC3QzcYUKQEHcU3WsI9LD8SFeM0ruPVTjosrpsFXOhPfbJ4DlyaC64NDduIj2HnuwrWUJJzzHYSsPT7Y2kgxoka+qKlEFW+NvgPsYNe7Fyy4JNxs9HSFr1agWvgCBjvbtCyZfhN7MBgMBoPBeFZo0XxAGzxfOwkhJWqqeQBGeL5rJwjLE7D3vU24a2Vfe6TanUSYYOzUSXhOyEN+YQf8Q6TgwSP34i4cvVMNoG5yy0NZ+/6jClNM9JgOOxGgiPkPNv8vBxyAynsXEJhUDYBQLxLPAaYT4THdDiIoEPOfzfhfDgegEvcuBCKpunbypzoYHACzSQsws4cYVFKAghoAVcWQlvIQvTAd/3zZrLEg4IsCsOHdVVg0aQxmfnEF6dJchO/5EXG2c+DrPaDRkYSqqmoQAKqpRnWT+Z8SNzZOxKARIzDIbRNuaplbUXU1qqkGCkWtvKbD4XtwPYblfIOF751ARu15ImtbdDXMQfTl2ygovIcLe44gQqpEUfZDFJdVQWhsDCM8Rl5uCYpiwhGX/wDpBeXISn2I8qpshJ6LQh5XidK8OMTEpyJg+z7crgSMHV6D7/qZcDA1grH6nVlhF0yZPxnPpR/ECt/zyKoGFJm3kVjIQZaTifxSASYtnIMeGfvgMX4uNn0XgFNH/eH1cSTM6p9yNGpOTcb4Sqgmzcqahpcp+VI8SC9AeVYqHpZXITv0HKLyOFSW5iEuJhE8x0FJfO2datX5BALP8+DBITtgO/apFMNrvusx08EURvWK8SjKzEB57b9zz55F/ABvvDfRGB0nL4X3QBlO7TyE1GrV/vwrIcgetRTvjal9GkKAsqaxI4UwNjYCHucht6QIMeEPMKoV9mAwGAwGg/EnQ30RdouoeUSx/7eHFg00JkHtS3yD3lhKH328ipYumkEju5uRQNyLlobUvlhX8RPN6tj4hUbVi4A//8uJLEUCEhh3oT7DJtE7u2PpMVVQ6s9e1N9AQBAY0UCv4xQnbfQyIVdIV9ePo64GAhIYWFEvlwk0c8N5yuKUlHFlLY2zEhIgom6Tt1NEHkdc4VVaP64rGQgEZGDVi1wmzKQN57OoOuMKrR1nRUKARN0m0/aIPCLiqOT6Vnqluw2N/egwHV41hrp2d6ctoVJq9jpjTTx9NakrGQhU82YIjMh29Ht0LKmi4ZjHv9L1/ztAHwzvSEKABAaONPOLALr+oO4YBcWsG0zGAgGZOK+n2Gbvs1VQytVDtHGqPYkFInp+4mraey6eSjgiohpK/fYf9JzIiOwmvEtbfrxNMu4xhW+ZRN0tLMjWeSZtD75Iq11607gFfnT8RjGRMo0O/1NCVp0lNH1HNJVxOXR66TDqam5FvcZ60Z7g78nT3pJ6Tt5OUYUR5Ovai5xe9qSP/DbRmiVLyP9afnM7EBFxMor91pNG2FuRpcNQmvKBHy0a0YNGzvmEDkflEVEFJR/3oYmOVmRkaEHdRy2hI4mN7NSYJjJGUubtk7T2ZRsSiWzJfd1JulnMERFHOaeX0rCu5mTVayx57Qmm7z3tybLnZNp+JYJO+bqRtciAJLN30MWkVLp+aCm5WgrJ1NmLDoQ/pAhfV+rl9DJ5fuRHm9YsoSX+1yifI6KaO7R+sCHZjJhFXu+voA/fn0czPD6hc5kNb5rWZJyldVNdyHn8bFr8r3dovveXFFrAEXFSun1yLb1sIyKRrTutO3mTimuNpUw7TP+UWFFnyXTaEV3WOnswGAwGg8H4UyEgopY8S386qv6HebYzceJxTyz/JQk7x9T9DjSH0od3cDdLCeu+znjRWtNaaM1UZMfh9oMKWEmcMaBb43XZmqhAdtxtPKiwgsR5APQerihA8q1kFAi6or9LX1hr++4NX46s+Nv4tUQAyx4D4dTDUs+HazTAy3D/xn0I+7wER8unepDAeFqUcdgwdCTOTInErc3OGl7eZDAYDAaDwdBNmybXAoH62gBGW2iD6Rm/JfWT63Dc2vx0X9VkMBgMBoPx94TdKmUw6lCWoOQxh1KpDOofXmQwGAwGg8FoCW26c91yOBRE/4CjgfeheG4Ips+fhoFs6QPjWUSRhitH/ouwjFIoxZZwGD8LC916QtuKIAaDwWAwGAxN/MaTawaDwWAwGAwG4+8Du43MYDAYDAaDwWC0E2xyzWAwGAwGg8FgtBNscs1gMBgMBoPBYLQTbHLNYDAYDAaDwWC0E2xyzWAwGAwGg8FgtBNscs1gMBgMBoPBYLQTbHLNYDAYDAaDwWC0E2xyzWAwGAwGg8FgtBNscs1gMBgMBoPBYLQTbHLNYDAYDAaDwWC0E2xyzWAwGAwGg8FgtBNscs1gMBgMBoPBYLQTbHLNYDAYDAaDwWC0E2xyzWAwGAwGg8FgtBNscs1gMBgMBoPBYLQTbHLNYDAYDAaDwWC0E2xyzWAwGAwGg8FgtBNscs1gMBgMBoPBYLQTbHLNYDAYDAaDwWC0E2xyzWAwGAwGg8FgtBNscv0ngi9LR0KaHLz6DsZTw2z7bMDJ7iPhYYX65j8QHmXpCUiTt0dktGdbf1GqcpBwr+BvmIcVyLxzF9lV6tv1w5dm4GZ4FBLz23Dy701FJu7czcazJykH2f0EPFOlh/Gnpk2Taz4vGj99vRxvjBuN0WOm4L1/H8f1TK52rwJpvxzCFq9/YIzbXHxy4BrSFGoNMFoHl41fdnhiWI/+8NifAqX6fkbbYbZ9NuAy8cuOtzGkxyAsOpGJumryR8Jl/4IdnsPQo78H9qc8XWS0Z1t/SXg57hz/EG6Ojhi/JRzV6vv/4vAZ+/H2SFcsPprfigsLDg8DPoL3tnOIOvMJ3CUDMe/YQ/WDniF4ZOx/GyNdF+NovpqWiutY59oHY1cFobDlBmgXuMxfsOPtIegxaBFO1M9jGIyno02Ta6HNCHh8sAQuT2IRUyjB3KXzMMZeVLvXCI4T38GqGXao7DkHvovd4Gik1gCjdYjsMNFnMcZ1JpD6vhbCF93CzQd/ocLBF+HWzQdPPwlrB9sy2gGRPSZ+sBBjrPDM+EFkNxE+i8ehMz29RG1p6y+Xs7oQWsJ5zgpMk/w981DosATfR0XiwIKuLR6U+YIfsHJFEl5a5QOfbQH4fvUImCuf5TtZQjgs+R5RkQewoGtTLatvncVlzMTW9f+AdUsN0E6I7Cfig4VjYPW3jLy/WZ35HWl7GAueQ2crAQTmlrDU0IqwoxVeeK4zxOo7GG1DZAlLC4H61hZSgZivN+DI/b/OHbOKmK+x4cj99rnT/FS2ZbQbIjOYm2koJn8gIktLtFdotK6tv17O6kVoAXOzFhvoL4YZ7J0Hw85Yfbt2qqOvIrzCDBbGAISd4bb+GPYsfFH9sGcLM3s4D7ZDUzU5ZGW+gI9+2IgxHZvs+N0QmZnjGSs9vxN/wzrzO/E7hlMFshJSIeWB6oIkREYmo1DNn0rpfcQEX0PIjXTI9V5IVSI3IQIhYbeQWdb4OVIlsuPvoYAHOHk6bkbeQVbdOqrqAiRHhuNubuMVXzzKHiYhvYwHJ0tDdFgM0tQ6r8xKQEoRh6rcu4hNKWm4W1qZi4SIEITdykQTEXg5HsSE4npcFkqluchrtI6rdToCypI0xIaG4U72E/VdAIDK3AREhIThVmaZ5seJfBGidy3AvB2xyIi7jKDgRBTxACqzkJBSBK4qF3djU1BSK4t2+fT5j4f8QQxCr8chq1SK3Hql9dsXADhZOm5eD0N0SmGzR8JN7V+M/OhdWDBvB2Iz4nA5KBiJRQ2a67VHI9pqW17+ADGh1xGXVQppbh6aLNPTFhNQQno/BsHXQnAjXa7/jnt1IVKiQhASkwZZ44O1+E17PgBQSnE/JhjXQm4gvaWxDQB8HuKuBCEwMAjXU+TgwSH31iUEBgbiUvRDVNYdV5GFhFQpeFSjICkSkcmFahc9LdVdAEHt3IqURbgXHY2kZutIdbSlI+902qcZSpSkxSI07A40h0b7taUx37TlLABwMqTfvI6w6BQUqieKTv0b4MseIim9DDwnQ1p0GGLS1H2iw8aoRFZCCoq4KuTejUVKQ+HQGmPN0HqssN7/9VRmI/5eAXhwkKffROSdrPp8qy5IRmT4XTQp59DVvorqwhREhYQgJk3WPBa15e/TxLjWnG1KVU48khstl6jISkCqquAiKTISyfUFV4Gs2Eu4HP0ApVwxkq8G4lJkGsrqTtQVIxplae2Yqd/GWusXqpATnwz1VSGdh49C16wbSGkmsL5xRx1t45AKreOMQABV6BGURfcQHZ0E9dKjtVZqixl1muUnj7y4KwgKDETQ9RTIeYDLvYVLgYEIvBSNh/UFVrdODTTNzeTkW7gSFIjAoOtIUTWOW5cCERh4CdEPK3XUGR2x3GJZGL/D5JpHUexRLJ/gCMmr/jh5cAncX5+D+a87YeD0fUjjAIBD+vEFGPHm17hbnI9If3dIRm9EVH1wNYXPC8LmxSuxLzQeN35aidGSsVh3tQjFN49j5csS9B7nh4BTn2LubE+88+ZI9B2xEkE3j+G9yTOw8N2ZGNF3DD6NqgSXHYbdXsNg328Odp/YiFeGDMekl0eir2QiNkWUgi+MxqFlE+AomQS/vdvw1mhXjBy2EMekPPKCNmPxyn0Ijb+Bn1aOhmTsOlyV8kB1PHZ5+uCHbCWqkg9h7oi38F2GstU6ApVI2D8f7l4HEZeThnO+Pth3v1GY83kI2rwYK/eFIv7GT1g5WoKx665CqpbcvDwXUhMrdOB5KCrkkMseIebQMkxwlGCS315se2s0XEcOw8JjhVrka4n/qhG/yxM+P2RDWZWMQ3NH4K3vMqDQY18VckR/5QmPNQFIyErF2ZVj0M99E4KLeM32f2k+9j80gVUHHryiAnJ5KSqVLbeHirbbtjp+Fzx9fkC2sgrJh+ZixFvfIUMJADpigkvH8QUj8ObXd1GcHwl/dwlGb4xqmJw2gUdRyFa87flvXM0sRPzuqZAM9cGZnHxEa/SbVEs+SMED4NKPY8GIN/H13WLkR/rDXTIaG6MqNdt22EIckzYSRdgJ3V8owPdLpmHxwWQoIUInO2uk7pqLqR8GILemCLFHl2OCowSv+p/EwSXueH3OfLzuNBDT96WpinKrdFdBBRfg4+oMV7fRGOjQF9O+voly6GlLa95pqxcq+zSjMgH757vD62AcctLOwddnH5qGRnu1pb0eNMvZ0kooAcijv4KnxxoEJGQh9exKjOnnjk3BRaq+dehfD5eNsN1eGGbfD3N2n8DGV4Zg+KSXMbKvBBM3RaAUumzMozD6EJZNcIRkkh/2bnsLo11HYtjCYyjUEmOa0BaPzeBLcPP4Srws6Y1xfgE49elczPZ8B2+O7IsRK4Nw89h7mDxjId6dOQJ9x3xaX0d1ts8XIWTr2/D891VkFsZj91QJhvqcQR4P7flbVND2GOcLteZsY3jZHZz86BU49hqLjWFV4IticXT5BDhKXoX/yYNY4v465sx/HU4Dp2NfGgeAUF1RCnlFDUA1qCiVQ/64ChyvI0Y0yvIS5m7a06oxU6WuDhtrq195SsjunMRHrzii19iNCKubuMqj8ZWnB9YEJCAr9SxWjukH903BKOJbMu6oo3kcUmWB9nGmAULBBR+4OrvCbfRAOPSdhq9vluuolVpiRtOgozE/eXTq/gIKvl+CaYsPIlkJiDrZwTp1F+ZO/RABuZwenerQnJsjPopCh4LvsWTaYhxUNQ4761TsmjsVHwbkokZTndEWyyolWiALox5qK1wB7XnFkAxcNlFijfpOIsX11TR1TRQpiIhISQ++GEWGFkNp2Zl0UhCR/Oe5ZG00mr54oCRS3qPPhpuSy8YEqiGimti1NMDYiTbc0dAwV0An506gNdGqlonLpJ3jDMnAeQPdqeEo9xs3MjIdQWtD80hJRIrb68nJoCON/PgyPaohopo7tN7JiHr6BFMVESkiV1EfAxua+GkQPaohqkg+QDNsRWTo4kd3a4i4zJ003tCEBi67TIWyJLoadJeK8k7S3AlrqEGEnTTO0ICcN9yhishVNMDpY4p+QkTEUf6JLbQ7qaZ1OhJRRfhqGtRzIZ2R1W4oP0+LbA3oxdVRpCCOCk7OpQlromvty1HmznFkaOCssT0u9xtyM7Ylr4tVtRsyaed4QzIZuIwuF8oo6WoQ3S1M0iGfHv8pImnVACf6WKU0cfknaMvuJKppgX1lF98lSd/lFKo6laginFb2NSSb2T9SPqfZ/tKaXPrGzZhsvS6SSqPW2aPttq2gyFUDyOnjaFK5N59ObNlNSTVEXIH2mKi69xkNN3WhjQk1RFRDsWsHkLHTBtIgGnF5P5CHozt9m8kREVFN4hc0rlM3WnC6XLPfivJ05IOS7n02nExdNpKq61haO8CYnDbcoZpaGZvZVtVtA8pk2jLMmPqsiqi1h4IiVvUhk5Gf069KIlI+oC9GGZLF0GV0Jl1BRHL6ea41GY3+glSp3XLdVfIZku3UXRQrVRKVJ9CBmQ5kYDSUNsXX6GxLoS3vdNYLtf6pgsJXD6KeC89QQ2gsIluDF2l1lKJ929JTD5rlrOwivSvpS8sbEoXCV/YlQ5vZ9GM+p11/dRSRtKqPAdlM/JSCVAlJB2bYksjQhfzu6raxKhfGk6HJQFp2uZBkSVcp6G4hJemIsabojkeix3R4ijFZzfm5Nr9y6Rs3IzIdsZZC85REpKDb653IoONI+vjyI5Xd7qwnJ6Oe5BNcpad9jvJ+8CBH929JlVo1lPjFOOrUbQGdLtedvzVPE+OacrZZkhFxed+Sm5EFzfqpgoiIlA++oFGGFjR02RlSdfkzzbU2otFfPCBl7TkV308jY0sPClCdojdGNMtS08oxU5eN9dQv4ijvWzcysphFKjVldPFdCfVdHqryNxFVhK+kvoY2NPvHfOL0jTvq6BiH9I0zNbFraYChLU3dFUuq0nOAZjoYkNHQTRTfhnmAeuxrz08lJW8ZRsZ9VlFEbTuKiFXUx2Qkff6r7rG1KZpyU0rVyVtomHEfWtXQOK3qY0IjP/+VlBrqjM5YbrEsDCKitt+5FgogEAgAaHkBhecAUV3zInToYAaRuRPc3XvAEICZpDfshKWQlxAgksD7aBhO+DggO+QQth2OhoxX4EmVhivAyhCcDsrB/fM74O/vD/9tJ/DE3Q+b3naBCYToYGYKgWEPDBnaFSIAhhJH2IsBuyGjYCsGIHaAfTcBSmUyEAChiQmMRV3gOs0NtmLAtK8nNi52AiWEIrSAh9DEBIZCCwx1G4Mulv3g5j4IxmGnEZRzH+d3+MPf3x/bTjyBu98mvO1iArGtBPaZX2Lq2AX47FQSDDzW4YN+4tbpiHIE7TmC9IHjMcGydpNxDzjY1L00WomQ00HIuX8eO/z94e+/DSeeuMNv09twMWnUjDaEJjAxFMJiqBvGdLFEPzd3DOryog759PhPbAuJfSa+nDoWCz47hSQDD6z7oB/Eeu1bjHMHfkS242A41y3CMx0Oj+kSFJ//AYFy1fnq9u/ULGpbY4+nsa0YthJ7ZH45FWMXfIZTSQbwWPcB+omByhDtMSGSeONo2An4OGQj5NA2HI6WgVc8gSbXywJPIsjIGUNrX/gR91+FEGkOjkw30+w34zAd+SCCxPsowk74wCE7BIe2HUa0jIfiSRX4Wt/ot60eRB3QwUwEcyd3uPcwBGAGSW87CEvlUKV2y3VXIYLNS24Y0kkEmA3AOzs+xGhBAsKuF0Ogoy2teaezXqhRHoQ9R9IxcPwENISGAxpCox3balU9AErOHcCP2Y4Y3JAoGO4xHZLi8/ghUK5df3WEJjAxFqGL6zS4qRISnhsXw4kSEBpaoNPGgBAmJoYQWgyF25gusOznBvdBXfCijhhriu54bIawA8xMBTDsMQRDu4oAGELiaA8x7DBklC1U5dwe3QSlkMlIT/syBJ4MgpHzUKhSS4z+q0IgzTmC6Wa68/epYlxTzmpIMqG5OTo0WhIj6tABZiJzOLm7Q9WlBL3thCiVl2geb1sQI5plEbdyzNRlYz31C0KYm3eoXX4BoOQcDvyYDcfBzvVrsE2He2C6pBjnfwiEXN+4o47WcahE7zgDABDZ4CW3IVCVnnew48PRECSE4Xpx6+cB6rQ4P9XRqpM6mnKzU6uXJuiM5RbLwsDTLQsxgamxEFRZgQoNlZEvKwfMzFE3lqgm4g0IRCIIQOAJAIQQP4nDrsXeOJQ7GO94T4SNUEPyAODLiiB9YoS+01dj7dq19X9rlk9FH3HzfiAQQtCkHAkgFALaX9oXo1f/3jBDDRQK1UFNW+RRViTFE6O+mL66of+1a9dg+dQ+MOy+CMeu7IWHeSi2zhqCPq7LcDqLa5WO4LKR8qscEIk1O4gvQ5H0CYz6TsfqRjZYu2Y5pvZpYairr23UI5+6XZv4T9gdi45dwV4Pc4RunYUhfVyx7HRW8/WMQFP7VuYj61El+OrqRr97KoaDvS2E1XLIHqsCq5mo6rTGHk9lW0N0X3QMV/Z6wDx0K2YN6QPXZaeRxemOCbFQjCdxu7DY+xByB78D74k20Ox6DtLCYlTJSyDTuL+5MfTlg1D8BHG7FsP7UC4Gv+ONiTZCtWx4WhrWSdf9XyQSAMSr+mmx7poRdumJHpYCcMoanW0JteSdPvs0hstOgSo0NEZGu7alL9+awqEg6xEq+WpUN1oHKnawh62wGnLZY0CL/i1B3Ks/epsBNQoFSIeNVTSPGH0x1pjWHNs8tgCBUND052QEQggb3eDR2j4nRWFxFeQlqpsqTdGTv83kaGWMNzdZcwRqfdSvAa77vwiqLptLr0J/jPDQLIt6bdc3Zmq1cQvql6CRXlxBFh5V8qhuKjDsbYWolsvwmG8uW9N5gxraxiGuoEXjTFOE6NKzBywFHJQ1qi1NJdEXM03RVp/0ok0n9eOAZhK2CV2x3CpZGNoqfwswRI+edhDk3Edqufo+Dhnxj9CpT/f6ybVOyi9ixTRfSGd+g81zXGBdF5kaEkho0Q02pikIOHgNsvqtHNIDLyC+zYt/CNQov2oqq8Bb98WAbpqkF8Kimw1MUwJw8FqDBODSEXghHorsRDyy88SuaylIOueLQVl74LP1KhSt0BGCTniukxhVibcQp/bLSsTzgNAC3WxMkRJwEE1FCMSFthqhNfKpw2Uj8ZEdPHddQ0rSOfgOysIen624Wi+7Fvva2aF3LwtwSTdxq9HLG9WKaghfGAxnmxaGZ2vs8VS2VSA78RHsPHfhWkoSzvkOQtYeH2y9WqMzJuQXV2CarxQzv9mMOS7W9YW3uWlFeL67LUwKAvHTpZL6rbw0EPtOpGosYrrzoRwXV0yDr3Qmvtk8By6tcmodIohFGgZ1Io3yqFPeYt21UFmE4ifd4TTkeVTqaIvTknc1Ou1TvwEAIOj0HDqJq5B4Kw5NQ4OgCo32a6t1+SZCt969YMEl4WZDooCvVqBa+AIGO9uAtOiv7YfZqGlCooq3Rt8B3fBEh40105oYa82xbUFH+6Ln0d3WBAWBP6EhtXhIA/fhRCrpzF99FfWpY7xd0B8jLaymetBh41bWL1G33uhlwSHp5q2GdzD4aiiqhXhhsDNaWv7r0TYOKbu1aZypLCrGk+5OGPK8pv265wHqMaOtPikAiFQFVi1eCMTp0ElbYqsjEkOk4WKESN0bKnTG8tPK8jdDU9S0EEOMWPQuRgmvYtdn11BQ76tq5Ab746NrA+D5ilntNh4cpwTxjZxMBBAPnufBlz5AekE5slIforwqG6HnopDHVaI0Lw4xiWozd7NJWDinBzL2eWD83E34LuAUjvp74eNIM/QUAxzPq9qtP4FUgVofXKp/83yj4OKLkJlR2w+fi7Nn4zHA+z1MrH2ERFCiplG2mE1aiDk9MrDPYzzmbvoOAaeOwt/rY0Sa9YQgOwDb991GJYzh8Jov1s90gKmRMag1Ogq7YMr8yXgu/SBW+J5HVjWgyLyNxEIOspxM5JcKMGnhHPTI2AeP8XOx6bsAnDrqD6+PI2HWU/2aGRAaG8MIj5GXW4KimHDEV6rMomyklG4fPNbpP3DZCNi+D7crAWOH1+C7fiYcTI1gXHchrdW+HTF5qTcGyk5h56FU1dvbfD6uhGRj1NL3MKb299HV7Q+hMYyNgMd5uSgpikF4fCvs8VS2FSA7YDv2qRTFa77rMdPBFEbGAh0x4YCKB+koKM9C6sNyVGWH4lxUHrjKUuTFxUDd9R1fXYhZdvk49u4bWP6fAPzvxA687xkAsauj6kJVzW8680FYigfpBSjPSsXD8ipkh55DVB6HytI8xMUkQtWcmm3VEVnDtqshcqIv43ZBIe5d2IMjEVIoi7LxsLgMVTwHTkngGw0OqtBQxUZpK3RXQagslddOCquQcPA4HvxjPZaNFOtsKz5Vc94JdNmnWWhMwfzJzyH94Ar4ns9CNRTIvJ2IQk6GnMx8lArary1Zvq58K2+Ws5kTl8J7oAyndh5CqipRkH8lBNmjluK9MUbgtNQdzfeyeBRlZqheEgWP3LNnET/AG+9NNNRpY5W/CFDWNEweeP0xVo/eYzlwXG3sAAA4qMp5owsBUgVYQzknEHjwnL72s/Hqwlmwyz+Gd99Yjv8E/A8ndrwPzwAxXB1FOvK3J8RPG+PqOasJngNPtRdeAHiOg5L4Rhe1BAKpxsvaLdXVNaDqaihqN3ScrDtGaptpJkurxkydNk7UW794jgfV9dVxMpZ6D4Ts1E4cUgkMPv8KQrJHYel7Y2CkZ97QDK3jUMvGGVAlSuW1M8WqBBw8/gD/WL8MIw1rd7diHqA+CmvPTxGsbbvCMCcal28XoPDeBew5EgGpsgjZD4tRVqFNJ7UOgOa5CUBkbYuuhjmIvnwbBYX3cGHPEURIlSjKfojisiq1OhOGqHs6YrlUuyy89Ao2evwTW4IbXWj83VFfhN06OCqO+IaWvDyY+jqNIrdXJpHbuDH08vzP6HJWwzJ3efwp8nWzJpGBhGbvuEhJqdfp0FJXshSakrPXAQrPzqbTS4dRV3Mr6jXWi/YEf0+e9pbUc/J2ipI36VBFRTId95lIjlZGZGjRnUYtOUKJFUTlyWfp01dtSSTuSW9uO0cJmXH0v81TqbtITD1n+NP/3X1INwM20Gu2IhL3mEH+gWlUcWc9DTa0oRGzvOj9FR/S+/NmkMcn5yhTScRJb9PJtS+TjUhEtu7r6OTNYqp7FaUi+Tj5THQkKyNDsug+ipYcSaQKIlJE+JJrLyd62fMj8tu0hpYs8adr+RwRl9M6HTkZxX7rSSPsrcjSYShN+cCPFo3oQSPnfEKHo/KIqIKSj/vQREcrMjK0oO6jltCRxLo3W9RQptHhf0rIqrOEpn9xicJPrqWXbUQksnWndSdvUjFHOuW7EqHHfw+vk69rL3J62ZM+8ttEa5YsIf9r+cTVvnCkzb4qaijj7Dqa6uJM42cvpn+9M5+8vwylAk6X/ZWUdvifJLHqTJLpOyi6jFpnjzbbVkERvq7Uy+ll8vzIjzatWUJL/K9Rfm1QaIsJLuc0LR3WlcytetFYrz0U/L0n2Vv2pMnbo0iT6yuST5DPRAl1Me9ItkPn0I7rhcRxUrqtyW+qEzTmAxFHOaeX0rCu5mTVayx57Qmm7z3tybLnZPo8KFSLbZvzOHwLTepuQRa2zjRzezBdXO1CvcctIL/jwRT2X19ysxaRgWQ27biYRKnXD9FSV0sSmjqT14Fwys5uje4V9OvZLTRv3Es0dponvb90Mb23+Rw9qH0JSZcdC7XlHemyT3M4WSx96zmC7K0syWHoFPrAbxGN6DGS5nxymKLyuPZrK0dPzWucszuiqYyIajLO0rqpLuQ8fjYt/tc7NN/7SwotUOmote6oU3OH1g82JJsRs8jr/RX04fvzaIbHJ3SuNiG12ziCHt4+SWtftiGRyJbc152km6rCoTXGtjcrbLqOzaeU8xvIvauIRPbTaeuZWEo++ym9aisicc83adu5BMqM+x9tntqdROKeNMP//+juw5sUsOE1shWJqccMfwpMe6Kjfbkqr0/40ERJFzLvaEtD5+yg64UNNtKcv3KKP9XGGP88iEK15WxjypPp3KevUjeRmBymb6ULN2/SKV83shYZkGT2DrqYlErXDy0lV0shmTp70YHwTEq/9h9aOrozCYXWNGH1Pvpv1CNS6ooRLfWj9WPmfXqo08Za6hcRlSefo09f7UYisQNN33qBUquIqCaDzq6bSi7O42n24n/RO/O96cvQAuJaMm/IUTOmIkLrOKRrnCEioopf6eyWeTTupbE0zfN9Wrr4Pdp87gE9IV3jkLaYaY7O/HwcTlsmdScLC1tynrmdgi+uJpfe42iB33G6kat9bG2AI6nG3CQiekzhWyZRdwsLsnWeSduDL9Jql940boEfHb9R3KzOlGrN/yiS67CvMu1bevX5rjR5b3oTyf7OCIi0rz7+O6CM24ChI89gSuQtbHZWv95kPC3MvgzGM4QyDhuGjsSZKZG4tdm52R02BoPBYDw9T7Es5C+GhqdMjHaE2ZfBeIZgCclgMBi/FX/7ybWypASPuVJIZepfhmK0B8y+DMYzhLIEJY85lEplzb6EymAwGIz2QeTn5+envvHvgiLtCo5eLsQLQ/qjQ0kWqNsg9LTS9AshjLbA7MtgPEMo0nDl6GUUvjAE/TuUIIu6YVBPq5b9ohODwWAwWszffs01g8FgMBgMBoPRXvztl4UwGAwGg8FgMBjtBZtcPyvwZUhPSIO87j2jikzcuZvd6ItSf1Z4lKUnIK1esT8JfCkyboYjKjEfVQCqchJwr+CP04EvS0dCmvxP8RoaJ7uPhIcV6psZdfwOuV6ReQd3sxtaZD55NlH301OjHluM35e/gf3/6LFQnWe1trVtcl2djuAjn2Hxa2MwavRYTP3X5zh4MQll6scxWgCH7F92wHNYD/T32I8UJQDwyNj/Nka6LsbR/GcniFsLl/0LdngOQ4/+HtivUuxPAfcwAB95b8O5qDNYN6kXHPr2g0Ov8dgS/ge8AsZl45cdnhjWoz889qc0+/LXMwWXiV92vI0hPQZh0YnMZl9kY/xOuc5nYP/bI+G6+Cjya5hPnlka++mpXa8ptv46cBlhOPblB5g2djTGvPZPvOvtDW9vb3h7L8aCN17BhHl7kPyH6vzXtj8A8PI7OP6hGxwd/6CxUJ1WjTc8MvfPRJ/Bs7E/5XeSXf2Hr1tOFV17z55EhmNpx0NNv4zPaDkKCv9QQkYvrqYoRe2m8gy6HZdFtd/P+NOiCP+QJEYv0up6xZ5xuHz6fkY3em2/VPWRpKubaO68f9IwQyua83PLvcEV3qQbafVfynk6FOH0ocSIXlwdRX+EFVulS9Uv9L6DEQ3dnEQtPONvxtPlekt9UZ5xm+KyaltkPnlmaeKnp0ZDbP0ecIV080babx9bVcH0QQ8RGU05TI+bbE+mrxato5Cqxhv/CP7i9iciLutrmmDUurGwtbS0xhG1orZxObTn9X4050SG7uPakbbduQYAiGBhZQGhwAKdOj9FMwwAIlhaWjT9VLGZPZwH26H2C+x/WkSWlrDQ+KnWZ5TqaFwNr4CZhTEAITq7rcfxbybBulUhXoGYrzfgyP12un0hsoTlH2bEVuoiMoO5WauM9TfjaXK95b4ws3fGYLvaFplPnlma+Omp0RBbvwMVMV9jw5H7v/1TNVEHdOygIY6N+mD+BzPwwh/+RaS/uP0BCC3MYfabKtjyGge0orZVJoF//Qj2zbH/3X4dqQVS6aMFllZKcT8mGNdCbiBdrvvmvYpK5CZEICTsFjLLGj8vq0R2/D0U8AAnT8fNyDvIqltqU12A5Mhw3M1tvH6NR9nDJKSX8eBkaYgOi0GaWv+VWQlIKeJQlXsXsSklDY8WKnOREBGCsFuZaCICL8eDmFBcj8tCqTQXeY2W+iil9xETfA0hN9LRIjWVJUiLDUXYnWw8Ud+HKuTEJzd6XMhD/iAGodfjkFUqRW59x/p1BABOlo6b18MQnVLY7PdtK7ISkCrlgeoCJEVGIrmweWBX5iYgIiQMtzLLWrDuV4mStFiEht1BdnPFdPi3EXwe4q4EITAwCNdT5ODBIffWJQQGBuJS9ENU1h9YgayEVKjET0JkZDLUxW+pXxRZsbh0ORoPSjkUJ19F4KVIpJUBEAo0RrlGm/JFiN61APN2xCIj7jKCghNRxAOAEtL7MQi+FoIb6XI9j7BUKEvSEBsahjuajag9RjWhIQf5vDhcCQpEYNB1pMh5gMvFrUuBCAy8hOiHlTp0AcDJkH7zOsKiU1DYJKAEENQai5RFuBcdjaT82pxsqU915Jj22NGWH9qpyIlHeFgU7hUqUF2QjowyHnlxVxAUGIig6ylQmeQWLgUGIvBSNB42BJ0OObTQqlwHePkDxIReR1xWKaS5eajQ6otKZCWkoIirQu7dWKSU1EZWVQ7ik/Nrc/UpfMJLkRQShMBAVVzEZKiMUJkRg0uBgQgKSYK0Tu7WxKOOmtKSeqSipf5qvxoBtDU+W+KnhmM1t6EFnbHVOr80GQ+Tk3FLV2yAR1H0LiyYtwOxGXG4HBSMxNoCod2erc9TfVQmxKNggAt61c2aKrKQkCoFj2oUJEUiMrmwRRPP6sIURIWEICZNplaf9dRunfbXc64a7WV/TfW+dWiJQS1joTqa/P+HjjePXoL3v4bgcavHm7bTDpNr3XDpx7FgxJv4+m4x8iP94S4ZjY1RTUapJvB5Qdi8eCX2hcbjxk8rMVoyFuuuFqH45nGsfFmC3uP8EHDqU8yd7Yl33hyJviNWIujmMbw3eQYWvjsTI/qOwadRleCyw7Dbaxjs+83B7hMb8cqQ4Zj08kj0lUzEpohS8IXROLRsAhwlk+C3dxveGu2KkcMW4piUR17QZixeuQ+h8Tfw08rRkIxdh6tSHqiOxy5PH/yQrURV8iHMHfEWvstQAuCQfnwBRrz5Ne4W5yPS3x2S0RuhQ01UJuzHfHcvHIzLQdo5X/jsu1+beDxkd07io1cc0WvsRoRVAUA14nd5wueHbCirknFo7gi89V0GFHp0VCFH9Fee8FgTgISsVJxdOQb93DchuIgHXxSLo8snwFHyKvxPHsQS99cxZ/7rcBo4HfvS6jMCQZsXY+W+UMTf+AkrR0swdt3VhgFVncoE7J/vDq+DcchJOwdfn3243yi3NftX2nzCLuyE7i8U4Psl07D4YDKUEKGTnTVSd83F1A8DkMvxKIo9iuUTHCF51R8nDy6B++tzMP91Jwycvg8q8VvnF6quQKm8AjUg1FSUQi5/jCqumWS6bSrPhdTECh14HooKOeSllVBy6Ti+YATe/PouivMj4e8uweiNUY0uENSpRML++XD3Ooi4nDSc8/XBvsZGhI4Y1YC2HBR26o4XCr7HkmmLcTBZCYg6wc46FbvmTsWHAbmo0aQLAHn0V/D0WIOAhCyknl2JMf3csSm4qIkPqeACfFyd4eo2GgMd+mLa1zdRrten0JFjumJHc35oHVArk3DE+3XM33YJSSlh+HK2M3r0m4H9KTw6dX8BBd8vwbTFB6EyiR2sU3dh7tQPEZBbd1GiTQ7NtC7Xger4XfD0+QHZyiokH5qLEW99h/RidV+UIz/6EJZNcIRkkh/2bnsLo11HYpjnXgSf/AivOPbC2I1hTV6SbJNPyAQdKq5g/azJmLMnA9ZdVHdZjTuLELHFF+crLNFB2Lp41FZTigpaUI+aINTjr5p2rxGtj8+iVvlJcxttiS20qk5oHA9HfISoDjpio0aOXKkJrDrw4BUVkMtLUanUZc9W5mkLUJbew8mvj+NeNQC+CLFHl2OCowSv+p/EwSXueH3OfLzuNBDT96Vpn9jyRQjZ+jY8/30VmYXx2D1VgqE+Z5DHA9BTu3XaX8+5jWk/+2uv9y2ltTHYFO3+/7ONN0+N+jqRllNDN9YNJAOjKXS4yQKoxijp3mfDydRlIyXUEFFNLK0dYExOG+5QjfqhRERcAZ2cO4HWRNcuWOIyaec4QzJw3kB3ajjK/caNjExH0NrQPFISkeL2enIy6EgjP75Mj2qIqOYOrXcyop4+wVRFRIrIVdTHwIYmfhpEj2qIKpIP0AxbERm6+NHdGiIucyeNNzShgcsuU6Esia4G3aWivJM0d8IaahBhJ40zNCDnDXeoInIVDXD6mKKfEBFxlH9iC+1OqiFS3qPPhpuSy8YEUqm5lgYYO9GGOxq1JKoIp9WDetLCM7LaDeV0fpEtGdSv1eIo71s3MrKYRT9VEJEiklYNcKKPVR0Tl3+CtuxOopoW6Ci7+C5J+i6n0LolUhXhtLKvIdnM/pHyOSLlgy9olKEFDV12htIVRCT/meZaG9HoLx6QkjgqODmXJqyJrl3ry1HmznFkaOCsRbcKCl89iHouPEP1mp1fRLYGtWuudfq3cTu1KJNpyzBj6rMqorZ/BUWs6kMmIz+nX5VEREp68MUoMrQYSsvOpJNK/LlkbTSavnigbL1fiIgqvqdpxpbkEVDRsO3xYZpi3LDOTJ9NudxvyM3YlrwuqhYBKu99RsNNXWijKgkodu0AMnbSojMRVYSvpkE9F1JDeJynRbYG9WuuuQLtMdq8Sd05qEzeQsOM+9CqiNrGFBG0qo8Jjfz8V1JSc11IdpHelfSl5Q3KU/jKvmRoM5t+zOdq2zck26m7KFaqJCpPoAMzHcjAaChtiq/R61OFthzTFTsV2vOjOWX0y/IB5Lw6guo8rIhcRS8aDaC1sTVEpKTkLcPIuM8qajDJKupjMpI+/1WpWw5NHbY210lBkasGkNPH0ao12Fw+ndiym5JqNPiCOMrcOZ4MTQbSssuFJEu6SkF3pcRxefStmxFZzPpJpeNT+oSogkKXS8io72qKrO2ayz9K82fvpSyutfGou6borkea0OOvdq4RbYrPmhb6SWcbjYSoQ09stc4vmsdDabWe2OBy6Rs3Y7L1ukhVRLrtqWMcaxE1N2jdQAMS93iZFr37Lr377rvkNWci9badQ/+tS2blA/pilCFZDF1GZ1QBRD/PtSaj0V/QA40BxFHeDx7k6P4tZXJERDWU+MU46tRtAZ0u11O79dhf57kaaBf766n3etEXg2pjYTN0+f/PNN60A7/xnWsRJN5HEXbCBw7ZITi07TCiZTwUT6o0XwVVhuB0UA7un98Bf39/+G87gSfuftj0tgtMIEQHM1MIDHtgyNCuEAEwlDjCXgzYDRkFWzEAsQPsuwlQKpOBAAhNTGAs6gLXaW6wFQOmfT2xcbETKCEUoQU8hCYmMBRaYKjbGHSx7Ac390EwDjuNoJz7OL/DH/7+/th24gnc/TbhbRcTiG0lsM/8ElPHLsBnp5Jg4LEOH/QTAyIJvI+G4YSPA7JDDmHb4WjIeAWeVGnUEuVBe3AkfSDGT7Cs3WKMHg42jdYCCWFu3qHh8YvYFhL7THw5dSwWfHYKSQYeWPdBP4j16liMcwd+RLbjYDjXLeszHQ6P6RIUn/8BgXJA1KEDzETmcHJ3Rw9DAGYS9LYTolReAkIlQk4HIef+eezw94e//zaceOIOv01vw8WkXtgGyoOw50g6Bo6fgHrNejjApk4xnf5tCyJ06GAGkbkT3N17QCV+b9gJSyEvoVb7pWWU6LWpOiKJN46GnYCPQzZCDm3D4WgZeMUTaBajHEF7jiB94Hg0hEcPONQbEagM0R6jzWllDuqh5NwB/JjtiMENymO4x3RIis/jh3rlRbB5yQ1DOokAswF4Z8eHGC1IQNj1Yr19as0xXbGjIz+aUXoBe4+XYfgrLjCt3STq2BGalnJqRJcc6se2Jdchhq3EHplfTsXYBZ/hVJIBPNZ9gH4alRHCxMQQQouhcBvTBZb93OA+qBOEQnOYd1B/eNt2nwCmGOXzAUbnHMWXpwrAg0NmwAUYzJgJO2Fr41F3TdFdj9pC+9aINsVnS/2ks43m6Iut1vlFNZaoj4edWpoXdeiyZ2vyVAeiAXOxc+9e7N27FwdOXMJPKwY1tCHqgA5mIpg7ucNdFUCQ9LaDsFSOEo0BJEPgySAYOQ9FVyEAiNF/VQikOUcw3Ux37dZnf13naqJd7P+09b6VMdgMXf5vA3/YeNMOtNp1rUUofoK4XYvhfSgXg9/xxkQbodYiyZcVQfrECH2nr8batWvr/9Ysn4o+YkBQt7imDoEQgiatCSAUAtq/OSlGr/69YYYaKBSqg5q2yKOsSIonRn0xfXVD/2vXrsHyqX1g2H0Rjl3ZCw/zUGydNQR9XJfhdBYHQAjxkzjsWuyNQ7mD8Y73RNgItQnBITvlV8ghgliH9QWCRmubhN2x6NgV7PUwR+jWWRjSxxXLTmdpeczVSMfKfGQ9qgRfXd3o8bAYDva2EFbLIXvMA437AQCBCCIBQDwBfBmKpE9g1Hc6Vjfyx9o1yzG1T/MA5LJT8KscEGlRTJ9/24J6TAhEIghA4Amt9EsL4Qr021QdoRhP4nZhsfch5A5+B94TbaBVDC4bKSojaklO3TGqyYytyUHdcCjIeoRKvhrVjdYbiB3sYSushlz2WGMxE3bpiR6WAnDKGvVdzRBqyTGdsWPY8vzgch8go1wMQwP1yWfL0ClHM+O3IdchRPdFx3BlrwfMQ7di1pA+cF12GlmalAGaVbC6bep5oU5rfAIAop5vY8VMY1z4ci8SqpJwPPh5zJ7cqfXxqK+m6KpHbUTdFk9TI9oUn2K0yE/622iMvthqpV9q0SRl69Bhz1aNYy1FjEHz3sao+ndCG9bg1v1fpAogzTWPk6KwuAryEtUNuWZord367K/rXO08vf2frt63LgY1ocP/reaPG2/aA21h8ZRwePDDEVytKMfFFdPgK52JbzbPgYt1nXc0G1to0Q02pikIOHgNsvqtHNIDLyC+zctgCNTIAzWVVeCt+2JAN03vjAph0c0GpikBOHitQQJw6Qi8EA9FdiIe2Xli17UUJJ3zxaCsPfDZehWK8otYMc0X0pnfYPMcF+hWU4BOz3WCuCoRt+IUTXcRrzFYwGUj8ZEdPHddQ0rSOfgOysIen624Wn+6Fh3t7NC7lwW4pJu41bB6H9WKaghfGAxnGz3uF1qgm40pUgIOoqk5AnFBg0MEnZ5DJ3EVEm/FoalmBJ5vi39FEIs0DKxELSvIrfJLCxF1a7VNyy+uwDRfKWZ+sxlzXKzrBzaNYgg64blOYlQl3kLz8OD1xmhzM+rJQZEYovqJRgNEmiwsQrfevWDBJeFmg/LgqxWoFr6Awc42mgtKZRGKn3SH05DnIdTjU05LjtXoih2FvvxoQGBphY54hJvRD7XGkEgloJp/CMS1NobbkOvgkJ34CHaeu3AtJQnnfAcha48PtmpS5mlohU9UdIT78ncx6N4BfL7pW9zuPw8TTNH6eGxlTWkJuvyll1bWiDbFZwvVat/YaqVftNKS2GiELnvqHcfahuh5G3Shhzh7OkZt3GkBoufR3dYEBYE/4VJJ3UYe0sB9OJHK6ajd+uzfyrqvlVbaX1+910PrYlADuvyPP8940+o40oBG2VoGj+qqahA9wZPKpsNEZeJe+EWZwMWkFA/SC1CelYqH5VXIDj2HqDwOlaV5iItJbHIOAMBsEhbO6YGMfR4YP3cTvgs4haP+Xvg40gw9xQDH82qDEqmKaL3dVP/m+UaO4ouQmVFe++9cnD0bjwHe72Fi7ZUuQYmaRkFjNmkh5vTIwD6P8Zi76TsEnDoKf6+PEWnWE4LsAGzfdxuVMIbDa75YP9MBpkbGoNIHSC8oR1bqQ5RXZSP0XBTyuEqU5sUhJrG273qE6DJlPiY/l46DK3xxPqsaUGTidmIhOFkOMvNLUQmA53hQna5cNgK278PtSsDY4TX4rp8JB1MjGNdd5mrVsSMmL/XGQNkp7DyUqvpFCz4fV0KyMWrpexhjBPAcByXxjYKPQCDwPA8eZpi0cA56ZOyDx/i52PRdAE4d9YfXx5Ew69n8MlbYZQrmT34O6QdXwPd8FqqhQObtRBRyMuRk5qNUoNu/zRBZw7arIXKiL+N2QSHuXdiDIxFSKIuy8bC4DFXgwXFKEN8oWYlUMcLz4Fvll1qqq1FD1ahWNIppjgNXaxNAv02FxsYwwmPk5ZagKCYMUffSUVCehdSH5ajKDsW5qDxwlaXIi4tBMzGEXTBl/mQ8l34QK3zPQxUet5FYyEGWk4n80kqdMdrMjLzuHBRZ26KrYQ6iL99GQeE9XNhzBBFSJYqyH6K4rEpNl3BkTlwK74EynNp5CKkq5ZF/JQTZo5bivTFGtZ0SKkvltQWqCgkHj+PBP9Zj2UhDvT6t0JJjAl21QaAnPxohtP4H3hhvgpjP5+K9PZcQe+sXHDn8C/LqS4YI1rZdYZgTjcu3C1B47wL2HImAVFmE7IfFKBPpkKOZ8duQ6+CQHbAd+1TK4DXf9ZjpYAojY0EzX8RXQlUDlTVqkyUeHE+1F2N1tN0ndTeNxP0WY/nkGvz3qySMnOdSH2utikc9NUV3PdKEHn9VtW+N4NoSn2K0zE9622iM/tgStMovKtTHQ72xITSGsRHwOC8XJUUxCIu6p92e8ala85SXXsFGj39iS3CjCwF1eCWqlVRbjxujQMrBjbhSLYERz4FTEvhGF1sqd/Nokg71dMSrC2fBLv8Y3n1jOf4T8D+c2PE+PAPEcHUUoPSBttp9AwUTddlfhnyt52qo+7U8rf3D4/J11vvKG7uxYPI/selSXqNOGqEvBpuMhc3Rl09/mvGmsVJtRX0RdotQPKDgo/40U2JAAoEh2QyeQO6vvkqvvupObqMHUTdTS5p+pJCIOMo5vZSGdTUnq15jyWtPMH3vaU+WPSfT9ii5eqsqKpLpuM9EcrQyIkOL7jRqyRFKrCAqTz5Ln75qSyJxT3pz2zlKyIyj/22eSt1FYuo5w5/+7+5DuhmwgV6zFZG4xwzyD0yjijvrabChDY2Y5UXvr/iQ3p83gzw+OUeZSiJOeptOrn2ZbEQisnVfRydvFlPdp3Aqko+Tz0RHsjIyJIvuo2jJkUSqICJFhC+59nKilz0/Ir9Na2jJEn+6ls8RcTl0eukw6mpuRb3GetGe4O/J096Sek7eTprV5EgW+y15jrAnK0sHGjrlA/JbNIJ6jJxDnxyOogeJ5+jTV7uRSOxA07deoNTHEeTr2oucXvakj/w20ZolS8j/Wj5xRFSjQ0cVNZRxdh1NdXGm8bMX07/emU/eX4ZSAUdE8ng65etG1iIDkszeQReTUun6oaXkaikkU2cvOhCeQ0QVlHzchyY6WpGRoQV1H7WEjiQ2etlPDU4WS996jiB7K0tyGDqFPvBbRCN6jKQ5nxymqDxOq3+18Th8C03qbkEWts40c3swXVztQr3HLSC/4zcoPe4U+bpZk8hAQrN3XKSk1Ot0aKkrWQpNydnrAIVnZ7fKLzXp1+g/S0dTZ6GQrCespn3/jaJH5Sl0foM7dRWJyH76VjqT+Fi3TYmIlGl0+J8Ssuosoek7oqk05zQtHdaVzK160VivPRT8vSfZW/akydujSIMYRJyMYr/1pBH2VmTpMJSmfOBHi0b0oJFzPqHDUXlEOmK0Ofpy8DGFb5lE3S0syNZ5Jm0PvkirXXrTuAV+dPxGcTNdyoioJuMsrZvqQs7jZ9Pif71D872/pNB65Svo17NbaN64l2jsNE96f+liem/zOXrQ6P0XXT7Nva4lx0h7bSCF9vzQhDL3Mn06pS916WBBDhNWUEDgpzTUpO6FRiJ6HE5bJnUnCwtbcp65nYIvriaX3uNogd9xulHc2hhuZa5XKSjC15V6Ob1Mnh/50aY1S2iJ/zXK59TjKpIyb5+ktS/bkEhkS+7rTtLNYo6Iyin53Kf0ajcRiR2m09YLqU/tk+JGhqwKXU4uU/ZTjppxWx6PpL2mtKgeaUCHv4LD/tuuNULrGEDa4pMjaYv9pK2NJiI0Qndsqcpty/yiazzUHRtKSjv8T5JYdSbJ9B0UXapjLCzUnqfKtG/p1ee70uS96WqSqVCm/0IH/N4giZGAhFZONGOR6oXGd99dRPNe7U+dnnuLTkjlFH/Kl9ysRWQgmU07LiZR6vVDtNTVkoSmzuR1ILxZ3KqooOQTPjRR0oXMO9rS0Dk76Hqh6kBOZ+3Wbf+cbF3nNqXd7F+mq96XUM7hGdTV8jmyHrVJTYJGaIvBJ5rGQjX0zoX+ROPNUyIg0r5C+c+OMm4Dho48gymRt7DZWdu1+p+bv4OODMZvCZe8BSOG/oRJoXfw2Ussh7TDI2uvJ7Z2+Rr73rRS38lgMP4MVIfD971b+Oy7Zep7GO3IUywL+ROh+QnGX4u/g44MBuP3hytHiawKfHkk9lyxwbzX2cSawfhTwksRuf88Os97W30Po535S0+ulSUleMyVQipT/ybhX4e/g44Mxm+JsrgYpcpyyB+35I2dvxtKxG8dDxtra3R9cSlK3l7R6JcZGAzGnwcesoQ48JP9sHI8u0D+rRH5+fn5qW/8K6BIu4KjlwvxwpD+6FCSBeo2CD2tNP1CyJ+Xv4OODMZvCZcTgRNBj2Dt1A/msmwIXnCCg+Vf+p5DKxGis4M9OnfuhzfX/RsfT3z+r31HhsH4yyKASdee6G7Jlr79Hvyl11wzGAwGg8FgMBi/J+wmBIPBYDAYDAaD0U6wyfVfigpk3rmL7EZfM3r24FGWnoA0eXu/gdkOuvNlSE9IQ5tEe5pzfyeqchJwr+AZFrANVGTewd2ncvqfE74sHQlpcvYeM4PBYDyDsMn1Xwg+Yz/eHumKxUfz1Xc9E3DZv2CH5zD06O+B/Snt+/JYY91bP+HgkP3LDngO64H+HvvROtGe5tzfB15+B8c/dIOj43hsCf8LvfjKZ2D/2yPhuvgo8lvv9D8nXDZ+2eGJYT36w2N/Siu+tMdgMBiM3ws2uf4LIXRYgu+jInFgQVf1XW2GL7qFmw80fZq09YjsJsJn8Th0/g2W+TfWvfVBLYLdRB8sHte50dc+W8rTnPv7ILR0xpwV0yB5VgVsKXwRbt180PB1NqEDlnwfhcgDC9C19U7/cyKyw0SfxRjXmVr4QWMGg8Fg/N78XYakvwlmsHceDLt2+6msCsR8vQFH7rff/TGRpSUs2uXbouo8re4iWFpatPGzp09z7u+D0MIcZs+ygC2gIuZrbDhyv8ndWjN7Zwxuu9P/nIgsYfnbJBGDwWAw2oGnmFzzKHuYhPQyHpwsDdFhMUiTq93hVEpxPyYY10JuIF1tHy9/gJjQ64jLKoU0Nw8VDSdBej8GwddCcCNd3nCXSgN82UMkpZeB52RIiw5DTJqG4zkZ0m9eR1h0CgrVn4hXZiEhpQhcVS7uxqagpMnJPPLiriAoMBBB11Mg5wEu9xYuBQYi8FI0HlbWHVeBrIRUSHmguiAJkZHJKNQ7F61GYUoUQkJikCZTl5iDLP0mrodFI6WZwPr7UuTGIzmfB58XhytBgQgMuo4UlfC4dSkQgYGXEN0gPCqyEpCqahBJkZFIrmuQL0L0rgWYtyMWGXGXERSciKL6R++6ZNSEEiVpsQgNu4PsJ+r7AKASuQkRCAm7hcwyfc/3tduuKkelO/g8xF0JQmBgEK6nyMGDQ+6tSwgMDMSl6Ido0B6AsgRpsaEIu5ON5qLpiUWd5wKozEVCRAjCbmWiiVq8HA9iQnE9Lgul0lzkNQS/BrTZRn8sNEEoaD75b1N+aqICOfHhCIu6h0JFNQrSM1DWGh9os1M9PIqid2HBvB2IzYjD5aBgJNYFY1UO4pPVlgJpa68iCwmpUvCoRkFSJCKTC5svq9B2rjp8GR4mpaOM5yBLi0ZYTBqal7/7iAm+hpAb6Wr7KpGVkIIirgq5d2ORUld4dPgDAJQlaYgNDcMdTUmk51wGg8Fg/H60aXLNZYdht9cw2Pebg90nNuKVIcMx6eWR6CuZiE0Rpapj0o9jwYg38fXdYuRH+sNdMhobo1RDanX8Lnj6/IBsZRWSD83FiLe+Q4YSAJeO4wtG4M2v76I4PxL+7hKM3hjVdCCGat1h2G4vDLPvhzm7T2DjK0MwfNLLGNlXgombIqCSAJBHfwVPjzUISMhC6tmVGNPPHZuCi8DzhYg+tAwTHCWY5LcX294aDdeRw7DwmLRRJ0J06v4CCr5fgmmLDyJZCYg62cE6dRfmTv0QAbk1KIo9iuUTHCF51R8nDy6B++tzMP91Jwycvg9pWsY3vigEW9/2xL+vZqIwfjemSobC50yeanIgj8ZXnh5YE5CArNSzWDmmH9w3BaOI5/X3Jb+Lnz7+B3r3csX6X6og7NQdLxR8jyXTFuOgSnjYWadi19yp+DAgFzVFsTi6fAIcJa/C/+RBLHF/HXPmvw6ngdOxL40DL8+F1MQKHXgeigo55KWVqomIVhnVNa2lMgH757vD62AcctLOwddnH+43sg2fF4TNi1diX2g8bvy0EqMlY7HuqlTjumlttlPK7uDkR6/AsddYbAyrAoSd0P2FAny/ZBoWH0yGEiJ0srNG6q65mPphAHJr+69M2I/57l44GJeDtHO+8Nl3v2ECrScWdZ4LHnlBm7F45T6Ext/ATytHQzJ2Ha5KeaA6Hrs8ffBDthJVyYcwd8Rb+C6j2RQP0GqbIhToi4UW0Kb81EBl0hF4vz4f2y4lISXsS8x27oF+M/YjhW+JD3TYqTG8HLlSE1h14MErKiCXl6KyWoY7Jz/CK469MHZjGFSvNGppr6gAsUeXY4KjBK/6n8TBJe54fc58vO40ENP3pdX6Tcu56rKAQ3bYbngNs0e/ObtxYuMrGDJ8El4e2ReSiZugKn8c0o8vwIg3v8bd4nxE+rtDMnojoip5FEYfwrIJjpBM8sPebW9htOtIDFt4DIU6/AFUImH/fLh7HURcThrO+fpgX6Mk0uVLBoPBYPwBUBtRRK6iPgY2NPHTIHpUQ1SRfIBm2IrI0MWP7tYo6d5nw8nUZSMl1BBRTSytHWBMThvuUA0pKHLVAHL6OJqeEBFx+XRiy25KqiFS3vuMhpu60EbVSRS7dgAZO22gOzXqvRORIpJW9TEgm4mfUpBKADoww5ZEhi7kd7eGSHaR3pX0peWhT2pPqKDwlX3J0GY2/ZjPEXGZtHO8IZkMXEaXC2WUdDWI7ko5tU6UlLxlGBn3WUURCtUWRcQq6mMykj7/VUlESnrwxSgytBhKy86kk4KI5D/PJWuj0fTFA6VaW0TE5dEPHo7k/m0mcURENYn0xbhO1G3BaSonGV18V0J9l4eq7EJEFeErqa+hDc3+MZ+4lvRVvI/+YWRGb5yoICIiZfIWGmbch1Y1CE+r+pjQyM9/JSURKR98QaMMLWjosjOUrmqQ5lob0egvHpCSiLjcb8jN2Ja8LlbVSqRPRnUqKHz1IOq58AzJareUn19EtgYv0uooBRFXQCfnTqA10bXycZm0c5whGThr8LlO2xFxed+Sm5EFzfpJpTspk2nLMGPqsyqCVK0rKGJVHzIZ+Tn9qiSiinBaPagnLTxTLxmdX2RLBi+upiiFnljUcy5XcJLmTlhDDWrtpHGGBuS84Q5VRK6iAU4fU7Qq+Cn/xBbanaSuLOmxTQtiQZ3Hh2mKsRXN+fkJEbUtP5tR9gstH+BMqyNqbU4Kilz1IhkNWEuxNfp9oMtOzbrjcukbN2Oy9bpIddFIXB5962ZEFrN+ogrS057yAX0xypAshi6jM6pgp5/nWpPR6C/oQWtlIQVFrupDBjYT6dOgR1RDFZR8YAbZigzJxe8u1Sjv0WfDTcllYwKpzLuWBhg70YY7NUTEUebO8WRoMpCWXS4kWdJVCrpbSEla/UFUEb6aBvVcSA3hdp4W2RrQi6ujSKHTlwwGg8H4I2jTnWsAEJqYwFjUBa7T3GArBkz7emLjYidQQihCCwSQeB9F2AkfOGSH4NC2w4iW8VA8qQIPMWwl9sj8cirGLvgMp5IM4LHuA/QTAyKJN46GnYCPQzZCDm3D4WgZeMUTVKnfPFIJABNjEbq4ToObSgB4blwMJ0pAaGgBis8dwI/ZjhjsXLce0xTDPaZDUnwePwTKVecbCmEx1A1juliin5s7BnVqrTlE6NDBDCJzJ7i794AhADNJb9gJSyEv0fC6kSwQJ4OM4Dy09qU7cX+sCpEi58h0mJWcw4Efs+E42Bn1Eg/3wHRJMc7/EAh5S/oy6QDTVnx8SdShA8xE5nByd0cPVYPobSdEqbxE88tSemVUozwIe46kY+D4CbCs3WTcwwE2dR+RrAzB6aAc3D+/A/7+/vDfdgJP3P2w6W0XmDRqBtBjOwBCc3N0aLbuQTvlQXtwJH0gxk+olww9HGxQJ5quWNR3bmXIaQTl3Mf5Hf7w9/fHthNP4O63CW+7mEBsK4F95peYOnYBPjuVBAOPdfignwan6bRNC2JBJ6I25ac6pRf24njZcLziYlq7RYSOHTu0+HGYLju1CKE5zBs5XWd7og7oYCaCuZM73FXBDklvOwhL5SghPec2QwgTE2OIurhimpstxDBFX8+NWOxESAgNRYFAAu+jYTjh44DskEPYdjgaMl6BJ1V87bmGEFoMhduYLrDs5wb3QV3wolZ/lCNozxGkDxyPhnDrAYf6JNLlSwaDwWD8EbR0HGwBYvTq3xtmqIFCQRCKnyBu12J4H8rF4He8MdFGWDthE6L7omO4stcD5qFbMWtIH7guO40sDoBQjCdxu7DY+xByB78D74k2ELZkrlCLuFd/9DYDahSVyM96hEq+GtWNfgJX7GAPW2E15LLHqoGnFZMxbQgETRsRiEQQgMBrkJuTFqK4So4SWfOdXEEWHlXyqG4qMOxthaiWy/CYb0lfAqgdohuB2jpcgQgiAUCahG+hjI3hslPwqxwQiTWHGV9WBOkTI/Sdvhpr166t/1uzfCr6qE3mdNkOqNWlxbpzyE75FXKIoEU0HbGo71weZUVSPDHqi+mrG3Rau3YNlk/tA8Pui3Dsyl54mIdi66wh6OO6DKezmq/l0Gcb/bGgmzblZxM45D7IQLnYEAYttntjdNtJw1xeA4JGdtDXnnp8CCBSBTtI77ktQNwL/VXFBwoSQvwkDrsWe+NQ7mC84z0RNk0KWXODafUHl40UVRJpLdZaz2UwGAzGH4K2et1CCNRoQlVTWQXeui8GdHuCiyumwVc6E99sngMX67rhiVSTk8RHsPPchWspSTjnOwhZe3yw9aoC5RdXYJqvFDO/2Yw5Ltb1g5qugYKaCoAq3hp9B9jBrncvWHBJuHmrYe0hX61AtfAFDHa2abHiIrGodgBuDIGaTTb0I3q+O2xNChD40yWU1G3kpQjcdwJpz/dGLwsOSTdvNawx56uhqBbihcHOsGmpwI0RiSHSMOGitggPQNStdTIKOj2HTuIqJN6Kg6LJHgLPA0KLbrAxTUHAwWuQ1e/jkB54AfFqa3x12S5VozoiqFzXTHlwEKDTc50grkrErbimkoF48ICOWNR3rhAW3WxgmhKAg9catAKXjsAL8VBkJ+KRnSd2XUtB0jlfDMraA5+tV9Xs0zrbtJ7yNuVnUwSwtOoIPLqJ6IcaHaDHB7rt1HoVn6a9Np5L1OjucA0qq3hY9x2Abk8uYsU0X0hnfoPNc1zQxLwa0eEPQSc810mMqsRbaB5uvO5zGQwGg/GH0JYpWwN8ETIzymv/nYuzZ+MxwPs9TDQsxYP0ApRnpeJheRWyQ88hKo9DZWke4mLikR2wHftuVwLGDnjNdz1mOpjCyJhQ+iAdBeVZSH1YjqrsUJyLygNXWYq8uBgk1nbTFB5FmRlQ7eKRe/Ys4gd4472Jxug4eSm8B8pwauchpFar9udfCUH2qKV4b4yR6nQClDVah04AIljbdoVhTjQu3y5A4b0L2HMkAlJlEbIfFqOsigfHKUF8owkskWqSxWt4KNvxVSycZYf8Y+/ijeX/QcD/TmDH+54IELvCsdNkLPUeCNmpnTikEhh8/hWEZI/C0vfGwAit7AuAyNoWXQ1zEH35NgoK7+HCniOIkCpRlP0QxWVV4DkOSuIbTX4IBALPqyaYQmNjGOEx8nJLUBQTjngDfTI2RdhlCuZPfg7pB1fA93wWqqFA5u1EFHIy5GTmo1QwCQvn9EDGPg+Mn7sJ3wWcwlF/L3wcaYae6rcLddlOBIDnwJNq0g4AEFnDtqshcqIv43ZBIe5d2IMjEVIoi7LxsLgC5lPmY/Jz6Ti4whfns6oBRSZuJxaCk+UgM1+GfK2xeAMFE3WdWwrBpIWY0yMD+zzGY+6m7xBw6ij8vT5GpFlPCLIDsH3fbVTCGA6v+WL9TAeYGhk3v5dppss2rY8FcBy4Wt+Cb0t+qksohPU/3sB4kxh8Pvc97LkUi1u/HMHhX/IaXuzU6YMyiHTYSd39EBrD2Ah4nJeLkqIYhMdXAuDB8VQ7yQTMdLXHc+CUBL7RhbLKZDx4Xs+5TQRpgC/KREP5O4uz8QPg/d5EGJY+QHpBObJSH6K8Khuh56KQx1WiNC8OMYnldYWnYdKuyx83CjBl/mQ8l34QK3zPQxVut5FYyEGWk4l8Wb72c2MSwUuvYKPHP7EluNFFA4PBYDB+W9QXYbeUmjvrabChDY2Y5UXvr/iQ3p83gzw+OUeZSiIijnJOL6VhXc3JqtdY8toTTN972pNlz8m0PaqQInxdqZfTy+T5kR9tWrOElvhfo3yOiMs5TUuHdSVzq1401msPBX/vSfaWPWny9iiSNxeA1g82JJsRs8jr/RX04fvzaIbHJ3ROJYDqkIyztG6qCzmPn02L//UOzff+kkILOCJOSrdPrqWXbUQksnWndSdvUnHzt/FUPA6nLZO6k4WFLTnP3E7BF1eTS+9xtMDvOAWH/Zd83axJZCCh2TsuUlLqdTq01JUshabk7HWAwnM0NFqRTCd8JpKkizl1tB1Kc3Zcp8K6w2oy6Oy6qeTiPJ5mL/4XvTPfm74MLSCOiOTxp/T3VfEDvdmhQ/0LjUSPKXzLJOpuYUG2zjNpe/BFWu3Sm8Yt8KPjwWF0yteNrEUGJJm9gy4mpdL1Q0vJ1VJIps5edCA8h0iZRof/KSGrzhKaviOayvTIqAlOFkvfeo4geytLchg6hT7wW0QjeoykOZ8cpqg8jqgimY77TCRHKyMytOhOo5YcocQ68dXRZrvyZDr36avUTSQmh+lb6UKq6pW3x+FbaFJ3C7KwdaaZ24Pp4moX6j1uAfkdv0HFHEey2G/Jc4Q9WVk60NApH5DfohHUY+Qc+uRwFOVk64pF3eeq1DpOPhMdycrIkCy6j6IlRxKpgogUEb7k2suJXvb8iPw2raElS/zpWr4W62mxTYtioTFPUuj8BnfqKhKR/fStdCZR3qb8bI6Sci9/SlP6dqEOFg40YUUABX46lEzqXmjU6wPtdmqOktIO/5MkVp1JMn0HRZeVU/K5T+nVbiISO0ynrRdSiUhbe3KKP+VLbtYiMpDMph0Xkyj1+iFa6mpJQlNn8joQTjmtkqWG7qwfTIY2I2iW1/u04sP3ad4MD/rkXCapyl8OnV46jLqaW1GvsV60J/h78rS3pJ6TP6eg0JO09mUbEolsyX3dSbpZzOmpl3IiTkax33rSCHsrsnQYSlM+8KNFI3rQyDmf0OGoHJ3nKtO+pVef70qT96arK8FgMBiM3wgBUds+26aM24ChI89gSuQtbHbWdm/nN0QZhw1DR+LMlEjc2uys9e7S34rKk3irqw9Mjj7CsRl/sw9rMJ4BOCRvGYGhP01C6J3P8NJfNimViNswFCPPTEHkrc34I8ofg8FgMJ5dnm5ZCIA//pX0P1yAZwe+BkphHwzob6C+h8Fg/Aaw6sNgMBgMddo8uVaWlOAxVwqprCVf6PsNUJag5DGHUqkMf5AEzwbKJHwx/gUMmLsL5/8vBtWzVmGBY93PdDEYvydKFBeXQlkux2NdrzL86VGipOQxuFIp/qjyx2AwGIxnF5Gfn5+f+kZ9KNKu4OjlQrwwpD86lGSBug1CT6vfcUKnSMOVo5dR+MIQ9O9QgizqhkE9rep/Z/hvhbAT7Lp3gPKxFJXdPLBh9UQ8/7c0BOOPhUNOxAkEPbKGUz9zyLIFeMHJAZZtvnx/VlEg7cpRXC58AUP6d0BJFqHboJ74Pcsfg8FgMJ5t2rzmmsFgMBgMBoPBYDTlL3dficFgMBgMBoPB+KNgk2sGg8FgMBgMBqOdYJPrP5QKZN65i+xGXxNXhy9LR0Ka/Df6VQLt/fOlGbgZHoXE/CqgIhN37mZDw2GM9oYvQ3pCGuR1Dme2/3PxF/JXVU4C7hX8NpUHqER2/D0Uam1eU22qQk7CPfxmIv1N+W393BgeZekJSKsvbn8dKjLv4K6mgbQO9br+O/Bb+lWvvn9GqnKQcK+g3eZabZpc83nR+Onr5Xhj3GiMHjMF7/37OK5n1n2XTYG0Xw5hi9c/MMZtLj45cA1p6l9OZgAA+Iz9eHukKxYfzW/uUC4bv+zwxLAe/eGxP0X7J5ifAs39c3gY8BG8t51D1JlP4C4ZgOlLZmKk62IczW8mJaOFKK6vg2ufsVgVVNjc14Dqs+O/7IDnsB7o77EfKUoA4JGx/21m+z8Nfw1/8fI7OP6hGxwdx2NLeHv/HAoP2Z3j+NBNAombPyK1NN+0NvGQ3zmOD90c4Th+C5qJpLiOda59MHZVkI7JOkOd39bPTeGyf8EOz2Ho0d8D+1XF7a8Dn4H9b4+E6+KjaJ72mur6b8tv7led+v4J4eW4c/xDuDk6YvyW8Pb79Tn1r8q0GGUSbXnJgMSSDylcob6T6Ml5LxridV7LF87+QLhCunkjTfUltT+ccsq4HUdZT9S316IIpw8lRvTi6ijSYOJWwxXepBtpjTVv3j+X/z3N6PYa7ZcSEVdMVzfNI+89V+l2XBZpE5OhDwVFrBpKI9eFNf/SaBMUFP6hhIxeXE1RdQ4vz2C2/93gqPDmDWqSIq3lL+IvLutrmmBkRXN+/i004Sjjy3Fk1Hk+ndbavHpt4ijr6wlkZDWH1EVSRKyioSPXUZju5Hp6/oixow19Nq/z2vlt/dwURfiHJDF6kVbXF7e/DuUZtylO+0DevK7/xvzWftWt758QLou+nmBEVnN+brfa3aY71wAAwXPobCWAwNxS489tCTta4YXnOj9zX06siPkaG47c/03uBLceM9g7D4adto8piixhaSFQ39pGKhDz9QYcud9Y8+b9V0dfRXiFGSyMAQg7w239MezxdoPzYDtoE5OhBy4LmS98hB82jkFH9X1NEMHS0gJNPG5mz2z/e1ERg683HEGTFGktfxF/CS3MYdZepacZQliYmzaN82ao1yYhLMzNNJzDISvzBXz0w0aM0Z1cT80fMXa0vk9NdV47v62fmyKytES7DWfPGGb2zhisfSBvXtd/Y35rv+rW90+I0ALm7WwwDdPi34oKZCWkQsoD1QVJiIxMRqFa/iul9xETfA0hN9Ihr1tlooPKrASkFHGoyr2L2ORk3LoShMDAIFxPkYMHh9xblxAYGIhL0Q9RCR5F0buwYN4OxGbE4XJQMBKLVM80WtsvL3+AmNDriMsqhTQ3DxWNd1bmIiEiBGG3MlHWgkcmVTnxSFZ7tqIsSUNsaBjuZD9psr2OytwERISE4VZmWZMlBhVZCUhVGRhJkZFIrjMwX4ToXQswb0csMuIuIyg4EbWqN+pfgazYS7gc/QClXDGSrwbiUmQaylRHISc+We0RUDUKU6IQEhKDNJma0ZRS3I8JxrWQG0hvgUH5sodISi8Dz8mQFh2GmDQ5mp3FyZB+8zrColNQqP7cpjILCSlF4KpycTc2BSXNTgb4vDhcCQpEYNB1pMh5gMvFrUuBCAy8hOiHlfXHabWhPqoLkRIVgpCYNKibA+iM4aO6IuuGBtmh+iBSWmwowu5ko7nHNdm+CnmJEQgNj0NmqaYg4yBLv4nrYdFI0dhhA7w0CSFBgQgMDETgpRhkVAJAJTJiLiEwMAghSVL1Uxrg5XgQE4rrcVkoleYir2kiIDchAiFht5DZkkQAUF2YgqiQEMSkyZr6X0c8NakBKSW15ykhvR+D4GshuJGuIZY0xC5fFI1dC+ZhR2wG4i4HITixqD63tOWb5r6b+qv0fgQuBdbat/4vCOGpctUBOnTTxO+RKwAAoUDzZEBX2zrjoSkCQaPWFVmIvVQXgzeQVbuMUL02Chuf04jOw0eha9YNDbGuWtddwAOcPB03I+8gq06m6gIkR4bjbm7zdaPN/a1t7KhEVkIKirgq5N6NRUojY3KydNy8HobolMJmj5l1jh/1aOtThcb2tdZ5Hfmgxc/NbaCiZbI3RomStFiEht2B5uGsNXVCu711jru6arOueNaYK1pkqMpBfLLa8k6ddV1P3y1Gi/20+FUjOuVohb5VeUiMCEV4XCY0DkvafFSRhYRUKXhUoyApEpHJhTouJnlIk0IQVFtLL8VkQDVkZSDmUiACg0KQJNXUeQOaY1sILeWlzfwOk2seRbFHsXyCIySv+uPkwSVwf30O5r/uhIHT9yGNAwAO6ccXYMSbX+NucT4i/d0hGb0RUQ1znibwhdE4tGwCHCWT4Ld3G94a7YqRIz5CVIcCfL9kGhYfTIYSInSys0bqrrmY+mEAcmvkyJWawKoDD15RAbm8FJXK1vULANXxu+Dp8wOylVVIPjQXI976Dhm162PzgjZj8cp9CI2/gZ9WjoZk7Dpc1eJoXnYHJz96BY69xmJjWF2Br0TC/vlw9zqIuJw0nPP1wb77jaoBn4egzYuxcl8o4m/8hJWjJRi77iqKCmJxdPkEOEpehf/Jg1ji/jrmzH8dTgOnY18aB16eC6mJFTrwPBQVcshLK1HdrH9CdUUp5BU1ANWgolQO+eNKSG+dxEevOKLX2I2oE5MvCsHWtz3x76uZKIzfjamSofA5kwceAJd+HAtGvImv7xYjP9If7pLR2KjNoFw2wnZ7YZh9P8zZfQIbXxmC4ZNexsi+EkzcFIHS2sPk0V/B02MNAhKykHp2Jcb0c8em4CLwfCGiDy3DBEcJJvntxba3RsN15DAsPNZ8Qijs1B0vFHyPJdMW42CyEhB1gp11KnbNnYoPA3JRU6TbhtrhURSyFW97/htXMwsRv3sqJEN9cCZP5XetsteeXZmwH/PdvXAwLgdp53zhs+9+7eDHQ3anue1RGoXt06fg0+gaGJVewPsj+uKlCa/g9Te3ILgSgDwaX3l6YE1AArJSz2LlmH5w3xRcfzGljtCkAyqurMesyXOwJ8MaXYwBwBidRRHY4nseFZYd1E9RUR2PXZ4++CFbiarkQ5g74i18p0oE8HlB2Lx4JfaFxuPGTysxWjIW665Ktaw1V00KQra+Dc9/X0VmYTx2T5VgqM8Z5PHa40ljDRi2EMcK03F8wQi8+fVdFOdHwt9dgtEbo1QFWGvs5qAkVwoTqw7geQUq5HKUViq151u+pr49sTdY3V/VuHd0K/bF5KBELodcXoybexdj6ptrcb5QpFU3jfyOuaINrW1DdzzoRSzGvf3L4fd/mTB8wQ5W5eq1SQtaY51Hyc3jWPmyBL3H+SHg1KeYO9sT77w5En1HrETQzWN4b/IMLHx3Jkb0HYNP62yuxd9SpfrYIcOjmENYNsERkkl+2LvtLYx2HYlhC49BCjmiv/KEx5oAJGSl4uzKMejnvgnBtQmoffxQg1fvsxSVSgA62tdU55Wc7nxohjYb8K2QvY7KBOyf7w6vg3HISTsHX599aDqctbRO8CiM1mZvXeNuG2uzxlx5CXP8djWXwXMvgk9+hFcce2HsxrD6F5m113UVWvtudIw+Wm4/7WiXQ4vNtehbGrUd06d8iugaI5ReeB8j+r6ECa+8jje3BKNSm4+KChB7dDkmOErwqv9JHFzijtfnzMfrTgMxfV9a85sGAAAhTDpU4Mr6WZg8Zw8yrLuonhIad4YoYgt8z1fAsoOWaa2O2P5NUF8n0mK4AtrziiEZuGyixBr1nUSK66tp6pq6tcJKevDFKDK0GErLzqSTgojkP88la6PR9MUDJZHyHn023JRcNiZQDRHVxK6lAcZOtOGOhoZr4TJ30nhDExq47DIVypLoatBdklYn05ZhxtRnVURtvwqKWNWHTEZ+Tr8qiYjLpW/cjMnW6yJVEbWhXwVFrhpATh9Hq9blcPl0YstuSqoh4gpO0twJayi6dk0Vl7mTxhkakPOGO6StNS7vW3IzsqBZP6lWpleEr6ZBPRfSGVntAeXnaZGtQe2aa44KTs6lCWuia3XjKHPnODI0cKYNd2pI+eALGmVoQUOXnaF0lYFprrURjf7iAalU/4bcjG3J62KV1v6JiCq+n0bGlh4UUL+Jo7xv3cjIYhb9VEFEXB794OFI7t9mEkdEVJNIX4zrRN0WnKZyUtK9z4aTqctGSlAZlNYOMCYnHTYgRSSt6mNANhM/paBHNUQVyXRghi2JDF3I724NkewivSvpS8tD61ZCVVD4yr5kaDObfszniLhM2jnekEwGLqPLhTJKuhpEd6WcWicqlMlbaJhxH1oVUeskRQSt6mNCIz//lZREem2oCS7vB/JwdKdvM1V91iR+QeM6daMFp8v1y14RTqsH9aSFDQ6n84tsyaB+bZ6a7amGEja/RB2GbqYkper/tz8ZREa9llKIgohIRhfflVDf5aH168YqwldSX0Mbmv1jvspfmqgIpeUSI+q7OlKVF8RR/tH5NHtvltZzFJGraIDTxxStSgTKP7GFdqsSgU7OnUBrGhKBdo4zJAPnDaQ5rTjK+8GDHN2/JZUJayjxi3HUqdsCOl2uO5401YDCpM9ouKkLbVSdQLFrB5CxU23fOmOXo9xv3MjY1otUKaI73zT1LeWa+yvx/HlKqdW7LPITculgSWM+v0NVz3iu0OPDNMW40ZpNPW1rjQctyL57jYw7z6fTFVK6vm0hLdp1gx432q+pNj0+PIWM69dc64t1lT+NTEfQ2tA8UhKR4vZ6cjLoSCM/vkyPaoio5g6tdzKinj7BVKXH383GDuIoc+d4MjQZSMsuF5Is6SoF3ZWS9OK7JOm7nBrMFE4r+xqSzewfKZ/TPn5opFmfRDKd7Tev88p7OvKB1P2sywYVrZOdKih89SDqufAMNQxni8jWoHbNdRvqhCZ71+gYdxVPU5s15kqNRhk4Lo++dTMii1k/qd4x01fX9fXdEvTZTz1/NaFXDs02b6ZvTQJtfqkDDd2cpBona27TJ4OMqNfSEFKQnrmR8gF9McqQLIYuozOqQZd+nmtNRqO/oAfaBl0iqghdThKjvrQ6sjYzuHw6On827c3SZj9dsV1DRI/p8BTjZ2TNtVBQ+2iPoPETjzwHiOqaF6FDBzOIzJ3g7t4DhgDMJL1hJyyFvIQAkQTeR8NwwscB2SGHsO1wNGS8Ak+qtF9SCE1MYCi0wFC3Mehi2Q9u7oPQqbXatLpfMWwl9sj8cirGLvgMp5IM4LHuA/QTA5UhpxGUcx/nd/jD398f2048gbvfJrztYqLeSD1Cc3N0qH8UUY6gPUeQPnA8JljWbjLuAQebuu8qVyLkdBBy7p/HDn9/+Ptvw4kn7vDb9DZcTABRhw4wE5nDyd0dPVQGRm87IUrlJZr906x/bQhhbt6h4RGTLBAng4zgPLSr6rGHuD9WhUiRc2Q6zCCCxPsowk74wCE7BIe2HUa0jIfiSZX2q2mhCUyMRejiOg1utmLAtC88Ny6GEyUgNLQAxecO4MdsRwx2rlvfZYrhHtMhKT6PHwLlqvMNhbAY6oYxXSzRz80dg1odCCraYkNZ4EkEGTljaFdVn+L+qxAizcGR6WYo0SN7edAeHEkfiPENDkcPBxs0fElbzfZQIiM9G9X1j/zE6NHDDsjNQMYTACXncODHbDgOdq5f82s63APTJcU4/0MgahciNMd0FHw+GI2co1/iVAEPcJkIuGCAGTPttD7aEttKYJ/5JaaOXYDPTiXBwGMdPlAlAk4H5eD++R3w9/eH/7YTeOLuh01vu0BzJsgQeDIIRs5DoTKhGP1XhUCacwTTzXTHk6Ya0OVFbxwNOwEfh2yEHNqGw9Ey8IonqOL1xa46uvNNU9+dhOr+EqP/66+jjxjgpUH4eOG/8WjCdhxe5QSjP1mu6ItlrfGgC74Alz+cjE8rffCNz1CYN9qltzbpjXUhOpiZQmDYA0OGdoUIgKHEEfZiwG7IKNiKAYgdYN9NgFKZDKTH380RwsTEEEKLoXAb0wWW/dzgPgi4cOBHZDsORoOZhsNjugTF539AoFz7+NEySnBOZ/tqhwMQSXTkQzN02aCVspcHYc+RdAwcPwENw5kDGoaz1tYJTfbuhCod4+7T1GbNuSLWKINQaA7zRsGqr67r7bsltNp+zdEvh2abq+sLZQbSs6sblm2Je0A1LGXgCfTMjUQd0MFMBHMnd7irBl1IettBWCpHibZBF4DpKB98MDoHR788pVr2lRmACwYzMNNOWz3TFdvqx7YP2iRpASYwNRaCKitQoSFR+bJywMy8PqCarLEDIBCJIACBJwAQQvwkDrsWe+NQ7mC84z0RNkIdlq1FV+1tGa3tV4jui47hyl4PmIduxawhfeC67DSyOB5lRVI8MeqL6avXYu3aur81WD61j/aXOgWChnU+XDZSfpUDIrFmp/BlKJI+gVHf6Vhd3/5arF2zHFP7iFVtNT5eIIJIAJDKwJpp3L8OBI3a5qSFKK6So0SmuV2h+Anidi2G96FcDH7HGxNthFonptoQ9+qP3mZAjaIS+VmPUMlXo7rR02Gxgz1shdWQyx6rJiIt0KFFtNqGHKSFxaiSl6C5OTgU6JRdhsyUXyGHCGKNDlfR2PaAIYZPfgXPp17DpYccAAXupWTCym0KxnUAuIIsPKrkUd20Q9jbClEtl+GxhjxVIULPt1dgpvEFfLk3AVVJxxH8/GxM7qR+XAPC7otw7MpeeJiHYuusIejjugynszjwZUWQPjFC3+mrG+XBWqxZPhV9NCUCJ0VhcRXkJTKNcaIvnpq5XijGk7hdWOx9CLmD34H3RBvUpbS+2G2CvnzT1Hczf9XC5yDAZwkOKmbh232L0Ku2KOrTrSX8PrmiL5YfA1riQTeEysJHiDj6Jc7mqAWnntrUklhXH3MgEEKgFj1CIUDUMn83R619rgBZjyrBV1c3+p1zMRzsbSGslkNlJk3jR5NWtKO3fQ0JriMfmqHTBoatkp3LToFqONNc3FpdJ4Dm9oaucdcRpW2uzbpyRdPGuhuNAMAhW2ddb2Hfemib/RrTUjn06QvAcDgmv/I8Uq9dgmpYuoeUTCu4TRmHDjp91AdiqOe5ACLVoKu7Fop64u0VM2F84UvsTahC0vFgPD97MrQOWTpju0UGazUa3d8yDNGjpx0EOfeRWq6+j0NG/CN06tO90V04HZRfxIppvpDO/Aab57jAuk5XndbVhAhikYbJEJHm9Tut7pdDduIj2HnuwrWUJJzzHYSsPT7YerUGFt1sYJoSgIPXZI0OT0fghXgdi/MbIeiE5zqJUZV4C3FqvwtOPA8ILdDNxhQpAQfRtItAXIhvUQ/tguj57rA1KUDgT5dQUreRlyJw3wmkcuW4uGIafKUz8c3mOXDRb9B6iBqVlJpKVPHW6DvADna9e8GCS8LNWw2rBPlqBaqFL2Cws03rAlgkhqj+gq4BIo3R0QJEeL67LUwKAvHTpXprgJcGYt+JNDyvU/ZueO65ThBXJeJWc4drKbBCdJm+E3s8jXDtq83YueMznDb5CIHHvOAgAkTdeqOXBYekm7ca1lTy1VBUC/HCYGfY6DJWR3csf3cQ7h34HJu+vY3+8ybAVP2YRnDZiXhk54ld11KQdM4Xg7L2wGfrVdRYdIONaQoCDl5DQ5hySA+8AI1hKnoe3W1NUBD4ExpMyEMauA8nUktbHU/lF1dgmq8UM7/ZjDku1vUXtqQ3dhvaANCO+aZE6r7FWPp/FvjXd1/hTRshwMtQKJW3Wrc6fpdcaYII3fS0TVriQecnDoRdMe0/R/C+xWm857kLiToPbspTxbom2sPfom7o3csCXNJNNJiJR7WiGsIXBsPZhrSMHy1UXG/7zZXWlQ/N0GkDRatkF3R6Dp3EVUi8FacWAwTVcNbKOqERoY5xNwmd21ybnyZXBOiks67rz6WW9P309msfOQAAwi6YvnMPPI2u4avNO7Hjs9Mw+SgQx7wcINLpoxbOjbTQ0X053h10Dwc+34Rvb/fHvAk6Riydsf00UminxfZrjiFGLHoXo4RXseuzayioH5yqkRvsj4+uDYDnK3UPW3lwnBLEN5rYEKmCjefBlz5AekE5slIforwqG6HnopDHVaI0Lw4xic1m7vUQlKhpbBeRNWy7GiIn+jJuFxTi3oU9OBIhhbIoGw+Ly1AlNIaxEfA4LxclRTEIi7rXyn45ZAdsx77blYCxA17zXY+ZDqYwMhbAbNJCzOmRgX0e4zF303cIOHUU/l4fI9Ksp/Y71zwHnlTFBsIumDJ/Mp5LP4gVvueRVQ0oMm8jsZCDLCcT+aUCTFo4Bz0y9sFj/Fxs+i4Ap476w+vjSJj1FIPnOCiJb3RhQSCQyr4AhMbGMMJj5OWWoCgmHPGVav3XUl1dA6quhqLRNp7jQXUTvo6vYuEsO+QfexdvLP8PAv53Ajve90SA2BWOglI8SC9AeVYqHpZXITv0HKLyOFSW5iEuJrGhwWbwKMrMgMriPHLPnkX8AG+8N9EYHScvhfdAGU7tPITUatX+/CshyB61FO+NMVKdToCySSBoRmRti66GOYi+fBsFhfdwYc8RREiVKMp+iOKyKr021ETHVxdill0+jr37Bpb/JwD/O7ED73sGQOzqiE46ZTdBlynzMfm5dBxc4YvzKofjdmIhOFkOMvNLoXJRI9sDkF1ci0+zZ+CrrWvgs2Ijtm+cD6e6p48dJ2Op90DITu3EIVWH4POvICR7FJa+Nwa11tKCGP0WL8fkmv/iq6SRmOeiNWoBAFx2ALbvu41KGMPhNV+sn+kAUyNjCMwmYeGcHsjY54Hxczfhu4BTOOrvhY8jzdBTY5Md8erCWbDLP4Z331iO/wT8Dyd2vA/PADFce5brjaemNYBH6YN0FJRnIfVhOaqyQ3EuKg9cZSny4mKQKNIRuyIhjFXFAbklRYgJf4BROvKted+1Eqj5q/Lm53hnbQR6rTmMrW5Wqo2yQJy5kqdXN838PrkCjgNXG/sA9LatNR7U262F53mA50CWE/HZ8Y0YdPsTzF3T6OUiDbWJ47jaMaNlsc7xvNqFKqlyun5mqfo3z3MAzHTWV6iNHeHxlXXGbDRB6IjJS70xUHYKOw+lqn7Fg8/HlZBsjFr6HsYYaR8/NNKsTwM97avX+TBE3dORD+XqftZlA0GrZBd2mYL5k59D+sEV8D2fhWookHk7EYWcDDmZ+SgVtLZOQIO9oXPc7dzm2qwrV5rLAPDgeFLdBINQb1030Nd35Q3sXjAZ/9x0CbXvXjZHX51Vy19N6MtpFfr0BQAZLq79FNkzvsLWNT5YsXE7Ns53ql8OpMtHYp4DpyTwje5Uq6aGtXmuC3E/LF4+GTX//QpJI+dB95ClK7bFADioyov2sb7VqC/Cbh0cFUd8Q0teHkx9nUaR2yuTyG3cGHp5/md0OavhrQR5/CnydbMmkYGEZu+4SEmp1+nQUleyFJqSs9cBCs/OptNLh1FXcyvqNdaL9gR/T572ltRz8naK0vBhAE56m06ufZlsRCKydV9HJ28W17949Th8C03qbkEWts40c3swXVztQr3HLSC/4zeomFNS2uF/ksSqM0mm76Do0pxW9UukoAhfV+rl9DJ5fuRHm9YsoSX+16juHYSK5OPkM9GRrIwMyaL7KFpyJFH7R3TKk+ncp69SN5GYHKZvpQupVUScjGK/9aQR9lZk6TCUpnzgR4tG9KCRcz6hw1F5RFRBycd9aKKjFRkZWlD3UUvoSGIFkTyeTvm6kbXIgCSzd9DFpFS6fmgpuVoKydTZiw6E5xAp0+jwPyVk1VlC03dEU1mz/ssp/dp/aOnoziQUWtOE1fvov1GPqDT5HH36ajcSiR1o+tYLlFpFRBXJdMJnIkm6mFNH26E0Z8d1KuSIiDjKOb2UhnU1J6teY8lrTzB972lPlj0n03bNBlW9VDTYkGxGzCKv91fQh+/Poxken9C5zIa3GWoyztK6qS7kPH42Lf7XOzTf+0sKLeCIOCndPrmWXrYRkcjWndadvEnF2t5nICKixxS+ZRJ1t7AgW+eZtD34Iq126U3jFvjR8eAw/TbUQkXyCfKZKKEu5h3Jdugc2nG9sD4etcpOREQcyWK/Jc8R9mRl6UBDp3xAfotGUI+Rc+iTw1H0IFHd9hzl/DCP7I0EBIAEAiEZGFuQde9x5H3snupFjZoMOrtuKrk4j6fZi/9F78z3pi9DC7S+mNiUKgpd7kL/z96Zx0VV7n/8w8ywiSCYkkgKIo5pLiCk4K5oXMv1mmKYiinmrVBzyS0Vt0i7Vmr9FMstNYt7vV5XcEtAZBMF2QRDZImdYQZlZ875/v6YQWCWMwxgWfe8Xy9eL51znuf57s8z5zxnzpRDeTrPr729gYb3dqIJPp+Q/7Z1tGRJAN1oTAQ66TeeHK2MyciiJ41YcoyStSYCKeL6lB+NF3cl80625Oq9h24VKx6o0RZPn4eEaawBTN5ZWja0G5lb9abRiw/QzR98yM7SgSbvjlK8wEdr7BLJM47SO2Irekk8nfZEP9Wab9rqT4VqrpRH0vpBJiSwdCHv1Wtp7dq1tPaTFbRg9Kv0zumnWnX7w3OlOo0ubvakbkIh2U3fSeeSFY8aau1bVzw0g6Gi2FO0fkI3Eooc6O3dFymlOJF2j7UgA4EVve77JV26e1etNlanXaTNnt1IKLSj6TvPUfIT7livSD1PWybZklDkQDN3XaCk7AT6z/ap1FMoIocZAfTf+48pLmgzvWkrJFGvGRQQnEG1WvytoOnc8QVdiThN6yfYkFBoS54bT1PcM2PWU9b5jTTVxZnGzvGlf7w3j5Z+GUYKM3HPH+qozFdPSUf/pFbny7nyQaOftdlAX9mJGGksfevjRnZWlmTvOoU+8l9Ebr3cyfvToxRVwOhRJxiS3NNmb+55t1W1WWOuaJOhglIvbKFJ3YUksp9OOy+l66zrBQzH2ETE5B2lGd0sqYv1CNqWpPHpTgXa7KfRr5rRLoce+jJ59OO7dmRsAAIMyEBgSCYW1tRnzFI68UDx+KBmH8ko8cwG8rAWkqF4Du25nELpt47QsuGWJOjgTIu/i6A8jvgiIqKaMFrhMoUO6TyROGK7mtIubibPbkIS2k2nneeSVRu2CgOixu/xPDy/O/IEbHZ1x7kpkbi73Vn7VX4eACzyzm9D4NO/w8eZRam0HBVVFZDm38fPxwvgG7wfE7kvT3PD5uCgz0503RuImcqLrDwvEHyu8PD8j1CHiA0f4O7iQCx3aNHm2j8ONg/ntwXi6d994MyWQlpegaoKKfLv/4zjBb4I3j9Rx13T1sPmHITPzq7YGzgTL9qU1YZtITw87Um73Yz5y8LmnYDfivtw+NsgOPR3wtARYzB+4luYOcsTrq+/xnE7lRumogzSGhYVkQdwzeZdvPWiVSkeFfhc4eH568JCEnkIF196F/Nf9IU1WOSd8MOK+w742yAH9HcaihFjxmPiWzMxy9MVr7/GsS221TCoKJOihq1A5IFrsHn3rRduYQ1+cc3zhyMvQ9kTBuUSqdqbzHhUEFmim+kvWD5sPN5dvhHbdu7Alk/ex7x//AcOSxY/+xUKvZAnYudYG1hbd8Ory8ow/+MRf/pXd/9l4XOFh+cvDytNQgI7Gf6rxr6Qi0ZVRJbdYPrLcgwb/y6Wb9yGnTu24JP35+Ef/3HAksW9W/ajFnogT9yJsTbWsO72KpaVzcfHI17MGYvfFsLzx1GbgWvH/oXwrHLIRZawHzsbCz0cYKR6Hk8jtXmIuXgeoUn5qBJawW7IREz720C81OoKJkf2lYM4ldwFb8yfDdeu/PftFxI+V3h4eF5QavNicPF8KJLyqyC0ssOQidPwt4EvtfvCGgAgz8aVg6eQ3OUNzJ/tihd1yuIX1zw8PDw8PDw8PDztxAu65ufh4eHh4eHh4eH588Evrnl4eHh4eHh4eHjaifZZXDO5+GWPD1y7mKL/J9Ht+rANm/UVxpiY4W+Bhc/9GXnmcRA+WbIB+/evgYetBRynz8VQ43YYm5Uh/uRKeLxiipfmnmny6louqpB+7TC2vueJkSNGYOToCZg80wteM/+OmXPfx9p/nkZ0fntaupU8R9+3Pwyyf9mD+YMtYTJ0B1JV38qnApt9CLP6DsacQ2kvuF5NaFWs8fxxlOO//xiMfpN2Ivqp6jE9+J39zsricXKlB14xfQlzzzzv0bTBIPeXPfBx7QLT/p8gmjNJWcjiT2KlxyswfWku/jCR/3SwyPpqDEzM/obAQvVZkMn9BXt8XNHFtD8+4XaAGvq2rc04iy8/P4HYZ28a0sLvnAtqsEUI/7+N2HnmEfcbStubP1pvLTDZv2DP/MGwNBmKHbom3XbjBagNqj983WpqI2il2JheXROleJlFa2GKKe5OBjW+FqGCsu4lUE51s7PaH6aQfpjRnd48JFG8HOf6Nnp36QG6fqedxmZyaO84Y7Ly/jfp013luQVkLexEb59+qvykmvIij9LykdZkaDmEPjiT1cRWfxDt5fvWohYzXNTQLx/ak7HrdkrhbMBQ3oG3qL/3KcriPO8FpJWxxtOeMFQcd4cydMXO07O04DVP+jqxHTz1O/udydlL44ytyPvfv8do2qiliJViMn51DUXpLD4M5ewdR8ZW3vSHivxnoyKL7iXkaI2p2oiVJDZ+ldbodoAaLW0rf3yKFnt/TvHahFDld84FdaT0y9pptOin7BbOS+3EH663Zmp++ZDsjV1pO/ek2878sbWhfa5cA4DQEpYWml+Fqg+VMXux+djDJq/bNIOd82D0eN6/tlIXjesRlTCzMAEgwEsem3DiwFJ4uLbT2AILmJvpbx+RZSeYGxhAKGxwlQm6u/vg65AL+PTVXxH4ng/2/m7fBrXQTr5vLeoxw4UQZuZmLbhlU4UU9i0cC/SG3XN55Pk50spY42lHKmOwd/MxPNQRlHWpEgzZewJ+A9uhyPzOfhdYmON3HE4LQlhaWmh9zXpzBLAwN2vhuTzPMLOD8+AeWn+iU2hpidaW/xa1ZTLxnd8XwDtL4aRNCFV+51xQxxLjPnkXtds/wuHHv+P8/IfrrRmhmTnMdE+67cwfWxvarK68LAOxYeGIz61WPQQAqMpPwu3QcNzNftpsawUre4SYsFtIyCmHJL8AlWBREr0PC97dg9isBFwNuYnkEkWLmrxEpDa9JVWZg6R0CVjUoSglEpGpxeoLK0aKzLhbCI9OQzHnLQGgNicWV65G41E5g9LU6wi+EokM5S1a1bErc5KQLmGBuiKkREYitVhlZLkED2Nu4kboHWTKmiaVAAbt6TmzoVjl741XKm7h673XUdXkkDaba6OuOA1RoaGIyZCiWRnQqovyMJfvdbRVQ8P5bEECroUEIzjkFtJkLMDk4+6VYAQHX0H04yqAI2YABtLMONwKj0aaSgAYNDiC5Ch5EI3olELlLTQWBQnXEBIcjJBbv+H1pf/AkCd3cSU4GMFXovH4mZFZyB7FIOxWAnLKJcgvqHzWd0tQj/1G9PKdBpsp0BRrVchNfIAiFmBkmYiLjEdOw8B1RUiNjMD9fJX7YVr7V6A1bjj0aH3+aEbNlmwBEq6FIDg4BLfSZGDBIP/uFQQHB+NK9ONmeaJGVS4SHxSBBQNZZhwi43Oe+aauKBWREfehbqKHiLl5A6F3MtEgLlsSjX0L3sWe2CwkXA3BzeQShQ2qcpCUVgKmJh/3Y9NQxgBGQxdhyauFSC9q7m1V2+rOBWjxu2YZ9aIqH0m3QxF+NxtPm4opMGjRZFSVm4gHisBDZlwk4hsDD0WpkYi4n69+C1tX/ZaXISM2DOHxudBQfbTKLNBkIACMNBNxt8IRnVbcii1g6vWgZf7Sjqr/n8GRH+zTx0jJfAqWkSIjOhwxGTKVvJRD8jAGN2+E4k6m6jEAdcVIiwpFaEwGpM0O1iAvMRXNd4XIUZYRi7DweGgu/1wxx91WlYrru/FFggumj+/U5FMWTx+nIPMpC0aagejwGGTorIHa9C/Hw9uKGtHsLyQC6TKF0tr1Uff9MzpPwswhcdj9xc1mNb4BVpKC0BDlWFdikFUFAFXIirmC4OAQhKZIVJs0Q3ON1aS3Btq8htJzPjFoqBUEeckDREenoFAl6atykpBWwqAm/z5i08oa/aMll7XSzrWhtbRhcV2FpEPz4Ln4MBLyMnBhgx8CHzaJOrYAIdt9sSowDIl3fsaqkWKM3ngdEhaoS9wHH78fkSuvQeqRuXB7+3tk1cmQLzGFVUcWbG0lZLJyVJTG4/Qnb8Cx92hsDa8B2BLEHl+BcY5iTAo4jcNLPPGW9zy85TQQ0wMznjlDFv01fLzWISgpB+nnV2FUf09su6mc4DRAdZUol1WiHoT6ynLIZE9QJbnbbGy2JBbHV4yDo3gSAk4fxhLPt+A97y04DZyOwAzFyEzmSSxwm4m990tRGBkAT/FIbI3SXUhbi9nIiRjeiVAQcRPJddw21whbgtCd8+Hzz+vILk7E/qliuPqdQwGrSxdu33O3VUfb+YLOPfFK0Q9YMs0Xh1PlgLAzelinY9/cqVgZlA+GVY+ZKjkAWTS+9vHCuqAk5KSfx6pR/eG57SaerbsBgIpwyW84nId7YORAe/SbthdxFQJ07vkKin5Ygmm+h6EYsges0/dh7tSVCMpnANQhcZ8P/H7MhbwmFUfmuuHt77PUC5MWNMa+XH/fabOZOizK4k5i1QQx+ozxR9CZLZg7xwfvzXRHP7dVCIk7gQ8mz8DC92fBrd8obFH2wdk/R9xo06OkqP3zR6Mt2c7o+UoRflgyDb6HUyGHEJ17WCN931xMXRmEfLWJHgBbhriTqzBB3Adj/INwZstczPF5DzPd+8FtVQjiTnyAyTMW4v1Zbug3agsUIjHIPLkAbjP34n5pISIDPCEeuRVRVSxk+RKYWnUEy9aiUiZDeUUhoo8sxzhHMSb6H8Sut0diuPtQ+By8qawxY7AjQjl7abFtkaWOXFBRSYE2GVXP0waLgpDt8F0ViLDEO/h51UiIR2/EdW1BqQJbFoeTqyZA3GcM/IPOYMvcOfB5bybc+7lhVUgcTnwwGTMWvo9Zbv0wakvUsy8+uup3VdIhzPNcjMMJeci4sAF+gQ+b6K+vzDJEf+0Dr3VBSMpJx/lVo9DfcxtuNisWXGiuB6yu2qXaTQNa/M9Zk5lchO9fjKF2/eG9/xS2vjEEwyZOgHs/McZvu41yKK7+nlzghpl776O0MBIBnmKM3NpgcxYloTsx3+efuJ5djMT9UyF29cO5Ajmk8afxyRuO6D16K8IbFkNVSTg0zxOLDycgL+MCNvgForH864g5zraaeIprp/6Lgtdex+vKq9ZMbjj2Lx4Ku/7e2H9qK94YMgwTJ7ijn3g8tt0uV+1AAZf+dQ9wfGcgYvLKIJPJICuNw0HfqZi5/iKKhcShj2bfN84FpnBxeRV5Z0/hhobVtcC0IyqvbcLsyd44kGWNriYAYIKXhLexY8NFVFp2VG2iQEuN1RriTWnzGqp184kCQtElPwx3Hg6PkQNh328a9sZVgC2OxpHl4+Aongj/g7vw9sjhcB+6ECck+uZye9eGNqK6T6SlVEasoUEOC+mcVPlBxUVaZGuo3HfLUNHpuTRuXbRyDy5D2V+NISNDZ9ocX0mRqweQ09poxZ4gppBO7dhPKfVExOTTNx4mZLv4MtUou2UKviUPYwua/XOl4gP5I/pihBFZuC6nc5m1RCSjf8+1JuORX9AjORFJL9P74n60Iqxh40wlRazqR0Y2c+inQkb5mQYqf6BpJpbkFaQcR8PY8kdf0AgjC3Jdfo4UQ/+b5lob08gvHpGc5PTgs2HUwWUrJdUTUX0srR9gQk6b46meiIie0NEpJnrvhaoNW0a9Rc3lajwYTiv6iEhgs4guVnPZXCFBcxgq+NGLHD2/pWyGiKiekr8YQ527L6CzFdy6cPueu6063OfLU3fQUJO+tPq2ctNU7W1a3deU3D//VbGXTS1mpHT5fTH1WxH2zM6VEauon5ENzfmpkBiqp9j1A8jIdirti5WQnCoo6btZZG9oTK7bEqme5JS6YyiZ9F1NjUOupr6m7vT5r3Ki2khaPcCJ1kYremcKT9GO/SladFOlVkvs6+s7bpupxxpD+d94kHEHN1ofVkByIqq9t4mcDDuR+9qr9Fs9EdXH0yYnY3Lwu0k1nP1zxQ23Hm3LH1W02ZKI5Km0Y6gJ9V19WylHLd1e3ZdM3T+nX7Vt+WPy6RsPY+rgtp7CCuREVEv3NjmRYSd3Wnv1N1KYaBM5GTuQ380aIvkD+mxYB3LZmqQ4FrueBpg4Kf2lsLeJ7WK6/KyQZdNXY43IdOByulospZTrIXRfwihrTMO+ZS7btiAXVP3OKaNumKLTNHfcOopWDsdkf0VjjAzJucEnT47SFBPuPddM/jfkYdyB3NaHkcKs92iTkyF1cl9LVxWBR/GbnMjYwY9u1rSgfldG0JpBDrSwsfjQxUW2ZKjcV6lL5idHp5BJk32V0svvk7jfCmocLoJW9TMimzk/Edd08QyOeqDbX6pw+V9HftRG0uq+hmQzfguF/FZPVJlK382wJaGRC/nfryf5g89oWAcX2qpoTLHrB5CJ02aKrydiCn4kL0dP+lYxKNUnf0FjOnenBWcrFDJ960HGFrNJMQ1WUsSaQeSw8Bw1lv9FZGuo3DfNGXM62mqi9jat6mtIrywJebYmICKqjVxNfQ1taPyWEFKo+x3NsBWSkYs/3VcEZ7Nc4NKf6pPp4sU0ZZ15SpGfulBHy1H0ebyOPOfwfQPVZ+dRF8NXaU2kFv0qw2iF2Jj6rYlU6sdQ4fF5NOdgDmkOP+4aq6q3Rtq8htJ3PlHazciWpu6LJYmcqCLpO5plb0jGrtsosV6Rp2ONTGng8qtULE2h6yH3qaSAO5fVaOfa0FZaeeW6AiEHjiFz4FiMs1R+ZNIL9jYNm1OrEHo2BHkPL2JPQAACAnbhVLUn/LfNh4upCLZiO2R/ORWjF3yGMymG8Nr4EfpreQG9wNwcHZterRd2REczIcydPOHZywiAGcR9ekBQLkMZAWUXvsNPuY4Y7NywOasDhnlNh7j0In4MljXpSDeqYws7doSZ0BxOnp5QDC1Gnx4ClMvKQBBCvPQ4wk/5wT43FEd2HUW0lEVtdY3WK+ZthipQUUUQmFvCSsBlc9WGACBF8OkQGDu7opsAAER4bXUoJHnHMN2MSxddvudqqwl9z9dB2QV891MuHAc7P9sj2GGYF6aLS3Hxx2A0RIDQ5nV4DOkMIcww4L09WDnSAEnht1Cqa1CRLcR22fhy6mgs+OwMUgy9sPGj/tASvipoi319faevzQToaNYBBka9MMS1G4QAjMSOsBMBPYaMgK0IgMgedt0NUC6V6ohlrrjh1qN980ebLVXPayGCjjDrYACjXkPg2k0IwAhiRzuI0ANDRthCYSI7dDcoh1RKgFCMpcfDccrPHrmhR7DraDSkbC2qazRLC4EpTI0EsHD1wKiulujv4YlBnQWKGvOsCnPZtllvLUNfGVWoCj2LkLyHuLgnAAEBAdh1qhqe/tswX3NQakTQ0QwdDIzQa4grFGYVw1EReBihCDzY23WHQbkU0hbU74qQAziWORBjG4sPetnbPHsTnH4yl+HCdz8h13EwGocbBq/pYpRe/BEtmi7aVA9U4fK/jvwQmMLURIiuw6fBw1YEdOgHn62+cKIkhIUVwUC8FMfDT8HPPhehR3bhaLQUbG01alhAGnwaIcbOcFUMCtFrqxEqycOx6WYABDA379i4/aciBAeOZWLg2HFoLP/2aCz/HDGnq60m5LnILQA6durUbAuSwNQUJsKuGD7NAwp1fbDV1wmUFIYwlS1WACDk0B+i1/DWW30hAgtJyFos/OdvGLf7KFY7GXPr0wLfG1h2gjnlIytHy73NDiPg99FI5B3/EmeKWIDJRtAlQ8yY1UPLtgLuGtsi2ryG0nc+aRjXBq97DEFnIWA24D3sWTkSBknhuFXKQmBqCiOBBVw9RqGrZX94eA6CSbg+uYx2rg1tR7P/dMHkIu1XGSAUae6AfYoSSTWM+03HmvXrsb7hb90KTO1rhJ6LTuDaQS+Yh+3E7CF9MXz5WeRouzVkYKCyh0j9/0KhAUAsCAyKcn5DFVuHuib7eUT2drAV1EEmfaJlotaC6tjP9g01/F8IxdCK8BGIqpGwzxdLj+Rj8HtLMd5G0BhYzwF5RhziiwlWru4YKOKyuYZSz0hQXFoDWVmT4G+CVl10+Z6rrRb0PZ8LpigHv1WxqGseALCzFaBOJsUTTQEg6AqHXpYwYOSoVz2miqAnFp24hoNe5gjbORtD+g7H8rM52m/zNkOgOfbr9fRdK2z2bJ/5sw8EMGjWwgACAdDwvlat/XPFDWfei9o5f7TYsmWO0IBqXQEMBAZobiIBBCDlRwKIqhOwz3cpjuQPxntLx8NGoF1aANC4QbmpTbhs2ypaIeMzWDwtkaDauB+mr2niy/XrsGJq35YvHlV9DgOom7Uh8HTVbymy036FDEKINBYfPWVmipDzWxXYurome75FsLezhaBOBqnGYqFCm+qBCjr8r19+AKLer6GPGVBfWwsSiFCdsA++S48gf/B7WDreBopQYCApLkWNrAxSLZ0ZNPEhk5sGRfnX6ADOmNPdVgNUj/p6QvOI0YQIvV/rAzPUo7ZWw7la9W+EzQuC35LDqJ39LQIX9VYuyrTr0xLfGxgawRAsWK2hJITD/I8xy+QSvjyYhJqUk7j58hxM7qx6nhJdNbZFqNY6/ddQ+s4n6gjQ1aEXLA0YyJWTbvMe9cxlMMhtz9rQDmgUQycGndGlswg1yXeRoPJDjsSygMAC3W06IC3oMG5IG48xmcG4lFiL3OTf0MNnH26kpeDChkHIOeCHndfb4xchhejepzcsmBTE3W3c68PW1aJO8AoGO9u0UuGWUIHLH0/DBsksfLPdGy7WDe7SGl1tg5XgytfHcF84AIs+egvmnDbX8K1Z+DJ62pqiKPhnXClr+JCFJDgQp9LLteuiy/d620HH+UIRhCAo11/PINI8fQm790FvCwYpcXcbH15j61BbJ8Arg51hozEAqlBSWo2eTkPwsgAQioTKQtMUAjGKLxfJv/WAz74bSEu5gA2DcnDAbydaFr6M5tj/xVg/3+myWZvh6J8rbn4101OPpnCMqREttrxeC0AIhQvVgqZ1ix5NVFzGx9M2QDLrG2z3doFOcVsCl23TGb1zoW0yCmDR3QYd0oJwuLkzEXwpscXPGOiHrvrdHV26dIaoJhl31YsPWH1lFnZHn94WYFLi0Dgci7raOgheGQxnzcWiOVz1QF9/cfqfoyY3gajJKq6+CjWsNfoN6I7qyx9j2gYJZn2zHd4u1s8WEwQhXu5pC9OiYPzcOChYSTACT6Wr5YtB5y7oLKpB8t0Eld9wJsUCkiPmdLbVhKgbXu5igMqnlRrCltBc3Rqw1v0woLv6pfAKrforkacj0HcZ/mvxD3z/9UzYCABWWgyJTLs+nL5vOK2qElUGL+Fla3WZntHJEyveH4QH332Obd/ew2vvjkMH1XMa0Hee1xtdOdh+a6iqklJU93TCkJc19ahnLsMAnduzNrQDmrTSjaArpsybjC6Zh/HxhovIqQNqs+8huZiBNC8bheUGmLjQG72yAuE1di62fR+EM8cDsHhtJMwcDJAbtBuB96oAE3u8uWETZtl3gLGJASAwgYkx8KQgH2UlMYhIrAJYBiw1ST6WASMnsE0WP0SKhR3LAp0mL8PSgVKc+eoI0usAgEXhtVDkjliGD0YZN+qgSl0d6qkOdbVNslVlbJZhICe2yaRNIBBYlgXLluNRZhEqctLxuKIGuWEXEFXAoKq8AAkxyQAYMIxSTigWx9e2euGdHTfRxNVqUF2d+tPr8gLc3DkHi0/UYMJnx7DJ3QSAGYfNNX0v64RJC2ejR+EJvP/3Ffi/oP/g1J4P4RMkwnCHCu263Cni9r20UHvbmGRVIQAddhNa26KbUR6ir95DUfEDXDpwDLclcpTkPkbp0xr1mMkej2VLB0J65iscUQQA2MJrCM0dgWUfjEJDBFBVOWTKHKxJOoyTj/6GTcvdYQQhrG27wSgvGlfvFaH4wSUcOHYbEnkJch+X4mllLoJ2B0IRvm9iw6ZZsO9gDBMDoOrOfiyY/A62XSlo1K8ZjJbY76if73TYTC3WADAsqywyDZAifp/NLop/syyjo/9c7XHjaMGpR9vyRxVttjQAhNaw7WaEvOiruFdUjAeXDuDYbQnkJbl4XPpU/ZcpAAAMFCZqkv+kKC6NJiIQWChM9AiZRRXISX+MippchF2IQgFThfKCBMQkV8FEEZTILytBTESi4oseAfJ6lTLOMmChqGecOeko1J0LKn7nlrEYd/YvwOR3tuFKgeaVjdnEhfDulYVAr7GYu+17BJ05joDFaxFp5qBYnDAMGKX/tMKwCv3UzNq4VCJF4IGBrvptiq5T5mFyl0wc/ngDLiqKD+4lF4OR5iG7sBwGOmRmFAZSytMJk5ctxUDpGXx1JF1RZ9lCXAvNxYhlH2CUcQtymtFeD3T7SxUO/3PV5Gf5waIkOwsVyn/nnz+PxAFL8cF4I5Q/ykRRRQ7SH1egJjcMF6IKwFSVoyAhBrmjFmJ2j0KceP/vWPF/QfjPqT340CcIouGOEAJgGRakrB2CrlMwb3IXZB7+GBsu5qAOtci+l4xiRoq87EJIC7XH3J2i8ZxtyzU9aGs4GK87maA0t/GXe57BliA7S6Et2HycP5+IAUs/wHgTqOQCy6l/ckUV4j5/D+tv98a6ozvhYaXoUhp8DtcKtOsTk5iu1fcNVOXlQ2oyCK6DDBs/VEOE/r4rMLn+X/g6xR3vumio+c/QNc+r13412mENpdd88uyjKpQ3Tro4fPIR/rZpOdyNGlrI0bQ86qw/zRC0c21oB1Q3YbcYRkqx3/qQm50VWdq70pSP/GmRWy9y9/6UjkYVEFElpZ70o/GOVmRsZEE9RyyhY8mVioeLNgyn3k4TyOcTf9q2bgktCbihfHhEThlH3yGx1Usknr6HogtT6cKWSdRdKCL76TvpUnoRJZ7ZQB7WQjIUz6E9l1Mo/dYRWjbckgQdnGnxdxGUxxDVZ52njVNdyHnsHPL9x3s0b+mXFFak+fEAIqL6zBv0f8tG0ksCAVmPW0OB/4qi38pVxo6LozMbPMhaaEjiOXvocko63TqyjIZbCqiD82L6LiKX8s4uo6HdzMmq92hafOAm/eBjR5YOk2l3VCGlXdxMnt2EJLSbTjvPJRPJM+jbSS9Tt8kHKVPj0y2VlHb9CG2dakciA0OycZlK7yxcTIt8vGjymOE0zmsNHYrIV9nYr83m2qik1FN+NF7clcw72ZKr9x66Vax4YEG7LjIdvs/jbquGjrHoCUXsmEg9LSzI1nkW7b55mda49KExC/zp5J1S9Zh5SkT1WXR+41RycR5Lc3z/Qe/NW0pfhhU9e0Ck8tfztOPdMfT66Gnk8+Ey8v1gO1141OQphicRtGNiT7KwsCXnWbvp5uU15NJnDC3wP0l38m/RhuG9yWmCD33iv43WLVlCATcKiSGG8o7OoG6WXch6xLbGvprBFfv6+I7LZuqxVpF6nrZMsiWhyIFm7rpASdkJ9J/tU6mnUEQOMwLov/cfU1zQZnrTVkiiXjMoIPghPdbav4wjbki7HrLENuSPprjhsiXRk4gdNLGnBVnYOtOs3Tfp8hoX6jNmAfmfvEOlaqWgglLPb6FJtkISOcykXReSKDvhP7R9ak8SihxoRsB/6f7jOAra/CbZCkXUa0YABT98TGeXDaVu5lbUe/RiOnDzB/KxsySHybspSkYkzzhK74it6CXxdNoTmU33Tq+nCTZCEtp60sbTcQoZKhprTK8Zn9Hl9BodtuXKhd/U/E5MnnYZy/Lo6IxuZNnFmkZsS1KxRyOVqSfJb7wjWRkbkUXPEbTkWDJVEhFVp9HFzZ7UTSgku+k76VzyE9WmRBWpdH7LJLIVishh5i66kJRNCf/ZTlN7CknkMIMC/nufHscF0eY3bUko6kUzAoIpo1ZX/WZIGvst+bjZkZWlPblO+Yj8F7lRL3dv+vRoFBUw2mWuTrtImz27kVBoR9N3niOFyPWUdX4jTXVxprFzfOkf782jpV+GkWK4FuR07W0t9YB0+KtUtScl2vzPlfMyxQNkg43Ixm02Lf7wY1r54bs0w+tTupCtmFyYvLO0bGg3MrfqTaMXH6CbP/iQnaUDTd4dRTIiqkw9RX7jxdTVvBPZunrTnlvFpAjRC7RlUncSiuxp+s5LlF5DxEhj6VsfN7KzsiR71yn0kf8icuvlTt6fHqWovFztMSfT0bZALTEVD1QenUZdxCsovMkzgfXxm2iwkQ25zV5MH368kj58dwZ5fXqBFOpWq+UCl/5FketpkImALF28afXatbR27Vr6ZMUCGv3qO3T6KUcOFXP5nqjhJSYvTTtKGlVrRg2FrXChKYfytDzI2BQtNVaD3urI2ryG0n8+yaDayl/p/I53aczro2maz4e0zPcD2n7hEVUTESO5R6fXTyAboZBsPTfS6bjSxrlaSy5rpr1rQ9swoKaXEHh4eNpGXQQ2fHAXn32/XPUID88LR13EBnxwdzG+X+6geoingT9DTssTsNnVHeemROLudmcNV/b+xFTdwmr3j2FyOBo7XBWayRM2w9X9HKZE3sV25xdUW3kCNrsvQPVXUfhipNaNHgrYHBz02YmuewMxU3nlnOfPTeu2hfDw8KjDShB56CJeene+6hEenhcOVhKJQxdfwrvz+YW1Vv50Od1e97RfIDqMwqZ9b+De/p+Qq6qe6v9fGFgUnzuAexP24VOOhTVTUQZpDYuKyAO4ZvMu3uIX1n8Z+MU1D0+7wEKalAB2sj9WjeUrJM8LDitFUgKLyf6rwIerNv5EOS0vQ9kTBuUSqfozOn8BOo3ZjoNvZ+Gb/7sNCQvIy8rwhCmHRPoiastCGnsY+9Lfwrc7xqDpeyWbIU/EzrE2sLbuhleXlWH+xyO0vmKe588Hvy2Eh4eHh4fnz0ptBq4d+xfCs8ohF1nCfuxsLPRwgPI5sb8UtTmxuJtVhqTbt5FVLofI0h5jZy+Eh8MLpC2Tg7g4woBhdjoWy3JkXzmIU8ld8Mb82XDtyl/r/CvBL655eHh4eHh4eHh42gn+qxIPDw8PDw8PDw9PO8Evrnl4eHh4eHh4eHjaiT/N4pp9momkDNmL+3AwD097wEjxMOmx+gsTXjBq8pLwoOjPko0snmYmIUP2Z5H390PVj5XZ8bifq+kFJ88b3kdtpwZ5SQ/QvmlZiez4+/hDQqJFvOjy8Tx3XtA588VfXDO5+GWPD4b2eg1eh9Key2sqnxtsCWIOr8WCt9+Gl9c7WPzJHhw7thMHbrToXdk8/1MwyP5lD+YP6YVBi04hW/W9wyqw2Ycwq+9gzDmU9vx+HaD2FjYO74vRq0NQrJywWVk8Tq70gKPjWOyIeG4jtxtM7i/Y4zMUvV7zwqG0P1X1eK5o9CObhUPz3THc9zgK23WBxg3vo7bCQhZ/Eis9HOE4dgfaMy3ZrEOY7z4cvscLX8gLWy+6fDzPkxdwzmzCi7+4FvbAeD9fjHmpyWuI2whbchdxj3R4os1UIuLTSZh/yR4rD/8bP58+hDUjpPhhXQCuFjzvsXleGNgS3I17BN0eF8Ju/EdYOMpK8SZZTlgUBp9Hquta7Fr06nP7VYC6u+dxFbOwc9PfYK2sFAJLZ3h/PA3iP8lz0MIe4+HnOwYv/e7ysii5G4fnXmZaiUY/Cuyx5IcoRH63AN1+x5nhj/PR78/zmXsEsHT2xsfTxE1eP90+COyX4IeoSHy3oNuLsVhQqacvnHw8bedPPGc25c8Rj0JLWFoYqH7aSioRs3czjj18zldIam7g+yO5cFuwEIM7ARCYo++0bTj9z+l4qb1U4XnhqYzZi83HHrbwjosQZuZmLUjKKqSwb+FYoDfshKrH2gsGOdmv4JMft2KUyg+1CizMYfYnimGhpSXarXy0lMoY7N18DM+7zLQFTX40s3PG4B7cPyD2PPhDfPS78zznHgEszM3Q/iY0g53zYPwBIaER9Xr6YsnH03bUfczFizRnNkfo7+/vr/qhPtQVpyH2TjLy5Z1g09m0mZKMNBP34pKQU20K6y5maKpTZU4SHsu7oouoGCkxiSg1tkFXs+YmkpdlIC42GcUGBnj4r6NI6uWD9weU4ubteDzMKATTpQe6GBbg7rUI3P81ExJRd7xiZfisvZpsbAmi9y/Gu9siYdh3ADrL69HJzlo5wTCQZt5DXFIOqk2t0cWsqbRVyEl6hLouHVGedA95Rt3QxVSHO5nHuPzNEZxLA16fNBq9OgoAGKBjD1Ogqjf62jd5ZWtVPpJi7yK9xACdu1nCmKtCyiV4eCcGCRmlgGU3WJk0ysHKHiE2JgWlAksYVkpBZhVIvX4b8Q8zUMh0QY8uhii4ew0R939FpkSE7q9YwRAAqnKRmFGDrl1NUZ55D/ey5Ohs0wlGAOqKUhGTkA+hdTeYN3vLbBXyk2JxN70EBp27wZJTaACVeUiMTUBmpSmsO1UgJ5fQqfoBrrfQl1X5SYi9m44Sg87oZmmsYRJhUZBwHbfjHyKjkEGXHl1gWHAX1yLu49dMCUTdX4Giu0rkJD2GvGsXiIpTEJNYCmObrlAJPRXkkDy8g5iEDJTCEt2sTCBgC5DAadtOkEXvx+J3tyHSsC8GdJajvpMdrM0MOGKNRf4vgTiWOQBLFg0H0mORVCxCF+uOEDXTT4hhf58Ee4km/VjIHsUiJqUUAktDVEoJ5uZavqezMjyKjUFKqQCWhpWQkjkaTyUYmBmiKvc39Xyov4+fvrgC47+vwsz+jUHBle9qsE/xODUPoi4WqHoUizu/1qCTTWeYCFrqR+iIQTnKMuIQm1wMA4OH+NfRJPTy+QcmvtIgFVdbDWjNUXV7m9Xcw/7F72JbpCH6DugMeX0n2FmbwUBTHD3rPwdJj+rQpWM5ku7lwahbF2gqMVU5SXhU1wUdy5NwL88I3booa65W+QC55CHuxCRAUTKs8KxkaPJjTR4SH1aha9eOMEA5Ht4OQ2zKr8jIyGj8e1QEtssr6GJioL3vFuWZLh9py5PmsAUJLaojOuccjtqqTvM5IbesEAl372uXoZNMy9zDEROa4JCx/v5P+OKKMf6+aiaapGUzqnITkVHTFV1Ny5F57x6y5J1h08kIQB2KUmOQkC+EdTfzZq9Pr8lLxMOqrujaURFUavOMubniSmCr5pGW+RhgUaKlnqrKB675Ql8ZtdapZ0PpoYMmWDx9nIo8URdYVD1C7J1fUdPJBp1VYk+bPlrrASNF5r04JOVUw9S6C7SJ1G65o4aGuP4rzJl6wGUdbtgShO6cD59/Xkd2cSL2TxXD1e8cClgAkCH6ax94rQtCUk46zq8ahf6e23CzhAVbEovjK8bBUTwJAacPY4nnW/Ce9xacBk5HYEbDjYAqJB2aB8/Fh5GQl4ELG/wQ+FBxTNC5J14p+gFLpvnicKocEHZGD+t07Js7FSuD8hW3ErTIlleWD4mpFTqyLGorZZCVVym+Hcmi8bWPF9YFJSEn/TxWjeoPz203UcKyKI4+guXjHCGe6I+Du97GyOHuGLrwBCSNltCM8Xj4rRoDQeQO/M15FJZ8E468OgBWkzB1rLHyJBYFIdvhuyoQYYl38POqkRCP3ojrEs27x5jMk1jgNhN775eiMDIAnuKR2BpVBQCoS9wHH78fkSuvQeqRuXB7+3tksZ3R85Ui/LBkGnwPp0IOITr3sEb6vrmYujII+fVliDu5ChPEfTDGPwhntszFHJ/3MNO9H9xWhSDuxAeYPGMh3p/lhn6jtkA5FNiCEGz3XYXAsETc+XkVRopHY+N1iZY9b1VIObYUb83bhSspaQj/cg6ce/XHjENpYFvkywKEbPfFqsAwJN75GatGijF643Wom0iAzj1fQdEPSzDN9zAU3fWAdfo+zJ26EkH59SiJPY4V4xwhnhSA04eXwPMtb8x7ywkDpwfiWeipwmTi5AI3zNx7H6WFkQjwFGPk1ihUCXTZVoZ8iSmsOrJgayshk5WjSs4Va03GpCJc8hsO5+EeGDnQHv2m7UVchS79GAB1SNznA78fcyGvScWRuW54+/sszVcA6hKxz8cPP+bKUZN6BHPd3sb3WcozWyJjM7TnuzoMcsP3Y/FQO/T33o9TW9/AkGETMcG9H8Tjt+F2eUv01BGDVUk4NM8Tiw8nIC/jAjb4BUJZPnS3VYMrRzXZOxOl+RKYWnUEy9aiUiZDeZVcexyxxYg+shzjHMWY6H8Qu94eieHuQ7HwRPMKwxZH48jycXAUT4T/wV14e+RwuA9diBMSLvkYZJ5cALeZe3G/tBCRAZ4Qj9z6LI+bDyBF/OlP8IZjb4zeGo4aAKh7gOM7AxGTVwaZTAZZaRwO+k7FzPUXUSwkLX2zLcszHT7SJwZ1zQn1LZhzuGprczTPCW6fRKEjlwwyDXOPtphQHVJJy2VUhy2Lw8lVEyDuMwb+QWewZe4c+Lw3E+793LAqJA4nPpiMGQvfxyy3fhi1RSEDK43H6U/egGPv0dgarnhiUOM8U9e6eUQfH4NVr6cVperyaZ0v5PrKqKtOKeXSRwcVmNxw7F88FHb9vbH/1Fa8MWQYJk5wRz/xeGxrGECLPiWF2uoBIIv+Gj5e6xCUlIP086swqr8ntt0s0Vjf2iN31NAW13/2OVNfqFUwVPCjFzl6fkvZDBFRPSV/MYY6d19AZyuIpJffJ3G/FRRWrTy9MoJW9TMimzk/USFDJH/0BY0wsiDX5ecos5aIZP+mudbGNPKLRyQnosqINTTIYSGdkyrbV1ykRbaG9OqaKKolInnqDhpq0pdW365VHK+9Tav7mpL757+SXIdsTP435GFiS4sv1yg7l9Ll98XUb0UYNYq7ivoZ2dCcnwqJIYayvxpLRqYDafnVYpKmXKeQ+xJilOdyU0Epp1fSuFeMycBAQJ1enUFbL2ZSw8hM0WmaO24dRSvVYLK/ojFGhuS8OZ7qm3ZDRERyevDZMOrgspWS6omoPpbWDzAhp83xVE+1FLl6ADmtjVbowBTSqR37KaWeiOSptGOoCfVdfZsUw9TS7dV9ydT9c/pVTkRMPn3jYUwd3NZTWIGciGrp3iYnMuzkTmuv/kb1RFQfv4mcjB3I72YNEVNEp+eOo3WNQtNXY4zI0HkzxasLTU9/WUEDnNfQ7UrlB7WRtPpVYxqwPpYU4nH7suj0XBq3LlopO0PZX40hI0Nn2qxpMJJT6o6hZNJ3NTV2t5r6mrrT57/KiUhOj74YQUYWrrT8XCYpQm8uWRuPpC8eyVU7IyIi+YPPaFgHF9qqMDrFrh9AJk5KXVtkWxOyXXxZ6XNdsabo38h2Ku2LlZCcKijpu1lkb2hMrtsSqV6XfrWRtHqAE62NVvTOFJ6iHftTNMQSUW3kahrgtJYUpzJUeGoH7U+pb4GMRPTkKE0xsSLvfyvO0JXv6tRS5Oq+ZGgznraE/Eb1VEmp380gW6ERufjf160nZwxWUsSaQeSw8Bw1lo9FZGv4Kq2JqtXRVtmgCZw5qtXeDOV/40EmtoupocxwxhGTTV+NNSLTgcvparGUUq6H0H2JuuGY7K9orJEpDVx+lYqlKXQ95D6VFHDIJ39Anw3rQC5bkxR5HLueBpg4NeaOih+JKaBvPYzJYvbPVElEVJ9MFy+mKePnKUV+6kIdLUfR5/E1RJx968ozHT5qSQyqwF1HdM05XLVVE5rnhDodMqjOPZwxoYZuGZ8cnUImVt7U4E5VmPxvyMO4A7mtDyNFqb9Hm5wMqZP7Wrr6m0KG+E1OZOzgRzeVccsUfEsexhY0++dKZd5qmWf0nUda4WP1eqoqn475Qm8ZddWpVuigQm3kaupraEPjt4TQb/VElanf0QxbIRm5+NP9em59NNUDieQyvS/uRysaizFFrOpHRjZz6CfNxbiNuaMOZ1z/iedMfWnllWspgk+HwNjZVfngiwivrQ6FJO8YppuV4cJ3PyHXcTCcG/ZBdRgGr+lilF78EcEyQNixI8yE5nDy9EQvIwBmYvTpIUC5rAyECoQcOIbMgWMxzlLZ3qQX7G203NdQg0s21XMBlF3Adz/lwnGw87NXlXYY5oXp4lJc/DEYMghgamoEgYUrPEZ1hWV/D3gO6tzCS/5m6D9nD35JvYd/bZoGm/xz8J8+An//v1TIAVSFnkVI3kNc3BOAgIAA7DpVDU//bZjvYqraEQAhxEuPI/yUH+xzQ3Fk11FES1nUVteAhQi2YjtkfzkVoxd8hjMphvDa+JHWW4PNEHSEWQcDGPUaAtduQgBGEDvaQYQeGDLCFiIAIns7dDcoh1RKQFUozobk4eHFPQgICEDArlOo9vTHtvkuUJe6HJcOnsTTYW/ApYPyI2EndOrYMusBVQg9G4K8hxexJyAAAQG7cKraE/7b5kOjiXQiRMeOZhCaO8HTsxcUodcHPQTlkJVpfiJCKF6K4+Gn4Gefi9Aju3A0Wgq2tho1mi4D6EJnrCkQ2rwOjyGdIYQZBry3BytHGiAp/BZKdY0psoXYLhtfTh2NBZ+dQYqhFzZ+1L/ZLd7GU8Wwy/4SU0cvwGdnUmDotREf9Re1WMZGdOe7OgKYmppA2HU4pnnYQoQO6OezFb5OhKSwMN0/JcYVgxUhOHAsEwPHjkNj+bDHs/LB1bbJEA1w5qge9uaMI4EpTI0EsHD1wKiulujv4YlBndVzRGBqCiOBBVw9RqGrZX94eA6CSTiHfEIxlh4Pxyk/e+SGHsGuo9GQsrWo1ha8AnOYN7m1DtFreOutvhCBhSRkLRb+8zeM230Uq52MdfStI890+UjvGNQN95zDVVs10ZY5oRHOmFBDXxnVEXQ0QwcDI/Qa4gpFqRfD0U4E9BiCEbYiACLY23WHQbkUUmU5FJibozEkOOYZfeeRdvJxc/l0zBf6yqirTpW2XQeBqSlMhF0xfJoHbEVAh34+2OrrBEoKQ1hRBac+muoBLn2Hn3IdMbixGGOY13SISy/iR83FWCfcuaOOfnGtgxbGye8xZ+qLvvVAASNBcWkNZGVSdeMyRcj5rQpsXZ3i1iKgTFpbCOpkkD5hAQOD5ntmDYQQGgDEEsDkIu1XGSAUtU44Ltk0wBTl4LcqFnV1TX4oU2QPO1sB6mRSPGEBaNjhqxPmEeLilbdizPtj5tb/IP7uCbzbqxRXPvsK12pZPC2RoNq4H6avWY/16xv+1mHF1L4anSsQVSNhny+WHsnH4PeWYryNQKmjAD0XncC1g14wD9uJ2UP6Yvjys8jRctemOQYwUFHPQGDQ/OlbAwEEUPxaC/u0BJJqY/SbvqaJzOuxbsVU9FUVmsnHo6wKiIwMW2NBgH2KEkk1jPtNx5omY61ftwJT1QZrGQYqyhoIhTAAgdUWLAIRqhP2wXfpEeQPfg9Lx9tAoO1cHbQs1lQQdIVDL0sYMHLUqx5TRdATi05cw0Evc4TtnI0hfYdj+dkcjU9dC3ouwolrB+FlHoads4eg7/DlOJvD6C9jS/K9JYh647U+ZkB9LWp12JcrBh0L0qAoH5qrB1db9ZDSkaN62FtnHLUwQZqfpkM+CCCqTsA+36U4kj8Y7y0dDxvO4DVQyw8AYPOC4LfkMGpnf4vARb2Ve+m5+1btp2meMbncPtI7BlsC15zDWVu1oW4nvdEVEyroL6MKqjaAAdRLvQDNfnLEoOn8wDXP6DePtJuPm8qnc77QT0aNNKlTVYXtpEMzROj9Wh+YoR611U906KMahQyKcn5DFVuH5iLZwVZQB5n0SYu/iDVDNW5UckcNPeOai1bFyXOaM/VFc3XThfBl9LQ1RVHwz7hS1vAhC0lwIE5lvIw+vS3ApMTh7rPtYCzqausgeGUwnG10DGnQGV06i1CTfBcJKj8HTazSkkIRhBoWREQMt2zp6iYTdu+D3hYMUuLuNu51Y+tQWyfAK4OdoUtcrcgz8K/DIc32BZk4zsG2pe4QPpFCVi+ARXcbdEgLwuEb0saTmEwEX0rUsOenApc/noYNkln4Zrs3XKwbVgIEgEFu8m/o4bMPN9JScGHDIOQc8MPO67UAhBAJNSQCUasCSGDRHTYd0hB0+AYapWaQGXwJiapCG1jCqhPwW1w0HmsbjMuXAgt0t+mAtKDDaG6iYFxSG0yBUKGsSnEkkLbxdVBx+WNM2yDBrG+2w9vF+tmXHkX/+tm2dbFWhZLSavR0GoKXBTr0Y3KR/FsP+Oy7gbSUC9gwKAcH/HbiuoafVWdyk/FbDx/su5GGlAsbMCjnAPx2XodcXxmF3Vuf70RNin09qmpYWPcbgO5Cbj25YjDJogs6i2qQfDcBzdUmsCx3W/WQ0pGjetibO45aiw75Ki7j42kbIJn1DbZ7u6BZyWgp8nQE+i7Dfy3+ge+/ngkbAcBKiyGRtb5vg87cPmpVnnDVEZ1w1VY90FMG/WKinWRsE1zzjH60yse6aMV80SK01KkePdpLBwI1WSfUV9WAte6HAa9Y6amPEN379IYFk4K4xmIMtq4WdYJXMNjZRvOCT8+41QV3XP9550x90Siabjph0sLZ6FF4Au//fQX+L+g/OLXnQ/gEiTDcsTMmL1uKgdIz+OpIuuLHutlCXAvNxYhlH2CUMcAyDOTENjEwgUBgWRasoCumzJuMLpmH8fGGi8ipA2qz7yG5mIE0LxuF5VUQWtuim1Eeoq/eQ1HxA1w6cAy3JXKU5D5G6VNjDtmEEJiYwBhPUJBfhpKYCCQaTsaypQMhPfMVjqQrflqcLbyG0NwRWPbBKCgePSRAXt9swctKrmGr1zvYcbNJ1DeDIL28E2t+TGsMCiYPkTGP0W3aHHh0AMwmLoR3rywEeo3F3G3fI+jMcQQsXotIMwf1K9dsOR5lFqEiJx2PK2qQG3YBUQUMqsoLkBCTiNyg3Qi8VwWY2OPNDZswy74DjE0MAKE1bLsZIS/6Ku4VFePBpQM4dlsCeUkuHpc+RQ0YsGyTLy5QZgE1+fZOBAILlgFgNhELvXshK9ALY+duw/dBZ3A8YDHWRprBQVVogTX+9vexMI35HHM/OIArsXfxy7Gj+KXJ73xz+1KIiQu90SsrEF5j52Lb90E4czwAi9dGwkxtMAAQwtq2G4zyonH1XhGKH1zCgWO3IZGXIPdxKZ7WsGAYOYhtUkiIAGLBNtX/GSzKH2WiqCIH6Y8rUJMbhgtRBWCqylGQEIPkah22FZjAxBh4UpCPspIYRGSPb0GsAVRVDpkyuWuSDuPko79h03J3GOnSrzIXQbsDoQiDN7Fh0yzYdzCGiYaLbExuEHYH3kMVTGD/5gZsmmWPDsYmMOjUgnxgGDDKfAU66cx3bbAl2ciqUP47/zzOJw7A0g/Gw0SXnkLtMehoMwXzJndB5uGPseFiDupQi+x7yShmpMjLLkS5gfa2mkKKM0cZbfYWwETheOSXlSAmIgGFXHFU0VBiNE2YzSHI0fQ0LvkE5Y+QWVSBnPTHqKjJRdiFKBQwVSgvSEBMcoWKHwGABcNSk1pQhbjP38P6272x7uhOeFgpPpUGn8O1Aq6+n3DmmaCrDh+1qCY3h7uO1HDPOZy1NVllpAbU5wRdMjSfe8IR9UBHTDSlBTIyDKO0sUrbBhgWrPILTAOKUt+47CAigGUbFzosA5Ya2jDa5xl955GW1BlVVOtpYpWKfGY65gs9ZVSitU7p1KEKd/YvwOR3tuGK4pceNMOWILtxAJw/n4gBSz/AeBNd+qjXg06Tl2HpQCnOfHUECpFYFF4LRe6IZfhASzHWFbecuaPS1195ztQb1U3YLaeSUk/50XhxVzLvZEuu3nvoVnHDhvl6yjq/kaa6ONPYOb70j/fm0dIvw6iIISJZIp3Z4EHWQkMSz9lDl1PS6daRZTTcUkAdnBfTdxF5RIyUYr/1ITc7K7K0d6UpH/nTIrde5O79KR2NKiCiJxSxYyL1tLAgW+dZtPvmZVrj0ofGLPCnk3dKuWWTZ9DRd8Rk9ZKYpu+JpqdERPVZdH7jVHJxHktzfP9B781bSl+GFRFDDEnunab1E2xIKLQlz42nKa5U0Y8841ua9HI3mnww85lFmlFzlTbOfJd835lCk6bOJK85s2jq+NH05kdH6f7TxtMqU0+S33hHsjI2IoueI2jJsWTFw0RqMJR3dhkN7WZOVr1H0+IDN+kHHzuydJhMu6OK6faG4dTbaQL5fOJP29YtoSUBN549TPYkYgdN7GlBFrbONGv3Tbq8xoX6jFlA/ifDKfK/W2iSrZBEDjNp14Ukyk74D22f2pOEIgeaEfBfuv84joI2v0m2QhH1mhFAwRm1RJWpdNJvPDlaGZORRU8aseQYJWsWmkieT1e3TKF+XTuShf04+jgomLa4mj57oLFFvjzpR+MdrcjYyIJ6jlhCx7QORkRPImjHxJ5kYWFLzrN2083La8ilzxha4H+Sbob/izZ4WJPQUExz9lymlPRbdGTZcLIUdCDnxd9RRJ76Ax9M3llaNrQbmVv1ptGLD9DNH3zIztKBJu+OIhmnbe9QKSOnjKPvkNjqJRJP30PRT7liTUHlr+dpx7tj6PXR08jnw2Xk+8F2uvCoyRNKHPrdyb9FG4b3JqcJPvSJ/zZat2QJBdzQ/GBN7e0NNLy3E03w+YT8t62jJUsC6EZDwHDJWJ1GFzd7UjehkOym76RzyU+4810j9RS/aTAZ2bjR7MUf0scrP6R3Z3jRpxeyGx+Q4dKzlOGMQUYaS9/6uJGdlSXZu06hj/wXkVsvd/L+9ChFFXC31YTWHK29rdXe8oyj9I7Yil4ST6c90U+1x9HnIRR2ej1NsBGS0NaTNp6OI2WJaQYjuUen108gG6GQbD030um40saY0SYfk0dnlw2lbuZW1Hv0Yjpw8wfysbMkh8m7KapQ1Y8FlHphC03qLiSR/XTaeSmdaiLX0yATAVm6eNPqtWtp7dq19MmKBTT61Xfo9FPtfV+7fUZnnun0EVcMaoSjjtwM1zHn5HLUVpnKONrnBE4Z7pSqzT3l2mJCWVuaw1X/ZVSddpE2e3YjodCOpu88R8lPVJpXpNL5LZPIVigih5m76EJSNiX8ZztN7SkkkcMMCvjvfXocF0Sb37QloagXzQgIpoyyVLqwZRJ1F4rIfvpOupT+RMs8U0Gp51sxj+jtY5V6WqgqXw3HfNEaGSt11ykuHZg8OjqjG1l2saYR25KaadJAffwmGmxkQ26zF9OHH6+kD9+dQV6fXqDsZwNo1oerHtRnnaeNU13Ieewc8v3HezRv6ZcUpr0Yc8etztzJU+1Me637k8+Z+mJATb+28vA8b5hU7HBzxc8TwxD/2evqV+h5/geQI2GzK9zPTUHk3e1w5oOAh4fnhaN96lRdxAZ8cHcxvl/uoHoI8oTNcHU/hymRd7G9tQPwvJC0clsIDw8PT9tRv63Iw8PD82LR2jrFSiJx6OJLeHe++sK6Ga0dgOeFhV9c8/y+yEtRWi5HheyJhoc2ef43kKOs7AmYcgmkim10PDw8PC8YbaxTrBRJCSwm+6/CWOXzCqrIy8rwhCmHpFUD8LzItPn15zw8LYbJw+1TIfjN2gn9zaXINXgFLvYNv3TL879BLTKuHcfV4lcw5LWOKMshdB/kAKuW/ow9Dw8Pz3OnHeqUgSm6OfSEpZbdHrUZ13D8ajFeGfIaOpblgLoPgoNeA/C8yPB7rnl4eHh4eHh4eHjaCX5bCA8PDw8PDw8PD0878adZXLNPM5GUIXsh9v3X5CXhQZN3NFdmx+N+bpM3CP2lqER2Ylqzl+HwNKEmD0kPitoQlzXIS3qg+5XffyTsU2QmZUDWIhn11+evnT88PDw8PP9rvPiLayYXv+zxwdBer8HrUNof+hAcK4vHyZUecHQcix0RygcQ2Cwcmu+O4b7HUajHguLFh0Vx9GH4jXFE3zd2I5p/3qI5rAzxJ1fCw9ERY3dEKF6eohcsZPEnsdLDEY5jd6AhnF4sGOT+sgc+Q3vhNa9DSONMvlbq85fNHx4eHh6e/1Ve/MW1sAfG+/lizEtN3qL0ByGwdIb3x9MgbrpNXWCPJT9EIfK7Bej24ltTDwSwdvPBism9VQ+8OLAluBv3SONrU587Aks4e3+MaeLWxqUAls7e+HiaGC/uUw9C9BjvB98xL7VAxpbqw6LkbhweNTjtL5s/PDw8PDz/q/w5pjOhJSwt2uN9lG1HYGEOMxVRzOycMbiHSfMP/xIIYW5uhhfD8upUxuzF5mMP/7i7GQILmKsGg14IYPEC21eBEJaWFi2UsQX6VMZg7+ZjeNj0Fd5/2fzh4eHh4flfpA2LaxZPH6cg8ykLRpqB6PAYZMgUl6PYggRcCwlGcMgtpMlYgMnH3SvBCA6+gujHVc16qcpPwu3QcNzNfqq2b1VeloHYsHDE51arHFHA1bYpVTlJSCthUJN/H7FpZY1XOqvykXQ7FOF3s/FUpQO55CFibt5A6J1MKNVSIDBQXzzU5CExtVApQzke3r6C4ODg5n8hEUhXblrV2jeqkJOUhhKmBvn3Y5FWpvmabFVuomLPNyNDZlwk4nMqlUfqUJQaiYj7+VDsYGVRkHANIcHBCLmVBoUr7uJKcDCCr0SjuSvqUJwWhdDQGGRIG8c1MGjUtq4wGbcjU1GssprVrg8L2aMYhN1KQE65BPkFDXKq0lzv1NS7OuKHRUn0Pix4dw9isxJwNeQmkpWbwtsuCwC5BA9jbuJG6B1kNu9EBQGamKcRRorMuFsIj05DsY7tEQJNHXCMrzWWawqQfDsMEQnZKNeUDHrIBACQlyEjNgzh8bnQmH1ackejPkrYkmjsW/Au9sRmIeFqCG4mlyhypln+NFCF/KTbCA2/i+xmyVmF3ETFnm5Glom4yHg0hn8RUiMjcD+/6f5t7XWqKYw0E3G3whGdVtyKLT48PDw8PDyNtGpxzeSGY//iobDr7439p7bijSHDMHGCO/qJx2Pb7XIIOvfEK0U/YMk0XxxOlQPCzuhhnY59c6diZVC+YkHAFiBkuy9WBYYh8c7PWDVSjNEbr0PCAkAVkg7Ng+fiw0jIy8CFDX4IfNhkQuRs2+S04mgcWT4OjuKJ8D+4C2+PHA73oQtxQsKiIGQ7fFcFIizxDn5eNRLi0RtxXcICYJB5cgHcZu7F/dJCRAZ4QjxyK6KafydQDiBF/OlP8IZjb4zeGq5Y0NY9wPGdgYjJK4NMJoOsNA4Hfadi5vqLKBaSlr5ZFEcfwfJxjhBP9MfBXW9j5HB3DF14ApKmw5XF4eSqCRD3GQP/oDPYMncOfN6bCfd+blgVEocTH0zGjIXvY5ZbP4zaEoUqCNC55yso+mEJpvkehsIVPWCdvg9zp65EUL7yy1BJKHbO98E/r2ejOHE/popd4XeuoMlipw6Pf/oYs+cuxZJpzhg44zvlbX0uW9UhcZ8P/H7MhbwmFUfmuuHt77NUrjJr1tvtkyh05IofVoZ8iSmsOrJgayshk5WjSt5WWRQwmSexwG0m9t4vRWFkADzFI7FVo/M1I4v+Gj5e6xCUlIP086swqr8ntt1ULiJbgLbxtccyUB61G9OnbEF0vTHKL30It36vY9wbb2HmjpuoaoVMVUmHMM9zMQ4n5CHjwgb4BT5ssvWGK3e4YCHLl8DUqiNYthaVMhnKK0rV8wcAWxCC7b6rEBiWiDs/r8JI8WhsvF6C0riTWDVBjD5j/BF0ZgvmzvHBezPd0c9tFULiTuCDyTOw8P1ZcOs3CluiqnTWKQUyRH/tA691QUjKScf5VaPQ33MbbvJP8PLw8PDwtBZqJbWRq6mvoQ2N3xJCv9UTVaZ+RzNshWTk4k/364nkqTtoqElfWn27VtngNq3ua0run/9KcmKo6PRcGrcumhRHGcr+agwZGTrT5vh6qoxYQ4McFtI5qXKwiou0yNaQXl0TRbU62qrCZH9FY41MaeDyq1QsTaHrIfeppOA0zR23jqKVojHZX9EYI0Ny3hxP9fIH9NmwDuSyNYnqiag+dj0NMHFq7PvJUZpiYkXe/65WNi6gbz2MyWL2z1RJRFSfTBcvppHi7KcU+akLdbQcRZ/H1xBx9s1Q9ldjych0IC2/WkzSlOsUcl9CjFKPBpj8b8jDuAO5rQ+jAjkR1d6jTU6G1Ml9LV39rZ6I6il+kxMZO/jRzRoiIjml7hhKJn1XU6MrVlNfU3f6/Fc5EVNAP3o5kue32Yqx6pPpizGdqfuCs1RBRMUHPcnE3J02hhUTQ0RP/7uAbEzG0JdZDLc+tZG0eoATrY1W2IkpPEU79qco7dIUzXrXccYPETH59I2HCdkuvkwKNdtDFjk9+GwYdXDZSkmKTmj9ABNy2hyv4Vwioid0dIoJWXn/m6qJiKSX6X1xP1oRpowNqqSIVf3IyGYO/VSo6kkFT45OIRMrb1KEE/f4mmJZUptE21/vSK7bUxR2qb9Hnw4ypt7LQhX5oa9MlRG0ZpADLWxMPrq4yJYMX11DUbVETBFH7qjpowpD+d94kIntYrpc0/CRSv4wRXR67jha1zgAfTXGiAydN1N8vaK9cQc3Wh9WQIrw30ROhp3Ife1VUoR/PG1yMiYHv5tU04I6Jb38Pon7raBG80TQqn5GZDPnJ9JkHh4eHh4eHl206so1AAhMTWEi7Irh0zxgKwI69PPBVl8nUFIYwnT+DlcVQs+GIO/hRewJCEBAwC6cqvaE/7b5cDGtQMiBY8gcOBbjGl7eZ9IL9jYNby7iattkCCUCU1MYCSzg6jEKXS37w8NzEEzCzyIk7yEu7glAQEAAdp2qhqf/Nsx3MQWEYiw9Ho5TfvbIDT2CXUejIWVrUV2jRSeBOcw7NrkVLnoNb73VFyKwkISsxcJ//oZxu49itZOxjr4FMDU1gsDCFR6jusKyvwc8B3VWu7Ug6GiGDgZG6DXEFd2EAIzEcLQTAT2GYIStCIAI9nbdYVAuhZTzwTIl0mCcDjGGs2s3xVii17A6VIK8Y9Nh1nBOh1cxbGhXCACY9OwJa8gglbLc+ohsIbbLxpdTR2PBZ2eQYuiFjR/1h/rLqlqmt07aRRYhxEuPI/yUH+xzQ3Fk11FES1nUVtdovcrblLIL3+GnXEcMdm7YP9wBw7ymQ1x6ET8Gy1TO1gT3+JpiuTObhczcusbtGKJe6NUDyM/KQnUrZKoIOYBjmQMxtjH50MveBs+yL5Qjd1qDav5UheJsSB4eXtyDgIAABOw6hWpPf2yb7wJTCNDRrAMMjHphiGs3KMLfEYrwHwFF+NvDrrsByqVSkM46VYoL3/2EXMfBaDTPMHhNF6P04o/QYB4eHh4eHh6d6L2G0Y4IvV/rAzPUo7ZWx6qOfYoSSTWM+03HmvXrsb7hb90KTHUsQNqvMkAo0iwcV9u+6sslACp7pFk8LZGg2rgfpq9p0n79OqyY2hciCCCqTsA+36U4kj8Y7y0dDxsBlz4GzfYlN8DmBcFvyWHUzv4WgYt6KxcnuvpW70cNA9U93wYQGKDZL1YYCATQ8ZMNz2AkxSitkaGsRStxAEIBhGAgrwe3PoKeWHTiGg56mSNs52wM6Tscy8/maPlljxborZP2kUUgqkbCPl8sPZKPwe8txXgbQQt/DYRBUc5vqGLrUNdky6/I3g62gjrIpE9atEDXNb6apYyGYfIbLyP9xhU8ZgDUPkBathU8poxBR71lYpCb9itkEEKkOfl05E5raJ4/7NMSSKqN0W/6mib9r8e6FVPRV9T8GQAAgIEABioW4g7/JnWqqhA5v1WBrat7tiVF8eXUFoI6GaRPWuIxHh4eHh6e5micQlsOgZrMP/VVNWCt+2FAdyEgFEEIAqsyyRExgMAC3W06IC3oMG5IG48xmcG4lGSBLp1FqEm+i4Tapi0BYlnutomadtGqIoBFdxt0SAvC4eYdIPhSIuQVl/HxtA2QzPoG271dYN2wYtA6WWtAno5A32X4r8U/8P3XM2EjAFhpMSSydui7FQhFQoBYlWEIxADCl3vC1rQIwT9fQVnDIVaC4MBTSNe0+mwKl62YXCT/1gM++24gLeUCNgzKwQG/nbiu4lOtcMWPJtpFlgpc/ngaNkhm4Zvt3nDRy0FCdO/TGxZMCuLuNu7RZutqUSd4BYOdbVqQbK0YX9AV0786AB/jG/h6+1fY89lZmH4SjBOL7SHUWyYDdO7SGaKaZNxVTz6wunKn6fmtRGDRHTYd0hB0+AYaR2CQGXwJLUpvjWipUz16oE9vCzApcWg0D4u62joIXhkMZxvdHuPh4eHh4VGlbbMHW4LsrArlv/Nx/nwiBiz9AONNAKG1LboZ5SH66j0UFT/ApQPHcFsiR0nuY5Q+FWLiQm/0ygqE19i52PZ9EM4cD8DitZEwc7TBlHmT0SXzMD7ecBE5dUBt9j0kFzOQ5mWjsNxAe1sHzdfOCHLUN/3pr4kL4d0rC4FeYzF32/cIOnMcAYvXItLMAYLyR8gsqkBO+mNU1OQi7EIUCpgqlBckICa5AmAYMCCwbMNszYJhSbHwBwBUIe7z97D+dm+sO7oTHlaKT6XB53CtQEffIEBez71IYViwIDwbTrn0oiaX6ogIYFnllVkhrG27wSgvGlfvFaH4wSUcOHYbEnkJch+X4qnxJCyc3QOFJ97H31f8H4L+cwp7PvRBkGg4HIWsQk+1hbnic5bLVonpCNodiHtVgIn9m9iwaRbsOxjDRO3SKzTqzR0/NYDABCbGwJOCfJSVxCA86kHbZWHL8SizCBU56XhcUYPcsAuIKmBQVV6AhJhklZMBgAHDKL70sQA6TV6GpQOlOPPVEaTXAQCLwmuhyB2xDB+MMlZtDABgFB0o/NmC8VVjGZDi8votyJ3xNXau88PHW3dj6zwnNGzq0E8mAbpOmYfJXTJx+OMNuKhIPtxLLgYjzUN2YTkMOHJHpKqPGgKYKJyG/LISxEQkoko1f8wmYqF3L2QFemHs3G34PugMjgcsxtpIMziIAEYZj43dk2Lx/CxAFf9m2aYPQGurU50wedlSDJSewVdH0hW/EsIW4lpoLkYs+wCjjAFWcg1bvd7BjptNvkzw8PDw8PBwoboJu6XUx2+iwUY25DZ7MX348Ur68N0Z5PXpBcqWN5zxhCJ2TKSeFhZk6zyLdt+8TGtc+tCYBf508k4pEVVS6kk/Gu9oRcZGFtRzxBI6llypaMpIKfZbH3KzsyJLe1ea8pE/LXLrRe7en9LRqALutk1gJPfo9PoJZCMUkq3nRjodV/rsAcHK1JPkN96RrIyNyKLnCFpyLFn5QFUenV02lLqZW1Hv0YvpwM0fyMfOkhwm76aowjS6uNmTugmFZDd9J51LLqDUC1toUnchieyn085L6VQTuZ4GmQjI0sWbVq9dS2vXrqVPViyg0a++Q6efauv7cwoJO03rJ9iQUGhLnhtPU1yphqepKlLp/JZJZCsUkcPMXXQhKZsS/rOdpvYUkshhBgX89z49jguizW/aklDUi2YEBFNGLRE9iaAdE3uShYUtOc/aTTcvryGXPmNogf9JulPKEFWm0im/8STuak6dbF3Je88tKmaIZPf/RWvHWZPQUExeX1yk5LRwOrx8BFkKzcjl/SMUnZ+rRZ/dFFV8mzYM701OE3zoE/9ttG7JEgq4UajygCZDknva9NYVP3LKOPoOia1eIvH0PRRdrs22LZWFiIihvLPLaGg3c7LqPZoWH7hJP/jYkaXDZNodJVM5t5rSLm4mz25CEtpNp53nkomIqD7rPG2c6kLOY+eQ7z/eo3lLv6SwIvWRiIiq0y7SZs9uJBTa0fSd5yj5ifbxPw8J0xzLTB79+K4dGRuAAAMyEBiSiYU19RmzlE48UDwUqI9MRAxJY78lHzc7srK0J9cpH5H/Ijfq5e5Nnx6NogJGe+6o66PaN5E84yi9I7ail8TTaU90oVr+EBFRZSqd9BtPjlbGZGTRk0YsOUbJlUQVqedpyyRbEoocaOauC5SUnUD/2T6VegpF5DAjgP57/zHFBW2mN22FJOo1gwKCM6hSZ52qp6zzG2mqizONneNL/3hvHi39MowazCPP+JYmvdyNJh/MbGjAw8PDw8PDiQE1veSpB/KEzXB1P4cpkXex3VnzFWMeHp7nDJuH89sC8fTvPnBmSyEtr0BVhRT593/G8QJfBO+fCNXr0/9L8HWKh4eHh+f3pm3bQgC06CktHh6e5wCLvBN+WHHfAX8b5ID+TkMxYsx4THxrJmZ5uuL11xRbNXj4OsXDw8PD8/vR6sW1vKwMT5hySKT8+8x4eP4oRJbdYPrLcgwb/y6Wb9yGnTu24JP35+Ef/3HAksUNv1Lzvwtfp3h4eHh4fm9atS2kNuMajv0rHFnlcogs7TF29kJ4OBipnsbDw/M7UJsXg4vnQ5GUXwWhlR2GTJyGvw186X9+Yc3XKR4eHh6eP4JWLa55eHh4eHh4eHh4eNRp9bYQHh4eHh4eHh4eHp7m8IvrdqQyOx73c5u8Co9HCYunmUnIkP3ZnipTlbsS2fH30VoX/1nio81ysk+RmZSBVrm7LW3/13letqvMRvz93CZvseT5I6nJS8KDovZ2Mhdtq3u/H22Xk32aiaQMWeuef35e+fdH8zz1anNtUZ2j9aNN/tZB6xbXdZm4eewz+L45CiNGjsbUf3yOw5dT8FT1vP8l2Cwcmu+O4b7HUfg8PPUnhcn9BXt8hqLXa144lMb5epwXCk1ys1mHMN99OHyPF+qfjH+W+GiTnAxyf9kDn6G98JrXIejn7ra01Yc6ZN48hs9838SoESMxeuo/8Pnhy0j5Uxev52k7FlmH5sN9uC+O6x8Qf2HqELllFPqOXIGLv5NdWFk8Tq70gKPjWOyI+P0e0G1T3fsdaZOcTC5+2eODob1eg9ehNO4XuanRivyrSse1w1vxnudIjBgxEqMnTMZMLy/M/PtMzH1/Lf55Ohr5v5+LtdAKvfSibbVF0xzdYtrk7xai+sPXLaeGbnxgR0Kj0bTnsbYXUrwAMMUUdyeDnr0zot1gqDjuDmU06bgi6x4l5FQ3PYmHiGojVpLY+FVaE6V4qcmfBXW5KyjrXgK1yMUa4k7v+NDQx++B3nI2o5YiVorJ+NU1pL+729JWP2pufEB2QiMaveexhpcJ/Rl5jraryKJ7CTnU2oj4S1IbTWtfH0brQstUjzxXmJy9NM7Yirz//Xt6Q4+694fSRjlrI2il2JheXRNF+qdQa/Kvks4tsCZhp7fp9FPlR9V5FHl0OY20NiTLIR/Qmazfu/qr0hq99KCNtUV9jtaDNvlbN627cg0AEMLCygICAwt0fqkN3TxnKmP2YvOxh+3/zaQyBns3H8PDpq9Vt3PG4B4mTc/iASC0tISF6qvG/wSoy20GO+fBaImLNcWdvvGhqY/fA33lbI4QlpYWaJ2729JWP4QWVrAQGMCi80utvH33ovEcbWdmB+fBPdDaiPgrwvz2GN1XncaOMVaqh54rAgtzmD0XJ3PR8rr3x9JGOYWWsGz1RNWa/BPBspM5DAyEEDYUIZPucPf5GiEXPsWrvwbiPZ+9SGVUmv2utEYvPWhjbVGfo/WgTf7WTTvMKy0QTi7Bw5ibuBF6B5my5pHCyh4hJuwWEnLKIckvQGWzo82pyklCWgmDmvz7iE1Nxd1rIQgODsGtNBlYMMi/ewXBwcG4Ev0YVWBREr0PC97dg9isBFwNuYnkEsWtB7nkIWJu3kDonUw0F4eF7FEMwm4lIKdcgvwCzdKwJdHYt+Bd7InNQsLVENxMLlHchqrJQ2Kq6i2pKuQn3UZo+F1kP216pBI5SemQsEBdUQoiI1NRrLaKakvb5rBPHyMl8ylYRoqM6HDEZMjQ3BNySB7G4OaNUNzJVDlWlYOktBIwNfm4H5uGMuVB7XYEADnKMmIRFh6P3GrVY+0XEwBQlZ+E26HhuJv9tJntK3OSkK4wElIiI5Gqy0iATrlr8hKR2vQWFivDo5gw3ErIQbkkHwWV2uNOLT4qc5CULgGLOhSlRCIytVi5kOboox3tVlechqjQUMRkSJv7u0FOtgAJnDnWBHkZMmLDEB6fC3WzccQWdLUFUJWPpNuhCL+bjWZpoGb7JsdaiO7qpUP2ZrB4+jgFmU9ZMNIMRIfHIEM1MTj816y+pZUpx9IxPqftdLRVRas9a5CXmKq2TUhb3lXlJir2BDMyZMZFIj6noaM6FKVGIuJ+frM9ljprk5b6o70+akCrbuDsR5tPZPJeGNglG/daYlcOW+ldowQGGmJWTz9X5SLxQRFYMJBlxiEyPudZragrSkVkxH3kq2yCVa17WmtNK/rmnkc0UYfitCiEhsYgQ9q8QYOcbEECroUEIzjkFtJkLMDk4+6VYAQHX0H042aVC/KyDMSGhSNeU8HnyFfFca78az1mQ1fB3/sVVNz6GnuvN5VXe6xqpK4YaVGhCI3JQHNT6YgZTr10tNWEVjkaaguLgoRrCAkORsitNChcdhdXgoMRfCUazV3GPUfriidOf7cj7bC45obJPIkFbjOx934pCiMD4Ckeia1RCkvVJe6Dj9+PyJXXIPXIXLi9/T2yNNQWtjgaR5aPg6N4IvwP7sLbI4fD3e0TRHUswg9LpsH3cCrkEKJzD2uk75uLqSuDkF8vQ77EFFYdWbC1lZDJylElZ5B5cgHcZu7F/dJCRAZ4QjxyKxTi1CFxnw/8fsyFvCYVR+a64e3vszRcNWQhy5fA1KojWLYWlTIZyitKEX/6E7zh2Bujt4Y/mzjYghBs912FwLBE3Pl5FUaKR2Pj9RIUxR7HinGOEE8KwOnDS+D5ljfmveWEgdMDkaEMhra0bQaTi/D9izHUrj+895/C1jeGYNjECXDvJ8b4bbdRDgBMJk4ucMPMvfdRWhiJAE8xRm6NQhVbjOgjyzHOUYyJ/gex6+2RGO4+FAtPFHPYEUBVEg7N88TiwwnIy7iADX6BeNhEtvaICQAAW4CQ7b5YFRiGxDs/Y9VIMUZvvI6SolgcXzEOjuJJCDh9GEs834L3vLfgNHA6AjUaSQmH3Kw0Hqc/eQOOvUdja7jSw3WJ2Ofjhx9z5ahJPYK5bm/j+8xS9birkzaPD7YEscdXYJyjGJMCTuPwEk+85T0PbzkNxPTADDCspthtT7uVIHTnfPj88zqyixOxf6oYrn7nUCBXkVPQGT1f4cgxpW2qkg5hnudiHE7IQ8aFDfALfNhYcLXFlvIwZ1uwKAjZDt9VgQhLvIOfV42EePRGXJewmm2vVeFWokP2ZqfmhmP/4qGw6++N/ae24o0hwzBxgjv6icdj2+1yxTla/Kexvg1diBPF3ONz2k4P2QEtsZxVB2n8aXzyhiN6j96KhrDXmnelcTi5agLEfcbAP+gMtsydA5/3ZsK9nxtWhcThxAeTMWPh+5jl1g+jtkShSldt0lp/JFrqo0TzXluNuim/xmrpR95Kn6ihzVatrVGq6ONntgxxJ1dhgrgPxvgH4cyWuZjj8x5muveD26oQxJ34AJNnLMT7s9zQb9QWRFVprnsaa02d/n0DXPOxZtiSUOyc74N/Xs9GceJ+TBW7wu9cAeQqcgo698QrRT9gyTRfHE6VA8LO6GGdjn1zp2JlUL4yT6qQdGgePBcfRkJeBi5s8ENgk4lKW742wJl/bcYMIycORycqQMTNZIAjVjXGPFiUhO7EfJ9/4np2MRL3T4XY1Q/nClidMcOpl4626miTQ65SWwTo3PMVFP2wBNN8D0Phsh6wTt+HuVNXIqhxstE6R+uOJ25/tzuq+0RaTj3d2TiQDI2n0NEnqscakNODz4ZRB5etlFRPRPWxtH6ACTltjqd6qqXI1QPIaW20Yr8NU0induynlHrVPhQw2V/RWCNTGrj8KhVLU+h6yH2S1KXSjqEm1Hf1beWemVq6vbovmbp/Tr/KiYjJp288TMh28WWqISKSP6DPhnUgl61JpBBnPQ0wcaLN8fVEtZG0eoATrY1W7P5hCk/Rjv0ppFkchvK/8SAT28V0uabhowL61sOYLGb/TJVEREwRnZ47jtZFK3fzMNn01RgjMnTeTPH1cnr0xQgysnCl5ecyqZaIZP+eS9bGI+mLR/K2tdVEbSSt7mtINuO3UMhv9USVqfTdDFsSGrmQ//16kj/4jIZ1cKGtCidR7PoBZOK0meLrlWOPNSLTgcvparGUUq6H0P3iFO12pEqKWDOIHBaeI6ly+IqLi8jWsGFfVHvFBENFp+fSuHXRSt8zlP3VGDIydKbN8fUkf/QFjTCyINfl5yhTYSSaa21MI794pGUPsy65iZiCb8nD2IJm/1xJRES1katpgNNaUoQMQ4WndtD+lHr1uFM0bh4f8kf0xQgjsnBdTucUAtK/51qT8cgv6JGm2G1HuxX86EWOnt9SNkNEVE/JX4yhzt0X0NkKTXLqyLHKCFozyIEWnntmNbq4yJYMlXv0OGNLR1um6DTNHbeOGtPgKxpjZEjOm+OpUpvtW0j9nY000NCYpmgvXtyya6A2cjX1NbSh8VtCSJFm39EMWyEZufjT/Xou/2mub8UpHOPrsF1rZNdsT4YKvvUgY4vZpAh77rxj8r8hD+MO5LY+jArkRFR7jzY5GVIn97V09TeFLPGbnMjYwY9u1uiuTRrrT0kBR31sqpUCrbpx1tlW+EQNblvpX6OI6MlRmmLSuOdaXz8r6ooxdXBbT2EKB9G9TU5k2Mmd1l79TVHP4zeRk7ED+d1UVJ7mdY+j1ujbN9d8rAmmgH70ciTPb7MVz0nUJ9MXYzpT9wVnSVG6mtdneeoOGmrSl1bfVvq39jat7mtK7p//SorStYYGOSykxhS6SItsDZV7cLnzVVf+tYxaClvWm0SWXhSkELn50fAV1EckIJtFF3XGqipMwY/k5ehJ3yqKPNUnf0FjOnenBWcruGNGh16cbTXAJYd6bZFT6o6hZNJ3NTW6bDX1NXWnzxWTDfccrSOeuP3d/jznK9dCiJceR/gpP9jnhuLIrqOIlrKora4BCxFsxXbI/nIqRi/4DGdSDOG18SP0F6n2oUBgagojgQVcPUahq2V/eHgOQmd9pReKsfR4OE752SM39Ah2HY2GlK1FdQ0LiGwhtsvGl1NHY8FnZ5Bi6IWNH/WHFnHUEZjDvGOTG3ZVoTgbkoeHF/cgICAAAbtOodrTH9vmu8AUQnTsaAahuRM8PXvBCICZuA96CMohK6O2tdWEwBSmJkJ0HT4NHrYioEM/+Gz1hRMlISysCAbipTgefgp+9rkIPbILR6OlYGurUcMq2xoJYOHqgVFdLdHfwxODur6q3Y4VIThwLBMDx46DpXJ4k172sHn2usD2iokqhJ4NQd7Di9gTEICAgF04Ve0J/23z4WIKCDt2hJnQHE6enuilMBL69BCgXFYGjVbSKTcgMDdHUxeLbMWwy/4SU0cvwGdnUmDotREfaRZWPT6EHdHRTAhzJ094KgSEuE8PCMpl0OzG9rKbFMGnQ2Ds7IpuAgAQ4bXVoZDkHcN0Mw1y6qAi5ACOZQ7E2HHPrIZe9jbP3g4p5IgtXW2rQs8iJO8hLu4JQEBAAHadqoan/zbMdzHVz/athEt2TQhMTWEi7Irh0zygSDMfbPV1AiWFIazIgMN/mutb11e1j6/LdvrKrt2eApibd2yyFYE77wQdzdDBwAi9hriimxCAkRiOdiKgxxCMsBUBEMHerjsMyqWQku7axGqqPybhHPVRHa26cdZZ/X2iDret9K5RGtDXzxB0hFkHAxj1GgJXhYMgdrSDCD0wZIQtRABE9nboblAOqVQhRfO6x1Fr9O2baz7WhDQYp0OM4ezaTXHLXfQaVodKkHdsOhSlq3l95qYCIQeOIXPgWDSmUC/YPyv4XPVWd/61B1RRgSoSwNzSSmesqiINPo0QY2e4Koo8RK+tRqgkD8emm3HGjC69uNpqgksO9dqiA11zNGc86fJ3+6Pv8lRvBKJqJOzzxdIj+Rj83lKMtxEoC4cAPRedwLWDXjAP24nZQ/pi+PKzyOG4St9iJ2hFAFF1Avb5LsWR/MF4b+l42AiUZUzQE4tOXMNBL3OE7ZyNIX2HY/nZHD1u8xjAwKBRQvZpCSTVxug3fQ3Wr1//7G/diqnoK0KzcwHAQCiEAQgsta1tSxH1fg19zID62lqQQITqhH3wXXoE+YPfw9LxNmgwC6DJ8NrtyOSm4VcZIBRpD612iQn2KUok1TDuNx1rmtho/boVmKowUnOxDYQQGgCkxUgtkRsGBmhqekHPRThx7SC8zMOwc/YQ9B2+HGc1Cgu1+FD8v8l/YQChQkCtE2u72I2RoLi0BrIyqZZxVOXkgkFu2q+QQQitZtMaW7rasnhaIkG1cT9MX9PEv+vXYcXUvjDSy/atRKvsLUWE3q/1gRnqUVtLHP5ToGZ1rePrsh1XW81wxbJB01zSN+9gAIEBmuspEAAcLwZuVpugbhhd9VEVbbq1pJ+W+0QD+tpKR43SiD7yABrqDmCg7iAIQI0fNat7XLVG3761zyOaYCTFKK2RoUy56FdDpT5zwuQiTVHwtS6CtOdrC/KvzciRERePYrKCq/vAFsVqIwwkxaWokZUpvsCqojVmWqCX1raa0CGHam3Rge45miOeWuDv9uY5jcPg0Y/HcL2yApc/noYNkln4Zrs3XKwbooAUjkz+DT189uFGWgoubBiEnAN+2Hm9VqUvLoQQCTUUIyLNi+KKy/h42gZIZn2D7d4uaC5OLpJ/6wGffTeQlnIBGwbl4IDfTuglThMEFt1h0yENQYdvQPrsUwaZwZeQqGNraFvackHU5OtlfRVqWGv0G9Ad1Zc/xrQNEsz6Zju8XayfXa3Xkg+cdjTo3AWdRTVIvpuA5qYjsCwAtFNMCCzQ3aYD0oIO40ajkcBkBuNSK4ykW251mNxk/NbDB/tupCHlwgYMyjkAv53XVdq3F+1kN+HL6GlriqLgn3GlrOFDFpLgQJxK15Q1XDlmgM5dOkNUk4y7CSpjEau4wqM1tnS1FcCiuw06pAXhcHMHI/hSImqfo+2ZRz/i2PVKDtm5IDRPsxqw1v0woHs1h/80o318XbbjaquZFsdyO+ddA9pqk6brSvrWR2261evZD/S163OyVVP0kqdd0KPW6IJjHtGE8OWesDUtQvDPV9BYuiQIDjwFzaVLBKGGi05EDGDQGV06i1CTfBfqKaS40qk9X3XnX1thJVfw9bH7EA5YhI/eMtcz5oV4uactTIuC8XNjkQcrCUbgqXSUa40Z3XrpF2/ccmh2mVDDBSaCwmU65miueNLp7/anDYtrFnU1dSCqRnVVc+Gqkg/CP8oULqbleJRZhIqcdDyuqEFu2AVEFTCoKi9AQkwicoN2I/BeFWBijzc3bMIs+w4wNtH+PYYgR33TQBJaw7abEfKir+JeUTEeXDqAY7clkJfk4nHpU9QITGBiDDwpyEdZSQzCox4gs6gCOemPUVGTi7ALUShgqlBekICYxHQE7Q6EQpw3sWHTLNh3MIZmcQQwUXSM/LISxEQkogosGJYaHWU2EQu9eyEr0Atj527D90FncDxgMdZGmsFBxIJh5CC2SeITKQKYZdvWVissSrKzUKH8d/7580gcsBQfjDdC+aNMFFXkIP1xBWpyw3AhqgBMVTkKEmKQXKEITnkTw7Plj7Ta8U7ReMyb3AWZhz/Ghos5qEMtsu8lo5iRIi+7EOUV7RUTZpi40Bu9sgLhNXYutn0fhDPHA7B4bSTMHERgGQZyYpssCgkEAstqLn6CrlO45a4CwDJgqXGxzeQGYXfgPVTBBPZvbsCmWfboYGwCA5W4i0isAlTjg2XAyAlsk0KicCOr6F+1j4TCdrJbJ0xaOBs9Ck/g/b+vwP8F/Qen9nwInyARhjsK1eXkzLFKmE+Zh8ldMnH44w24mFMH1GbjXnIxGGkesgulKNQaW3dQNJ6rbTkMJi6Ed68sBHqNxdxt3yPozHEELF6LSDMHGGizPVhIrm2F1zs7cLPJgkYVtq4GdUSorq5qHg9VyTjoHwVTF1PdeaEJtgTZWcqDbD7On0/EgKUfYLwRV9wrHlhqXt9YjvF12Y7L7ppl1xrLAFiGBT1bNHDnHRgWrMoXUgJATa5UExHAss0eXNVcm5Q/0KVSf7jrY+NpDWjVrQX9tNwnmuzKbSt9axQAgGHAKM/RXx4AYMCyKgsKhYMaFzREILBgGxzUrO4xHLVGv7655pEYTcJ3moSFs3ug8MT7+PuK/0PQf05hz4c+CBINh6J0Na/PQmtbdDPKQ/TVeygqfoBLB47htkSOktzHKK00x5R5k9El8zA+3nARihS6h+RiBtK8bBRKueptKrpy1r1yVLESXNvqhXd23GyyGFaFUFen/qYYecFN7JyzGCdqJuCzY5vgbqJ/zHeatBCzexTixPt/x4r/C8J/Tu3Bhz5BEA13QIXWmGn/uqJdDkcoXNa0tghhbdsNRnnRuHqvCMUPLuHAsduQyEuQ+7gUlebcc7S0kCOeUk25/V1ehao7+7Fg8jvYdqVAVY3WoboJu0XUPqKbxwNoltiQDAyMyGbwOPKcNIkmTfIkj5GDqHsHS5p+rJiIGMo7u4yGdjMnq96jafGBm/SDjx1ZOkym3VHFdHvDcOrtNIF8PvGnbeuW0JKAG1So4Y0OjOQenV4/gWyEQrL13Ein40qfvfjhScQOmtjTgixsnWnW7pt0eY0L9RmzgPxP3qFSRk4ZR98hsdVLJJ6+h6LL8+jssqHUzdyKeo9eTAdu/kA+dpbkMHk3RRXfpg3De5PTBB/6xH8brVuyhAJuFGp9wYQ84yi9I7ail8TTaU90IaVe2EKTugtJZD+ddl5KV5xUmUon/caTo5UxGVn0pBFLjlFyJZEs8Qxt8LAmoaGY5uy5TCnpt+jIsuFkKehAzou/o4g8pm1tVamPp02DjcjGbTYt/vBjWvnhuzTD61O6kK14bIbJO0vLhnYjc6veNHrxAbr5gw/ZWTrQ5M9DKOz0eppgIyShrSdtPB1HpQwRMRx2lBEx0lj61seN7Kwsyd51Cn3kv4jcermT96dHKaqgvl1iQkElpZ70o/GOVmRsZEE9RyyhYwoj0ZkNHmQtNCTxnD10OSWdbh1ZRsMtBdTBeTF9F5Gn2hER6ZD7UTJd2DKJugtFZD99J11Kr6Ha2xtoeG8nmuDzCflvW0dLlgTQjUKGiFTi7mmFSnzEUeKZDeRhLSRD8RzaczmF0m8doWXDLUnQwZkWfxdBeaqx+7R9cklBJaWe8qPx4q5k3smWXL330K1ihohU5VTEMXeOMSSN/ZZ83OzIytKeXKd8RP6L3KiXuzd9ejSK8nK1xNbuKJIRd9sChqgy9ST5jXckK2Mjsug5gpYcS6ZKIm7bfzuJXu42mQ5manosrJYe3TxOAbPEZGhgQEY2g2mc5ySaNGkSeXqMpEHdO5Dl9GNUzJUXu6NIptqt8mGtwUY25DZ7MX348Ur68N0Z5PXpBVKkmXb/fR4SprG+cY/PbTtuu6ujzZ4VqRdoy6TuJBTZ0/Sdlyi9hrTnXUUqnd8yiWyFInKYuYsuJGVTwn+209SeQhI5zKCA/96nx3FBtPlNWxKKetGMgGDKqOSoTYyE7mmqP6S9tmpCm25E2vvRNudw+0QTWmzVmhpVnUYXN3tSN6GQ7KbvpHPJT/SUp4JSz2+hSbZCEjnMpF0Xkig74T+0fWpPEoocaEbAf+n+4zgK2vwm2QpF1GtGAAUnJqjUvSdaak0r+n74mHMe0UhlKp3yG0/irubUydaVvPfcIkXpSlWrz0RPKGLHROppYUG2zrNo983LtMalD41Z4E8n75QSMVKK/daH3OysyNLelaZ85E+L3HqRu/endDQqT2u+7o6SEenIv4K6DPp20svUbfJB0liGKtPo+pGtNNVORAaGNuQy9R1auHgR+XhNpjHDx5HXmkMUka/ylKCWWNVGZeop8hsvpq7mncjW1Zv23CpuQQxz66VvXSEOOTTWlicRtGNiT7KwsCXnWbvp5uU15NJnDC3wP0l3ShnuOTovlzuedPn76AzqZtmFrEdsU1WhVRhQ00sKPH9N5AnY7OqOc1MicXe7c8sf0uTh4Wkx8oTNcHU/hymRd7Hdmc+yFsHXJh4enheFughs+OAuPvt+ueoRvWnDthCePx9abzby8PC0F3yatQLeaDw8PH8grASRhy7ipXfnqx5pFfzi+n8BeRnKnjAol0ihvsOLh4enPZCXleEJUw6JlM+yFsPXJh4enj8cFtKkBLCT/bFqrJXqwVbBbwv5q1ObgWvH/oXwrHLIRZawHzsbCz0cYKR6Hg8PT6upzbiGY/8KR1a5HCJLe4ydvRAeDnyWccLXJh4enr8o/OKah4eHh4eHh4eHp53gt4Xw8PDw8PDw8PDwtBP84pqHh4eHh4eHh4ennXh+i+uaPCQ9KOKfAefRAounmUnIkDVESCWy4+8jt0bltOdK+8pQmR2P+61trKQ9+vjfgYH0YRIeV6p+/iLTApnbq3ZWZiP+fi7+VNHUXro3oSYvCQ+K9OyRLUdWXASikgtfCPuxTzORlCFrmV1aZMMa5CU9gL5m+X1Rrc9/Jv7Msv9ZaNt8/bxp/8U1K0P8yZXwcHTE2B0R/BPg/2vU3sLG4X0xenUIirXUFSb3F+zxGYper3nhUJri9Wds1iHMdx8O3+OFOiaF9qHdZWCzcGi+O4b7Hkeh3o2VtEcf/yMw2b9gz/wh6DVoEU5la3qR7ouHTpnbtXayyDo0H+7DfXFcLZhqcWvjcPQdvRoh2pL096ZddVfAyuJxcqUHHB3HYkeEao8MHn4zHX2HzMfxR83fH808DsInS3fhQtQ5fOopxsB3T+CxBnf9LjC5+GWPD4b2eg1eh9Kg9qbrprTIhixk8Sex0sMRjmN3QM0sLwia6vOfhfaVvQrp176H/8I3MHLESIz2mIKZM6dj+ixfbDp8GwVt7f5PTJvm698D1bfKtAtMDu0dZ0xW3v+matVjPH9pam+vJlf3jRSu7XVNSmojVpLY+FVaE1Wr/KSCsu4lUM7vGDBtkoEpprg7GdT05VsVWfcooUWNlbRHH//D1PzyIdkbu9L2FE2vQHsx0Slze9bOiiy6l5Cj3k/tbVrt6k4bdSXp701LddeQN9pgcvbSOGMr8v63So/MY/r6jQG08N+/NX8LL1NIP8zoTm8ekhARQ6XXt9G7S4/Qg5YM9ryojaCVYmN6dU0UNVQqrbTIhgzl7B1HxlbepGqWFwn1+vznob1lrzgzl7oIO9PcM9VEVE2Pzy+jIWZG1PPtY5TxR8bmH4oe8/UfQPtfuQYAgQXMzQxUP+X5y8MgJ/sVfPLjVozqpHqsOUJLS1g0CxEz2DkPRg+Tpp89X9oiQ2XMXmw+9rDZlSQzO2cMbkljJe3Rx/8yQjNzmD2fCvbc0Clze9ZOMzs4D+4B1WhicrLxyic/YquuJP29aaHumvJGGwILc2jssjwVwpkn8c1M2+a3b+uicT2iEmYWJgAEeMljE04cWIhXhU1P+p0RWsKyeaHSTotsKICFuRl0nfVHo16f/zy0t+wiy07oaAAonGYC+yk7senvVvjt7DbsfVFvPzx3Wj5f/xFwlXndyCV4GHMTN0LvIFPW9L6ZAAZqgVWF3ETFHi9Glom4yHjkNOw7rCtCamQE7uerbJ7R2r+CuuI0RIWGIiZDCtWjVflJuB0ajrvZT5vfMqjMQVK6BCzqUJQSicjUYpUiLYfkYQxu3gjFnUxZ836rcpCUVgKmJh/3Y9NQ9uxgFfKTbiM0/C6ynzYdrRU6A2CkmYi7FY7otGK1W3us7BFiwm4hIacckvwCaNq6yRYk4FpIMIJDbiFNxgJMPu5eCUZw8BVEP656dl5lThLSJSxQV4SUyEikFrdkuqpDcVoUQkNjkCFVtTrw0rAR6JZzB2nFqpIDgBxlGbEIC49HbrXqMaAmLxGpKrewawqScTssAgnZ5Zpv/TBSZMbdQnh0GjQOqYaeMrAyPIoJw62EHJRL8lFQyaIkeh8WvLsHsVkJuBpyE8klyvNr8pCY2uQWldZYa0EfbBkehIcgODgYwcEhiEhX6P804zauBAcjJCIdz7bz6W2DprCQPYpB2K0E5JRLkF9Q2eL4UacSOUnpUIRUCiIjU6EeUgykmXG4FR6tIUb0zBcDA+UCgSAveYDo6BQUqqRTVU4S0koY1OTfR2xaWWM+V+Uj6XYowu9mo1nK6oTF08cpyHzKgpFmIDo8BhkaapPWHNYps6bayVGTAKCuGGlRoQiNyUDzlKxBXmKq+hajl4ZhRLcc3FGVTZ+awEqQEtoQn1cQk6WIi6qsGEV8hqZAojpuEzTXZ026N4Ujb7TVYEGDvVUwdsKY16SIa+L/2pxYXLkajUflDEpTryP4SiQynjY04Irbtsa9ZuRlGYgNC0e8pkLVahsqEDw7iUVBwjWEBAcj5FYaFOl+F1eCgxF8JRrN070GBcm3ERaRgOxydefKJQ8Rc/MGQu9konlKVCEnKQ0lTA3y78cirXHi1AB3fdbqZw2wTx8jJfMpWEaKjOhwxGSo5g5HXmmZ67XrCJ2yc7fVFxP06mUDIStBUVFDsLW3Phrgmmu0jNH6uNGdV83m6/KHuH0lWFmTGv8a50r97dMWWr24ZjJPYoHbTOy9X4rCyAB4ikdia5SmiZdFWdxJrJogRp8x/lD4BiwAAHVFSURBVAg6swVz5/jgvZnu6Oe2CiFxJ/DB5BlY+P4suPUbhS3KPjj7Z0sQunM+fP55HdnFidg/VQxXv3MoYAGwBQjZ7otVgWFIvPMzVo0UY/TG65DISxB7fAXGOYoxKeA0Di/xxFve8/CW00BMD8xQGJrJxMkFbpi59z5KCyMR4CnGyK1RqGKLEX1kOcY5ijHR/yB2vT0Sw92HYuEJCdiCEGz3XYXAsETc+XkVRopHY+P1EpS2QmdAhuivfeC1LghJOek4v2oU+ntuw03lBFKXuA8+fj8iV16D1CNz4fb298hSK+KAoHNPvFL0A5ZM88XhVDkg7Iwe1unYN3cqVgblo74kFsdXjIOjeBICTh/GEs+34D3vLTgNnI7ADO1RxZaEYud8H/zzejaKE/djqtgVfucKFIVdFo2vfbywLigJOennsWpUf3huu4nGuS8Jh+Z5YvHhBORlXMAGv0A8VA7FSuNx+pM34Nh7NLaGN6w0yhG1ezqmbIlGvXE5Ln3ohn6vj8Mbb83EjpsKe8miv4aP1zoEJeUg/fwqjOrviW03SzQvwtEKGeoSsc/HDz/mylGTegRz3d7G95mlyJeYwqojC7a2EjJZOarqpIg//QnecOyN0VvDUcPqiDVWprsPgRleMk7D/y2agmk778GyuxkEADq83BGxX+1BnKgzOghaYYNm1CFxnw/8fsyFvCYVR+a64e3vs8DqiB/1CGFREnscK8Y5QjwpAKcPL4HnW96Y95YTBk4PxLOQ0hojrasRCghFl/ww3Hk4PEYOhH2/adgbVwG2OBpHlo+Do3gi/A/uwtsjh8N96EKckLAoCNkO31WBCEu8g59XjYR49EZc51oJKmFyw7F/8VDY9ffG/lNb8caQYZg4wR39xOOx7Xa58izuHFagWWaNaKtJgMLuoTsx3+efuJ5djMT9UyF29cO5Ajmk8afxyRuO6D16K56lFIdsrL41QWCKjpXXsGn2ZHgfyIJ1V8XlI5OXhLi9YwMuVlqio6bZRVt91m1+QFPeyKGlBku05IB2/1NdJcpllagHob6yHDLZE9QwLGfcti3uVUR7RhWSDs2D5+LDSMjLwIUNfghsKFRoow3VEKBzz1dQ9MMSTPM9DEW694B1+j7MnboSQfnKccujsHv6FGyJrodx+SV86NYPr497A2/N3IGbVQwyTy6A28y9uF9aiMgAT4hHbkVUFYvi6CNYPs4R4on+OLjrbYwc7o6hC09AoioGuOszoIefmVyE71+MoXb94b3/FLa+MQTDJk6Aez8xxm+7jXJw5JXWub5Yi47KMTll12afZxLrD1uMO/eywHQYAncX4/bXRwNa5xqtY0haHTe68krTfF334Dh2BsYgr0wGmUyG0riD8J06E+svFkNI+tpHY4Tqh+o+kZYhpwefDaMOLlspqZ6I6mNp/QATctocT/VERPSEjk4xabLvi6H8bzzIuIMbrQ8rIDkR1d7bRE6Gnch97VX6rZ6I6uNpk5MxOfjdpBrO/hkq+NGLHD2/pWyGiKiekr8YQ527L6CzFQwVnZ5L49ZFK/emMZT91RgyMnSmzfH1RPJH9MUII7JwXU7nMmuJSEb/nmtNxiO/oEdyIvmDz2hYBxfaqhiUYtcPIBOnzRRfT0RMNn011ohMBy6nq8VSSrkeQvdLCuj03HG0Llq5r4rJpq/GGJGh82aKr9dXZyLp5fdJ3G8FhTXsIaqMoFX9jMhmzk9UyNRS5OoB5LQ2WmFTppBO7dhPKQqDqyFP3UFDTfrS6ttK2Wpv0+q+puT++a8kJyL5oy9ohJEFuS4/RwpT/JvmWhvTyC8ead7LyBTQj16O5PlttmKPYn0yfTGmM3VfcJYqSEqX3xdTvxVhz/b5VUason5GNjTnp0JiqJIi1gwih4XnSKo8XnFxEdkaNu5JYwq+JQ9jC5r9cyUREdUnbafXOzbuTa2/9ykNMu5Ny0KV+kgv0/vifrSi0VgUsaofGdnMoZ8Km+2ibDyupwy1katpgNNailYYnApP7aD9KfVETD5942FCtosvU01D90wBfethTBazf6ZKIp2x1qI+qJ6Str9OprYL6ZxyeyyTf5Q+XBNMT6k1NlChNpJWD3CitQoFiSk8RTv2p1B9C+JHHTk9+mIEGVm40vJzmaQIqblkbTySvngkJ9IZI/rnS33sehpgZEtT98WSRE5UkfQdzbI3JGPXbZRYT8Rkf0VjjUxp4PKrVCxNoesh96mk4DTNHbeOGlP2KxpjZEjOz2oXN7WRq6mvoQ2N3xJCv9UTVaZ+RzNshWTk4k/363XlsG6ZVWsnV01iCn4kL0dP+lZRCKk++Qsa07k7LThbQUQMFXzrQcYWs0kZzjpl07smUCWFrRCTcb81FKkMYqbwOM2bc5ByNIafjvqsNm9oQDVvmCKOGkxET47SFJPGPddMkQ7/V/5A00wsyStIaTSdcdvWuFenMmINDXJYSOcaCxUtsjVU7rluBxsS0ZOjU8jk2Z5rOaXuGEomfVdTY7qvpr6m7vT5r/Jndaij63ZSlON6uvfpIDLuvYxCa4lI/oA+G9aBXLYmkWK6Xk8DTJyU8jCU/dVYMjIdSMuvFpM05TqF3Jdo0FtHfdblZ1VqI2l1X0OyGb+FQhSJSt/NsCWhkQv536/nzCuNc31xCoeOOmTntE/LqLnxAdmLzMj94xN09uwp2rP4dXqp06s051CSzjqhvz4a0DXXaBpDUtuGuNGVV+rzdX3yRbqYppT/aSR96tKRLEd9TvE1rbCPRD1C9UXTtYUWIIR46XGEn/KDfW4ojuw6imgpi9rqGvVvkQAAATqadYCBUS8Mce0GIQAjsSPsRECPISNgKwIgsodddwOUS6Ugzv6lCD4dAmNnV3QTAIAIr60OhSTvGKabVSH0bAjyHl7EnoAABATswqlqT/hvmw8XUwDCjuhoJoS5kyc8exkBMIO4Tw8IymUoI0AoXorj4afgZ5+L0CO7cDRaCra2GjWs4kqNqZEAFq4eGNXVEv09PDHIJBxnQ/Lw8OIeBAQEIGDXKVR7+mPbfBeY6q1zGS589xNyHQfDuWEPUYdh8JouRunFHxEsE8FWbIfsL6di9ILPcCbFEF4bP0J/UXNLtxRhx44wE5rDydMTClOI0aeHAOWyMmh8Zac0GKdDjOHs2k1xu0P0GlaHSpB3bDrMyi7gu59y4TjY+dn+zg7DvDBdXIqLPwZDVhGCA8cyMXDsOFgqj5v0sodNk32MAnNzxZ4yJfKsTOTWNd7iFPXqhR7IR1aW4n5b2YXv8FOuIwY3GgvDvKZDXHoRPwbLGjtqoBUyiGzFsMv+ElNHL8BnZ1Jg6LURH2kzuMAc5k0b64g1jaj2ARH6L1qKCVVnERiUBxYMHp6Owcuzx6Nja2ygisgWYrtsfDl1NBZ8dgYphl7Y+FF/aNFQB0J07GgGobkTPD17QRFSfdBDUA5ZGQG6YkTvfGkY1gavewxBZyFgNuA97Fk5EgZJ4bhVykJgagojgQVcPUahq2V/eHgOgkn4WYTkPcTFPQEICAjArlPV8PTfhvkupo2qcCAwNYWJsCuGT/OArQjo0M8HW32dQElhCCsq1ZHDys84ZFaFqyZJg0/j/9s776iorvXvf5kZehFQiIhKEcdobAgxih00XG+sSRSvRsUIhhQsV00UbyyoIZoXTUxyFY0tSkzINf6skKhRLDQb0gSDSJFeBpTOnPO8f8zQhik0EzX7s5ZryczZez/7qXvO7D0nTNcRzrJECNErq3C5OBuHZhgCEMDY2KjJlghN+aUdOQEGGOX7EUZnH8aO4/ngwSEj5Cy0Z85CL6WVRUN+bg+Vl9Xk4JZUXm6j/TX6bUf9XpFyhO0+hLRB4zGhMVHBtiFRPQUdakSK9LQs1DZssRHBzq4XkJOO9CoAQjF8Dl9BsK8tsi4fwLaDUZDwNaiSFU7o6+tAYOIMtzEWMB3gBvfB5i2/MteUn9toZwj0oa8nhIXLdLjJAhWem7wxlOIRHp4PLTVxpbTWW7yseo6aZFern7agA+sBg2Ft/hKGzN+NGxkJOOY9EHoa8kSb56MEjbVG2RjmfAf8RkNcKavXr7yBN/qJAL4YYZ8swv97NAHbD67CUN126Me8hYe2mXb3IBBVIXaXN3wO5GDIuz5wtRKoSMAytBQ3gmkJoNWshRYEAqD+Yewq++eKUVBUjdKSJgW2Hv4JCouroNt/BlavXYu19f/WLMe0fiIAWgr70bQgFGoBxMv6EohQFbsL3j4HkDPkXfi4WkHQXMRm8E8KUVyli/4zVjeOtXYt1iyfhn6iNs6Zy0fmo0rwtbVNfldVBFsbawhqSyF5DPRefATn93jAOHwrZg/rB5dlJ5Cp5BvbVtGw97P+byFkqmihVQAAV1yAoupSlEhavs/lZ+JRJY/a2iabR0W2sLEWoLZUAklGMv4oBYQiNe6m1dw2Oq9NwesvpeDirw/BAai5l4wMMzdMHWcEgEN+5iNU8rVoPqQNrAW1KJU8bvEhj8tquwyC3otx5PweeBiHY+vsYejnsgwnVCpcS8HeGnxNKYp9AAKr2fB5yxiXgvYjoSIGPz4YiHmOOu3SQQsEvbH4yHns8TBG+NbZGNbPBctOZCrZ9tE6FGXXEgqhBQJPmn3kMd+yvdp4UYoAFvZ2MNXiIK2TvdK8Rx5PCotRpdsfM1Y3yQ9r12D5tH7t/FAhQp9X+sIQdaipzNMQw8os0lLm5m+rykkciguKUF1aAiUhCcjt0TB/jfmFb3NOAACh/QKsmKWHszv2IL46EUcvvYQ5U8wVL5OhMT+3HU05WOHqNtu/PX7bVr9vBpeFZFmiUl6cn4IONaOD16a8jpdSLuLXhxyAGtxLzoCZ21SMMwIAAURVsdjl7YMDOUPwro8rrNQVTiVoys9ts7NyRH1eQV9DoK6mBqQyruS0EFn1HDXJrq5t29CCblcxXh3rBrexTrDr0vTOUOfNpyWtrDUtxuiY36iLK/kFSs4X8MgO8cWS/TWY/W0QFveR66jN+uk4qrxBA+U4t2I6/Ipn4ZvNc+FkWe/dqozTVtT0L3wJva31kR/6E34tqb+eR3FoEIL/MEQPKwMkh+zHRUljb1xaKM7GKdmcrED5uRWY7leMWd9sxlwny4Zkq2pWApMesDJIRsj+i2gcjkNa6Fm0YrjmCHugbx8TcIk3cath3xOP2ppaCHoOgaMVISvhEXp57sLF5ESc9huMzN2+2Hqhpnk/9QhFEDZ1RDlE7Vs6CV/qDWv9fIT+9Csa1V6M0KBgpL7UF31MOCTevCXfCwqAr0VNrQA9hziiR7duMBdVI+FWLJpLS+AVi4scgcUM7NztCd2LX2LzzkB8dkIfH4cegZetEIAQPfr2gQmXiJuNygJfW4NaQU8McbRq4dha5m2XgctKwKNenth1MRmJp/0wOHM3fLdeUGj/tDHC6z6eECcexA7/YygbNwf2QrRLBy3gspDwqBc8d11EcuJp+A3OxG7frbhQ8xT8p4d6H7HSKGzrqCwsQlXvoRj2krIOBTDpYQWD5BDsb54gEHo2rlW/PiGDQE18pq6yGrxlfwzs1UtDDCuTSb3MqnOSEC/1toZ+fih+akyE4ItDERSc0vIDksb80nLs1tEF7svfw+B7+/C5/7e4/co7mGCgeI0cgUmH8rMy2paD227/jvptm9trmaObuQjVCbcQq5BoiOefig4BQCgSKvngT5CFuwAWM3Zit6cuLn65GTsDP8MJ/Y8ResQLtkIA5eewYrofimd9g81zndCe5YCm/Nw2OzdCzQMV1bwl+g/sgSqVcaUCNXPUJLu6tp2F6jyhgjbJ1N5a8/T9RhFpShC8l/4fTN7/Dl++ZQUBeEgKilHaVv10Asp1ogm+DA/S8lGemYKH5dXICj+NyFwOlWW5iI1OAMCB42TJoN61OZ4HqPFv2bSoyV0o2f95ntPQfxYmL5qNXnlH8N6by/HfkF8QHPghPENEcHEwwaRFc2GXHgSP8fPg/10Ijh8OgNcnETC0FwE8B05K4JskESK5nDyPsgdpyC/PRMrDclRnheN0ZC64yjLkxkYjoVwmsrSuSSQbTsKiuXZID/LA+Hn++C7kOA4HeOGTCEPYi9o4Z3TBlKU+GCQ5jp0HUmSn+Pk8nL+chVFLP8AYXQ5ZIdsRdLsS0LPFP/0+xSxbA+jqKf/IJbS0RnedbET9dhv5BfdwdvchXC+WojDrIYqeVIPnOEiJb3JXikAg8E1s1owuk7Fodi/kHXkPby7/L0J+CUbgh54IEbnAwXwKlvoMguT4ThxIkR0h5vPO43LWKCz9YAz0LaZi/pRuSNu/An5nMlGLGmTcTkABJ0F2Rh7KKgHwHHhqstCVnMPaDVmY+eVWrPFdgU3bN2H+0Pov3YAuU5bCZ5AEx3cegGxIHnnnLyNr1FJ8MEa34bp6BO2QgcsKwfag26iEHmz/6YdPZ9nCQFcPWgI96OkCj3NzUFIYjWtxlQB4cDzJCiBkfan2NQCt6UOOyHExlowpxg/HCVOndG14XaMOKm/g64VT8C//X2WHfRXhshCyPQgyl/on/D6dBVsDXehpafaflvDgOCmIb7Igl00YPM8DXdT7iG5bc0TDS5UoK5WXtOp47D/6AP/4dBlG6tS3kKJ5yC7CXLt0BHmMxzz/7xBy/DACvD5BhKE9RJr0VQ9fiIx0+QFEPgenTsVhoM8HcNXTFMPy9mplbpo71eekrDGLMLtXHo689yaW/zcEvwQH4kPPEIhcHCAEwHM8qEGfmmVrc06QIxrgjeVT6vDzl4kY+Y6T0jvAMgzV52cldaMFinHzYJTaHAyOAyefAzTZHwBqa1FHtaitkUug0W877vfNEFhg6vwp6Ja2Hyv8ziCzFqjJuI2EAg6S7AzklWl1XIcAONlF8lwnhKV1d+hkR+G32/kouHcWuw9dR7G0EFkPi/CkGpCcW4sNWTPx5dY18F2xCds3zUd9OubLHiAtvxyZKQ9RXp2F8NORyOUqUZYbi+jGwqn0w0s9GvOzlvpaqxwehRnpkEUqj5xTpxA30AcfuOqojStltV7dHG/ku6qVXZKnum10wmMUn98Ej39twaUmH5ZaUFOLOqpDTb1fNkN9nmjrfGQ2a47GWoOWYwAd8ZvH6uMKaFGvUXkTn7+7Ftf7rMHBrW4wk0mA0JPnkdtG/XQKipuwWwdH2SeW0vDuxmTWZyx57b5E33vakKn9FNoemUfJZ9aTe3chCW1m0NaTCVSedIo2TLYmocie3tp2muIzYumXzdOot1BE9jMD6P/uPqSbIevpn9ZCEtnNpIDQ+/RQZf+lRFRBScG+5Cq2IOMu1uQ8N5CuFtRvQK+gpKO+5OpgRro6JtR71BI6lFBBRKUUd9yP3CyFpC2eQ4HnEinl6gFa6mJKAgNH8tp3jbKyTtDS4d3J2KwPjfXaTZe+9yQbU3ua8nkYhR9bSxOthCS0dqd1x25SUcNwSXTU15UczHRJx6Q3jVpyiBIqqB1zTqUaqqP0U+tompMjjZ/jTe+/O598doRTPkdEVEPX/Vyoz9CJ5PnxRvJfs4SWBFwk1efWHtO1LZOot4kJWTvOou2XztFqp740buFGOnrpCh33cyNLoTaJ5wTSucQUunpgKbmYCsjA0Yv2XctW7ExGRRIF+7qS2MKYulg709zAq9Sg9rp0OrVuGjk5jqc53u/Tu/N9aEd4fsPBFU4SQ996jiAbM1OydZ5KH21cTCPsRtLc/xykyAcJdHrDZOohFJHtjK10NqWauOwf6B0bXdICCFpaJNDWIxPLvjTO5wjdk59pqUs/ReumOZHj+Dnk/f67NN9nB4XLlKWUtspQc92PXPoMpYmeH9NG/zW0ZEkAXczjiEhKqQf/RWKzriSeEUhRT8op6fQGmtxDSCLbGbT17E2NvpbNaeojpZnskl8W0xT/uy0O3anTAZd9kGZ2N6VulqPIP16xpeyQop9LHxo60ZM+3uhPa5YsoYCL9Yes1PjPjSLFnqg07jj5uVmSUFtMcwLPUWLKVTqw1IVMBQbk6LWPrmVzan2kXfFS8Qed2vIOjXt1LE33/JCWen9Am08/oCoi4opv07G1E8lKKCRr93V07GZRgy9WJB0lX1cHMtPVIZPeo2jJoQSqaI2+iKjuzqc0RMeKRsz2og9X/Js+fGcmefznNGU0nPhTF8NEpEZmoqoWuZPLVpGTtkdSKRFVJAWTr6uYLIy7kLXzXAq8WiDX52naMLkHCUW2NGPrWUqp1iBbaVz7coKc6vDl5DR1L2WrDj85qvJzy7krRzFuVOdgqkqmM+vdqbtQSDYzttLJhMdEauxfl3aR/rt0NHUVCMhywmoK+jmSHknV57aO+r1SOAnFfOtJI2zMyNTWmaZ+tJEWj7CjkXP/Qwcjczusw6rkM7TevTsJhTY0Y+tJSnhMRI+v0ZZJvcnExJocZ22nS+dWk1PfcbRw41G6UVRH2T+8Qza6WgSAtLQEpK1nQpZ9x5HPkXtUw2XTiaXDqbuxGfUZ60W7L31PnjamZD/lcwoLP0ZrJ1qRUGhN7uuO0c2GwtkStfk5l1NtZ2XU3aFPh+iQ1YjZ5PXhCvr3h+/QTI//0Gl5oKqMK1W1XuUct1NkqQbZs7PUtJVS6reT6aXuU2hPmrJjwxWUfOEAbZxmQyItIXV3XU17zsST4uOfOns+ylBZa7hiuq1sDOLa6Tfb6fx1DXH1h2K9LqOItYNJT2BKTnNX0SeffEKffPIxLV84ll7+1zF60lb9dAJaRKp3MDIYfxV89in4Bz3Bm56O4IskKCuvRLkkB3d/Ooxc71B8PanFPR+GUmpxze8D3PIKwjLZfhKGWtTrSxq7Hs4jT2JqxC1sdlR5y+xvBo/MPZ7YavEVgt6S3S9ivEjwyD7lj6Anb8LTkUeRpAzlleWQ5NzFT4dz4R36NZ65dCyNxXrnkTg5NQK3Njuq+TaF8fR4Dv2mE2nfthAG42nCZ+OI73Lctf8HBtsPwNDhozDOdRLeeGsW3J1fxSuqvwdkNINHccRenOn6DhYoWSgyFGmDvpR9O/t3gytHiaQafHkEdp+3wjtvsIX1iwiffQS+y+/C/h+DYT9gKIaPGgfXSW/grVnucH71FTXbMp4FWKD+VTzfftNx2J1rxrMHn4+TH7liQXANnKa+gZFiS+hzZchKy0e36eux6e0+7E5EK+Ald3EpsQtGjbZt8QhsRktao6/q3z/CgH+cwT/OJeG/E1Wd3Ps7IEWc/wi8uvk+urzkgJnfnsPu6fKf6WS8UPD5J/GR6wIE1zhh6hsjIbbUB1eWhbT8bpi+fhPe7vMMZuPq3/HRgH/gzD/OIem/E/F3jtS/iufSbzoRtrhmPKPUIDv6DE5djkdOpRBmNsMwafo/MKirhjuKDMZToib1PA79fAXpZVKITG0xfvYiuNnLT07+DZFm/Io9wQno9voCzHa2YAvrF5mabESfOYXL8TmoFJrBZtgkTP/HIDyT6bgmFecP/Ywr6WWQikxhO342FrnZ4+8bqX8hz5PfdDJscc1gMBgMBoPBYHQS7GYDg8FgMBgMBoPRSXRscV2djfh7+ezIQBvhn6QhPrX0udNbZ8pdkXEHd7OU/V4y41miM23eLvgnSItPRelfJsBzzrOkv4oM3Lmb1eQJkS84irrvyPw70vZvAY8nafFIbY2jcxLcj3+ICsXXG6hAxp27UFueFG3LeKo8j+uF9i2u+VLcOfpvuDk4YPyWa7IHEjA0w2Xh90BPDLd7BR57k9X+qP4zRWfLzadj74KRcPE+jLy/QXLiM/ZiVr8hmLM3+fmJlc62eZvhkPV7IDyH2+EVj71I/vMFeM551vTHI33vAox08cbhFz7olem+I/PvSNsXHy7rdwR6DofdKx7Yq9bROWT8HogFw+wweHEwMlo8xlQGn74XC0a6wPtwnpKbCspsy3iqPKfrhfYtrgWmcJy7AtPF9FQfH9l6eBTeuokHKoLlmUHYC66+3hjX9VnRWyvpsNwK9hHYYsn3kYjYtxDd2+eBzxE88kJPIcn5E2xb/PLzc6imwzbvKEL0cvWF97iuTZ7QyGg9z5r+BLBd8j0iI/Zh4TMS9HzhLdx8KkVDme7bNv/msrWtbT1Pb35t5enWZ2EvV/h6j0NXjY4uhI3rR1g0xkz28FcVCGyX4PvICOxbqOzXb5TZlvFUeU7XC+0XVWACY0Plj97+06mIxlfrD+H+8/ApUmgKU5NnRG9toSNyK7GPoY0jhvRS9YNnLxKVSOTfwKGgubB53k5Id8TmnYIQpqYm+CsleL55xvRnaAPHIb1U/szhn0sFor9aj0NPrWgo0X2r569Etla3rUdJH38VSvJ/ZyM0NUXrUpUQhsaGGhY+hrBxHALV5UmJbRlPledxvaDex9QigJYS75IW30f0pYu4fCMNpc0+qfIofRCN8KuxyCwrRk6uih1PlZmITy4EV52DuzFJSLp1HmGhoQi7moxSHuBybuHX0FCE/hqFh5UAXxiFXQvfQWBMOmJ/C8OlhELZVznSYtyPvoSLl28grbkg4EsfIDr8KmIzy1Cck6tm71VLaguSEXn5MqJTJWjWq5rxAEBakoqY8Cu4k1Wl+JbGtg3wT/AwMQ1PeA6S1ChciU5V0LE6/VciMz4ZhVw1cu7GILlE/qaGsTsqt0r7VGcjLknxa7dK5MRfx+Urt5DxpOk7FciMT0ExD9TmJyIiIgkFLRK1qrZy+FzEng9DaGgYriaXggeHnFu/IjQ0FL9GPURl/XUVmYhPKQaPWuQnRiAiqUDNlghVcvHIja3320d41ed9DHvc3G9lVCIr7h7yeYArTcPNiDvIrHfG2nwkRVzD3Rwl+8wqcxB//TKu3MpAs6k2i51k1JsY4CBJu4mrV6KQXKB5Y4pamwOozInH9ctXcCvjiZKvTZuiftzKzHgkF3KozrmLmOSSxniSliA1JhxX7mRBqQSq5t8m2ymnIjsO165E4l5BDWrz05D+pKktleegprRGN/yTh0hMewKekyA16gqiU0tlc2+tj0KNDtAB/cnhS+7hSlgoQkNDERp2DSllPIAnSL3+K0JDw3AtpVR2oZr4V27bamTHJTX/arfNfbRElc4rMuORIgtOJEZEIKk+afCFiNq1EO8ExiA99jeEXUpAIa8ufjTklqao1b3i/JXURFWytWjbjvlBiuL70bh08TJupMl9rgElsijjmarPUpSkxiD8yh0oT1XK7aZVv3AhKQrvRSEqMa/FXvbq7DgkKe5BUGtb2V7utJtXcSUqGUrSXTNU12llVCA77hquRN5DQU0t8tPS8aSzckWzWqXchvWo9Ld61Ni0Oe2oe4rrBb4UD6LDcTU2E2XFOWh013b03Wq520YHFteKcEg7uhAj3voKd4vyEBHgDvHoTYisBIBaxO3yhO8PWZBWJ+HAvBF4+7v05oWPL0DUgWWY4CDGpI17sO3t0XAZOQIfRxoh//slmO69H0lSQGjeC5YpuzBv2r8RklOH0pxi6JsZgedrUFFairJKKbi0o1g44i18dbcIeREBcBePxiaZIKiN2wVP3x+QJa1G0oF5GPH2d0hvTQXmC3F56wJ4/r8LyCiIw9fTxHD2PYlcHmrHAyoRv3c+3L32IzY7Faf9fBF0v9GA6ts2XIWsK1/Da7gNBsz9GsGbXsew1yZh4sj+ELv643qZ7Brl+udREHUAyyY4QDxpI/ZsexujXUZi+KIjKFA7dmfIzbe0T3kR7hz7GK879MHYTVcakhqfG4bN3isRFB6HGz+txGjxWKy7UIj8mMNYPsEB4skBOLZ/CdzfmIv5bwzFoBlBSJWLo7xtcfPFjcAcvXvm4/sl0+G9PwlSCGHeyxIpu+Zh2r9DkFNXiJjDyzHBQYzJAcewf4k73pg7H28MHYQZQaktClGhWrkEMO/dU63fltw8ipUTxeg7biNCjm/AvDmeePetkeg/YiXCbh7BB1NmYtF7szCi/xhsaNArj9ywzfBeGYTwuBv4aeVoiMeuw4XCPCWxMxyLjhQDpVH40tMDa0LikZlyCivHDIC7/yV5sVVEvc3B5yJsszdWBoUj7sZPWDlajLHrLqBYWV9qxuULonBg2QQ4iCdh455teHu0C0YOX4QjxUBl/F7Md/fC/thspJ72g2/Q/Sa6VzX//DbYTgWViTjk8wbmb/sViclXsGOOI+wGzMTeZF6DLRucULNuuCxc+doLw20GYO7Xwdj0+jC8NmkiRvYXw9X/Oso0+SgH1TqQD9Qu/SkYUGDYFbrJ/8XiqdOx9bYpehgKABjgJaMY7Ay8CZG5gcr4V25bT+y5dAwfv+6APmM34Yo86NvWh8w/mqFC54X5MTi8fAIcxJMRcGw/lri/gbnz38DQQTMQlMqBL81Bsb4ZjHgeNRWlKJU8QrSK+GlVbpGjWvc8JHcU56+8JtYqylZWjiKFtnxhG+dXVgkpl4ajC0fgra/uoigvAgHuYozeFClfhCmX5Zmuz5Xx2DvfHV77Y5Gdehp+vkFonqo02I3ycdbXBY4ubhg9yBb9p3+Fm+UAL7mDYx+/Doc+Y7Gp3lHV2lZGadSX8PRYg5D4TKScWokxA9zhf0n+QaIZquq04nUyKhMPweeN+dj2ayKSr+zAHEc7DJi5F8l8x3OFDE21itPob1ATy83h2173eEnL9UJtHHZ5+uKHLCmqkw5g3oi38V16bdv7brXc7YTazWM6OFWPzOb+j6qIiKT36LPXDMhpUzzVEVFdzFoaqDeU1t+pI6qJoFUDh9InUVVERMTlBdOWrxOpTrFLLoN2jtch/UHL6LcCCSVeCKO7xbWUtGU46fVbRddrZJfVXF9F/fRH0ud/SImIo5xv3EjP2ovOVRMRSeneZ6+RgdMmipcJQmsH6tHQ9XeojmooYtVAGvpJlExmLo+Ct3xNiS0EUYSj3B88yMH9W8rgiIjqKOGLcWTeYyGdKFc3HlHFtdU02H4RnZTIuyo/Q4uttenl1ZFUo1ZWRWooYlU/0rZypQ1hj6iOKihp30yyFuqQ08a7VKdO/8RRxs7xpKM/iJb9VkCSxAsUdreAEtWM3XlyK9qHiLhc+tZNl0xm/0QVRERcPh2bN4HWRMkNzGXQznE6pO24nu7USenBF6NIx8SZlp1MoxoiKv3fPLLUHU1fPJBqaFsvgxxpEm0Zrkf9Vl0n2dU1dH1VP9If+Tn9ISUi6QP6YpQOmTgvo5NpNURUSv+bZ0m6o7+gB1KFvkiDXCRtld/qGoygteG5JCWimtuf0lDtLjTyk9/oUR0R1d2hT4fqkr3vJaomIi7/GM2bsIYap7qTxulok+P6O1SnNHaK6dx7Yuq/PFzm70RUcW0l9dexojk/5hHXMJf699TZnKP8Y/Nowpooue44ytg5jnS0HeU+1hSJxnG5jJ00XkefBi37jQokiXQh7C4VP7lGqwfb06JGAejMYmvSfnk1RdZomH+bbKfIE/p9+UByXH1d5o9EVBOxil7WHUhrY+paZctW66Ymglb10yYr1w0U9qiOqCKJ9s20JqGOE228W6fRR9XqoKID+pO3aKAunja/qk/Wi05Sqexqyjn4Ia0OfaIhx6qwLcdR7rdupGsym36qoHb20VRA9TqXPviCRumYkPOykyRzh//RPEtdGv3FA5ISEZfzDbnpWZNXfVJSFj+Fua3PLRp0T6QwfzU1sYVsim2J2jw/6b3P6DUDJ9okUzbFrB1IekPl81AjSzOU6egvqc8VdG31YLJfdJIaU9VistZ+mVbLHF2N3WRz17GeRrtiiklK5RS/bxbZauuSs3+cTP+535KbrgnNrle2JttKztF74v60PLwh29G1lf1Jx2oO/ZinkGXV1mkFnvxOywc60urrDVmJIla9TLoD15IsLXUgVzSO0or8psnf1NlUkbbXPcX1Qk3EKho49BOSuStHecFb6OvEunb03Ra5207n3bkWiuFz+AqCfW2RdfkAth2MgoSvQVU1D4isIbbJwI5pY7Hws+NI1PbAuo8GtHyEtUAf+joCmDi7YYyFKQa4uWOweVtFFELscxhXgn1hm3UZB7YdRJSER01VNXiIYC22QcaOaRi78DMcT9SGx7qPMKCFIIpIEHosDLqOzvIN9SK8suoyirMPYYahuvHKEbb7ENIGjccEU3lXenawtarffKuurSIC6OvrQWjhgulu1hDBAP09N8F7KCE+PBz5Wmr0DwH09XUgMHGG2xgLmA5wg/tgC7yscuzOlFsJAmMYGzXZU1R5GSfCsnH/TCACAgIQsC0YVe4b4b/ACfoQwsjIEELjoXB3t4MOAENxX/QSlKG0hDS0bSNCIxgZCmE81B3udjoADCHu2wuCslKUtDi8okEujQhgZGgALR07DHPuDiEAHbEDbERAr2GjYC0CILKFTQ8tlEkkIACVl08gLPs+zgQGICAgANuCq+C+0R8LnPSVxw7OYt+PWXAY4tiwV9PgNQ/MEBfhzA+hkH+5L0eTzStx+UQYsu+fQWBAAAICtiG4yh0b/RfASVHRJac1jivQ14eOwATObmNgYToAbu6DofPbbhxKG4TxjQLAztYKDRKom3+bbKdA2VnsOfoEr73u1PCYZGGXLjBqdeppg24E+tDXE8LCZTrcrEWAQX94bvLGUIpHeLjmnzVVp4PysA7oTxHRACz2mYjKE0EIyeYB7j6ORb+E2a5GGuNfmW3NBQIYGxs12afanj6aCqhe50IjIxgKjTHU3R0ydxCjby8BykpLlJ9lUxY/eldanVs06R5QmH9rayLQsi3aPj+h2AeHrwTD1zYLlw9sw8EoCfiaKlTzbZBFmY7+ivpcHobdh9IwaPwENKYqWzSmKs01QWj1KtyGmUMIQwx8NxD/Hq2F+CtXUcQDAmNjNC1PmmxbcnoffsxywBDHhmyH1zxmQFx0Bj+ENs+yatdJCpSd3YOjT17D604NWQlduhi1ertBm+JdA+r9TZ1NFWl73VNcL4isxbDJ2IFpYxfis+OJ0PZYh48GiNrRd1vkbjuttVMrEEBUFYtd3j44kDME7/q4wkogD3NBbyw+ch57PIwRvnU2hvVzwbITmcq/rlWyj7utCERViN3lDZ8DORjyrg9crQTyhCNA78VHcH6PB4zDt2L2sH5wWXYCmUoFaQJXjIKiapSWyI2tgMrxuCwk/1EKCEUqFa2ybWsQ9cErfQ2BuhrUkBr9A0oVq3Lspy03tBr3vQHgnxSiuEoX/Wesxtq1axv+rVk+Df1ETfbI1bcWCqEFAk+a27YNLYVzBFoQCrUA4pXOTZ1crUGxPbQE0Go2khYEAshPpfN4UliMKt3+mLG6cZ5r167B8mn9ZIVQoTsuPxOPKnnU1jbZYyayhY21ALWlEjxumkE02Zx/gsLiKuj2n4HVTfS8ds1yTFNQdGvHbS4uh6zkP1AKIUTKBdAw/7bZrilczgOkl4ugo90yRlpFG3SjDFGfVyAL4xoNsqrTgQNyO6Q/RQSwmu2Dt4wvIWh/AipifsSDgfPgKP+5G03xr0yTWlpazV5vTx8NaNK5wljQEkLmDmo0rDBg63OLJt+V0Wz+bamJim1lL7RtfgIRqmJ3wdvnAHKGvAsfVys0lIe2yKLWKK1Dtd1bV5+5rGTIUpVyZbfebnIEFrC3M4UWJ0Ud5LptmKcm23LIz3yESr4WzdOdDawFtSiVPFZYqGmq0/VwyHmQjnKRDtqXltoa7xrQ4G+qbdqSttU92d9N2wh6L8aR83vgYRyOrbOHoZ/LMpyQO0lb+26L3G1Fqbu0i/JzWDHdD8WzvsHmuU6wrLceyQp3wqNe8Nx1EcmJp+E3OBO7fbfiQo1CHyoQioRKiiSBlEZ/Oc6tmA6/4ln4ZvNcODUXBFkJj9DLcxcuJifitN9gZO72xVZNgghfQm9rfeSH/oRfS+pf5FEcGoTglDLV42mZo5u5CNUJtxCrMATxvAZZVUDUJFjrUFnNw7L/QPSoUqN/pagZ+2nIrQaBSQ9YGSQjZP9FSBpe5ZAWehZxyvbbNaFtbYWQuZKCnETKC0kHaZvfakIAkx5WMEgOwf6LjTMFl4bQs3FKD+4Je/RFHxMOiTdvNR5w4WtRUytAzyGOsGoa/ZpsLjBBDysDJIfsR/PhQ3FWQdFtGrcBLZh3M4eoOgG3WgoAvh3zby1apmbogke4GfVQpR+otWUbdFMPUZOSW1eJat4S/Qf2gFCtj6rTQTxMOlt/Rq/Dx1OMxIM74H+sDOPm2Mvv1nVG/Hewj3bovK20Prdo8l0ldLAmtpXycysw3a8Ys77ZjLlOlg2LK0LHZVEbGy1QZ/fW1Wct824wF1Uj4VYsmr9DkKWq1tqtnkoUFlWh99BheKlFbtJkWyF69O0DEy4RN2817tXla2tQK+iJIY5WzRdZ6tZJzdCCqVkX4NFNRD1UqkgN9axt8d42GyqizqadD5eVgEe9PLHrYjIST/thcOZu+G69oOALreHpyt3ClVoPB46TFV4eAF/2AGn55chMeYjy6iyEn45ELleJstxYRMelIGR7EG5XAnq2/4Tfp7Nga6ALPWWfyAiQ1jU1vRCW1t2hkx2F327no+DeWew+dB3F0kJkPSzCk2oB9PR0gce5yCkpRPSVSNxLy0d5ZgoellcjK/w0InM5VJblIjY6Dlkh2xEkEwT/9PsUs2wNoKunBVTewNcLp+Bf/r8it0U27ILJi2ajV94RvPfmcvw35BcEB34IzxARXOzL8UDVeDfyMXX+FHRL248VfmeQWQvUZNxGQgEHSXYG8iR5qttGJygKAQDgCzOQXi7/f84pnIobCJ8PXKGjTv8J5fWKbQwqvkz12J0qt4J9rsWhEjw4nuQLdQCGk7Borh3Sgzwwfp4/vgs5jsMBXvgkwhD2Ih4cJwXxTe4IE8kSG89raNtUDgBCS1h310F21G+4nV+Ae2d349D1YkgLs/Cw6AmqeQ6clMA3STKyoXjUi9qIBrk0+i3A8bxC8SVZQmuIbdn/eV6W4QwnLcJcu3QEeYzHPP/vEHL8MAK8PkGEob2sWCrGTpcpWOozCJLjO3EgRXZ8nc87j8tZo7D0gzHQbbwSEFiot3mZFiYtmgu79CB4jJ8H/+9CcPxwALw+iYChoqJbOS5BikZxBbCYOh9TuqVh/wo/nJEJgNsJBeAk2cjIK4OWuvlrsp2a+BZY/gNvjtdH9Ofz8MHuXxFz63ccOvg7chsKiyZbGrZeNwAAHoUZ6ZCFMY+cU6cQN9AHH7jqafRRoUodOMCqI/pTFBEAIILj4iUYU/wDjtNUTOkqf1ld7pDHf3PbyptxPKje39vZRyPqdc5zHKTEN1l4EAgEXl6vBHp60MVj5OaUoDD6GuIqlcRPq3OLZt+tVJw/l6WyJiqTrVlboI3zu4LIe2nIL89EysNyVGeF43RkLrjKMuTGRiOhTLUsLVDUkcbY6KT63ASBxVTMn9INaftXwO9MJmpRg4zbCSjgJMjOyEOZlma7UWUZSuWrser4/Tj64B/4dNlI2XMIeA48yRbqrbGt9pSl8BkkwfGdByBLdzzyzl9G1qil+GBMsyyrfp2UIC/sAAABLP/xJsbrR+PzeR9g968xuPX7IRz8PbfxBkC7c4VivGuyoQZ/a0UsN6WtdQ8K6wUuKwTbg26jEnqw/acfPp1lCwNdPWi1te82yt1mFDdht44qSj6znty7C0loM4O2nkwg4rLpxNLh1N3YjPqM9aLdl74nTxtTsp+ynSILrpOfSx8aOtGTPt7oT2uWLKGAiwoHqrhiun1sLU20EpLQ2p3WHbtJRfUXPL5GWyb1JhMTa3KctZ0unVtNTn3H0cKNR+lGEUfS1IP0L7EZdRXPoMCoMso+sZSGdzcmsz5jyWv3Jfre04ZM7afQ9sgCuu7nQn2GTiTPjzeS/5oltCTgIuVxRFz2QZrZ3ZS6WY4i/3hl29krKCnYl1zFFmTcxZqc5wbS1QKOiDg145UScRKK+daTRtiYkamtM039aCMtHmFHI+f+hw5GZqtv24w6uvPpENKxGkGzvT6kFf/+kN6Z6UH/OZ1BUiI1+v+cwsKP0dqJViQUWpP7umN0s+jPlJsU7JNHSac30OQeQhLZzqCtZ1NkF1Uk0VFfV3Iw0yUdk940askhSqggKo07Tn5uliTUFtOcwHOUmHKVDix1IVOBATl67aNr2ZzKtsp4fG0LTeptQibWjjRr+yU6t9qJ+o5bSBuPXqIrP/uRm6WQtMVzKPBcIqVcPUBLXUxJYOBIXvuuUXYTh22VXGr89krE/9GGydYkFNnTW9tOU3xGLP2yeRr1ForIfmYA/d/dh3QzZD3901pIIruZFBCaSjVEVJF0lHxdHchMV4dMeo+iJYcSqEJd7NSl06l108jJcTzN8X6f3p3vQzvC81scZiQiDTbPlcXAUV9ydTAjXR0T6j1qCR1SpWg143LFt+nY2olkJRSStfs6OnazSC4PR5KYb8lzhA2ZmdqS89SPaOPiEWQ3ci7952Ak5XIq5k+lFHdcve2ystTHtzTnN9owtT9ZGJmQ7YQVFBK6gZz16w80as5BrdZN3R36dIgOWY2YTV4frqB/f/gOzfT4D53OaDx1qdpHb1CRSh1QB/SnDgn9sngK+d9tqjPVuePzsHClti1POk0bJvcgociWZmw9SynVbe+jJSp0XhpHx/3cyFKoTeI5gXQuMYWuHlhKLqYCMnD0on3XsomkqXTwX2Iy6yqmGV/8StdUxU+rc4t63T9IUJj/YzU1salsgVGUp6i7/DbOLzCKyrJP0NLh3cnYrA+N9dpNl773JBtTe5qyPZJKa9TI0jA9NTlGQ2x0Rn1WhJPE0LeeI8jGzJRsnafSRxsX0wi7kTT3PwcpUuboKu1W8ccp2vLOOHp17HTy/HApeX+wmU4/kB9GLE+i0xsmUw+hiGxnbKWzKdUabZvLEdWln6J105zIcfwc8n7/XZrvs4PC85UJrqpOb6eWpVNKOb9toKn9LcjIxJYmrAih0A3OpF9/oLFDuUIBdTZMi9Xgb1lqbNp8UuVJp9pY9+IoVmG9UHPdj1z6DKWJnh/TRv81tGRJAF3M49rR93162Eq524MWUeOanlGLa34f4JZXEJbZP2tP/JAidr0zRp6ciohbm+Go/FYTg8FQSevjm0vaghHOP2FS+B189monBps0FuudR+Lk1Ajc2uyo4o4xg8FgKMIhacsIOP80CeF3PkNnpiVG59OBbSEvGjyKI/biTNd3sEBD4f2rabFDgcFgaOBZi28WxQwGg/GiwhbXcnhJPGL5Kdi4cjzMFN98JpCipOQxuLJiSDQ8/YnBYDSnrfEtLSpCmbQcpY9VbvptH9ISlDzmUFYsAQtjBoPReqQoKiqDtLwUnZ2WGJ2PcOPGjRsVX/w7oqXfHfa9TZ/Rr2lrkHr+MH4r6IlhrxihJJPQY7A9zJ6FG3AMxnNAW+Kby76O4LBHsBw6AMaSLGj1HApb0064D1GTivOHf0NBz2F4xagEmdQDg+3NmvwWMoPBYCiDQ/b1YIQ9ssTQAcaQZGmh51BbdEZaYjwd2J5rBoPBYDAYDAajk2CfexgMBoPBYDAYjE6CLa4ZDAaDwWAwGIxO4qktrisy7uBuVpPngbYZHk/S4pFa2p5T9R1p29k8S7IwOocKZNy5iw65N4PBYDAYjBeSp7O45tOxd8FIuHgfRl471pRc1u8I9BwOu1c8sDe5bcdiO9K2s3mWZGF0Hnz6XiwY6QLvw3nsB9UYDAaDwWA04+ksrgW2WPJ9JCL2LUT3dowg7OUKX+9x6NqOs5YdadvZPEuyNMAX4tbNB42PUGW0GYHtEnwfGYF9C7s/pQBqCzwKb93EA2ZQBoPBYDCeCZ7a2sDQxhFDeukpvtxqhKamMNFSfLV1dKRtZ/MsyQIAFdFfYf2h+2D30TuCIWwch6AD7t15VETjq/WHcJ8ZlMFgMBiMZ4IO/851bUEyYm4kIEfaBVbm+o2r9epsxN2vhIWFAfJiL+D6nftIzePQrVc3aOfewvlrd/FHWjFEPXrCTLu+kRQlqTcRk1AALa37+PlgPOw838eknrJfgpUW38eN6FikFgGm3c2g1+yjgfq2zeCf4GFSNkTdTFD5IAY3/qhGFytz6Al45LZa1krkxMfgVkohtMy7w1S36Qpakyzq2jZBpZxNL1LdV2VmPB7UdoNRWTxuZ4sgTP0OS97xR4R2Pww0l6Kuiw0sDbXU9FGBzPiHkFp0g6ggEdFxRdC1soBhK8cHalGQHIMbCTmQdrGCuX7ThqrbNZdbB927NfGrBqQovn8D0bGpKIIpupvptbyGL8G9q+G4mfQHUlMfIJ+3QM9ueihPvY7L0YlIzefRrWc36Gmp6asyE/EPatHNqAzxt7Oh070b9AVAdXYc7ldawMKoXm41ffCleBATjcQiAUy1KyAhYxjr1L/ZhGZjZaEkLxa37qr2xS6lUfja6x34R2ij30BzSOu6wMbSEFqdIQuDwWAwGIx20WI90mr4QlzeugCe/+8CMgri8PU0MZx9TyJXKsGdYx/jdYc+GLvpCqohgHnvnsj/fgmme+9HkhQQmveCZcouzJv2b4TkyL/ProzH3vnu8Nofi+zU0/DzDcL9hq+6OaQdXYgRb32Fu0V5iAhwh3j0JkRWyt9W27YpHLKufA2v4TYYMPdrBG96HcNem4SJI/tD7OqP62Wtk5XPDcNm75UICo/DjZ9WYrR4LNZdKJbtv9Ugi9q2DWiSU31f0oIoHFg2AQ7iSdi4ZxveHu2Cka/Ox96H+jAz4sHXVKC0tAyVUlV9FCI/5jCWT3CAeHIAju1fAvc35mL+G0MxaEYQUuXzUd5WNhe+8DK2LvDE/7uQgYK4rzFN7Azfk7my91S0Uyr38EU4UtxMOQCXhqMLR+Ctr+6iKC8CAe5ijN4UiXp3aEBgiK66yfjv4qmYvvU2THsYQgDA4CUjxOwMxE2ROQxIRV98AaIOLMMEBzEmbdyDbW+PhsvI4fDccwnHPn4dDn3GYtMV+YlGdfLUxmGXpy9+yJKiOukA5o14G9+lK9xmVjrWCHwcaaTGF+tQmlMMfTMj8HwNKkpLUVYp7bgsDAaDwWAwOga1C45yf/AgB/dvKYMjIqqjhC/GkXmPhXSinIi4XPrWTZdMZv9EFUREJKWkLcNJr98qul4j66Hm+irqpz+SPv9DSkQVdG31YLJfdJIk8hHKzywma+2XaXVkDZH0Hn32mgE5bYqnOiKqi1lLA/WG0vo7dZrbtqCGIlb1I20rV9oQ9ojqqIKS9s0ka6EOOW28S3WaZOXy6di8CbQmSv4ml0E7x+mQtuN6ulOnQRa1beUNGtAgp4a+uIydNF5HnwYt+40KJIl0IewuFdfl0DduemTtdY6qiTTII6UHX4wiHRNnWnYyjWqIqPR/88hSdzR98UCDHmpy6QcPB3L/NoNk7pFAX4wzpx4LT1C5unaq5OZkl9YjvfcZvWbgRJvi64iojmLWDiS9ocp0SERUR/GbXyV960V0slT2CpdzkD5cHUpPNPXFZdDO8TqkP2gZ/VYgocQLYXS3mCMu91ty0zWh2T/JvVtNHzURq2jg0E8oqoqIiKO84C30daISQZWOVaveF4mjnG/cSM/ai85Vy97vFFkYDAaDwWC0m3beuZYg9FgYdB2d5QcWRXhl1WUUZx/CDEMAAmMYN3xd3grKw7D7UBoGjZ8AU/lLena2sKrfRSEUw+fwFQT72iLr8gFsOxgFCV+Dqmpec9sWCKCvrwehhQumu1lDBAP099wE76GE+PBw5Gv6+YfKyzgRlo37ZwIREBCAgG3BqHLfCP8FTtDXJIu6tk2GkKFBznL1fQn09aEjMIGz2xhYmA6Am/tgmCtaW608QhgZGUJoPBTu7nbQAWAo7otegjKUlpD6tpJQHAvThaOz/MCf6BWsulyM7EMzYKiuXSvlFop9cPhKMHxts3D5wDYcjJKAr6lCtVLbiTBgsQ8mVp5AUEg2eHC4fywaL812hZGmvgT60NcRwMTZDWMsTDHAzR2DzQUQGBujqXur60NkLYZNxg5MG7sQnx1PhLbHOnw0QMlDuFWM1VY6RRYGg8FgMBjtpu3VGwC4YhQUVaO0RALlv4OhBS2t1i+uuaxk/FEKCEWqxBFAVBWLXd4+OJAzBO/6uMJKIBtZc9tWIOqDV/oaAnU1qFE+oQb4J4UortJF/xmrsXbt2oZ/a5ZPg0OuelnUte3XmjVOEzmrHmvuS5MFNMmjaEMtoRBaIPCkvq1DWQGKqktRImmpTHXtWis3BCJUxe6Ct88B5Ax5Fz6uVpC7g1IEVrPh85YxLgXtR0JFDH58MBDzHOUbjTX1pUwYLS00U42aPgS9F+PI+T3wMA7H1tnD0M9lGU5kKt2zpHysttJZsjAYDAaDwWgXyleBmhC+hN7W+sgP/Qm/ltS/yKM4NAjBKcqLtVAkBIhXWIwTiAO0zLvBXFSNhFuxqFF4n+cBlJ/Diul+KJ71DTbPdYJl/UKUWtFWFURN9jnXobKah2X/geghVC+rwKQHrAySEbL/IiQN73FICz2LeBP1sqhrG6dq66sKOXuataMvBdoljxx1bRO79oa1fj5Cf/oVje5RjNCgYPxhqLqdpjHrKT+3AtP9ijHrm82Y62SJJu6gAiO87uMJceJB7PA/hrJxc2Av/zah7X21RF0fXFYCHvXyxK6LyUg87YfBmbvhu/WCgn+oRp0vKuNpysJgMBgMBkMz7VtcowsmL5qNXnlH8N6by/HfkF8QHPghPENEcHEQAuDB8QRqWN0KYWndHTrZUfjtdj4K7p3F7kPXUSwtRNbDIlQYT8X8Kd2Qtn8F/M5kohY1yLidgAJOguyMPEjyHiAtvxyZKQ9RXp2F8NORyOUqUZYbixv5rmrblrU45SaDL8xAern8/zmncCpuIHw+cIWeBlmfCCdh0Vw7pAd5YPw8f3wXchyHA7zwSYQhHKzUz6NMS3VbexV3rlXKaai5L4IUdU0XrAI96OkCj3NzUFIYjWsPRqnpgwfHSUG87E61rEMCiAfP84C68btOxqLZvZB35D28ufy/CPklGIEfeiJE5AIHEzXtVMndDB5lD9KQX56JlIflqM4Kx+nIXHCVZciNjUaCXFeKiBwXY8mYYvxwnDB1Slf5q63oiwCpojA8B57qP7yp7yMuJQTbg26jEnqw/acfPp1lCwNdPeU3qVuMpcEXqwXQkxkUOSWFiL4Wi7x2ycKj+PwmePxrCy41fuJhMBgMBoPRHhQ3YbeeCkoK9iVXsQUZd7Em57mBdLWAI6JySjq9gSb3EJLIdgZtPZsiu/zxNdoyqTeZmFiT46ztdOncanLqO44WbjxKN4o44iQx9K3nCLIxMyVb56n00cbFNMJuJM39z0GKzM6iE0uHU3djM+oz1ot2X/qePG1MyX7KdoosJfVtcxVOw1Ed3fl0COlYjaDZXh/Sin9/SO/M9KD/nM4gaf0lGmSliiQ66utKDma6pGPSm0YtOUQJsrNtmmVR07Y5rZBTRV9c8W06tnYiWQmFZO2+jo7dLJIdLCQppR78F4nNupJ4RiBFPVHdR2nccfJzsyShtpjmBJ6jxJSrdGCpC5kKDMjRax9dy9Ywl4okCvZ1JbGFMXWxdqa5gVepoN4UKtqplrs5XPYJWjq8Oxmb9aGxXrvp0veeZGNqT1O2R5L8zKJSJL8spin+d6npET6VfX0eRuHH1tJEKyEJrd1p3bGbVMQRUXkSnd4wmXoIRWQ7YyudTalW3cf2SCq47kcufYbSRM+PaaP/GlqyJIAu5inMiium28rGIs2+KE09SP8Sm1FX8QwKjHrSTlmklPrtZHqp+xTak9bgXQwGg8FgMNqBFtGz9PjAPwMpYtc7Y+TJqYi4tRmOKu4Y//U8L3IyGAwGg8FgMOpp57aQFwN1W7KfJZ4XORkMBoPBYDD+7vwNF9dSlJQ8BldWDEmt4nvPEs+LnAwGg8FgMBiMev5m20JqkHr+EH6+ko4yqQimtuMxe5Eb7J+5xz8/L3IyGAwGg8FgMJryN1tcMxgMBoPBYDAYT4+/4bYQBoPBYDAYDAbj6fDMLa75J2mITy198Q/x8U+QFp+K0ud8ohUZcUgufM4n0S44SO7H42GF4uuMzubv62OdSEUG7tzNQrXi6w3weJIWj9S/OiE9Z3mxIuMO7map1iqD8exTgYy4ZDzvKVZjLP7JuaV9i+vKFJz/biMWvT4ao0aPhdvUt/DWjBmY5f0p9l/Phcrnf6iDy8LvgZ4YbvcKPPYmq++j7P/w/pD+mLw1Ck8U33vm4ZD1eyA8h9vhFY+9SFY70WcXviAK+33HwaHf69ge9fc6ccll/I7ABcNgN3gxgjNUPCqR0WH+zj7WufBI37sAI128cTivZWXhsn5HoOdw2L3igb1/WUJ6CnnxadcJPh17F4yEi/dhKFErg/GMw6Mgaj98xzmg3+vb8VynWLWx+BRySyto3+LaoB8mea3GVMsURN/rjQ9/Po7jP36JBQbnsMx1BP51+IFiC80Ie8HV1xvjupLGR0+XX/o/XLXywfaVI2Cs+OYzjxC9XH3hPa4rnufd7gLLEfBcPgV9FN94XuELcevmA7RmqSy0ccVHi8bATKOnMjrCC+djfxkC2C75HpER+7Cwe8uUL+zlCl/vcejaCQmJL7yFmw9aE0WKdH5efOp1QmCLJd9HImLfQihR6wtN++38F9CG3P73QgDLEZ5YPuUFyLBqY7Hzc0traCFG6xHBtIsRtADZo5z1bDF166d40+wRTvh/pXhx6xCawtRE6YOhm1CLpOJh+OqILwbpKb73vCCEqamJ8kdgP0cIjY1h+LxPQk5F9FdYf+i++m9MmiA0NIZhB6KH0TpeJB/7SzG0geOQXlCVMoWmptCYejVSgeiv1uPQ/dZGkSKdmRf/nDphaOOIIb2e4gDPJB21859LW3P73wshjI0NOynm/lrUx2Jn5pbWIdy4ceNGxRdbB4eH577B0YTemLXyTfQXARDUIPbYdwjP6YUNa2Y1XilJw+2b8cis0odlN0MIm/UDSEtScTMmAQVaWrj/80HE23ni/Uk9IQRQmRmPB7XdYFQWj9vZOujezQi9hg2BbloqqiwsYCTXlrT4Pm5ExyK1CDDtbgY9DQsfvvQBYqITUSQwhXaFBFz5A1y5fgf3U/PAdeuFbtq5uHX+Gu7+kYZiUQ/0NNNuaFtbkIyYGwnIkXaBlbl+808olTmIj7mFlEItmHc3hW5Ta0pLkHozBgkFWtC6/zMOxtvB8/1J6FmvEFVtKzMR/6AW3YzKEH87Gzrdu0FfzfwqsuMQE5uGCn1LdCnPRBZ1QdW9C7h+5z5S8zh069UN2rm3cP7aXfyRVgxRj55oMj1U5sQj5lYKCrXM0d1UV7VDVt5C8M7LMJ61HNPtipAQFYciPStYNF11Sotx/0Y0YmWGgZmeAOCLkRh+Bbfu/YHU1DSUaPdAT1NtVKZH4/fIeKRm18KstyUMtKQovn8D0bGpKIIpupvpafg0qOR6PhexF67jzv1U5HHd0KubNnJvnce1u38grViEHj27oDTqa3i9448I7X4YaC5FXRcbWMpXdKp8l8/5HUGH0jBwyWK4IAUx8QUQdbOEkQjgc2NxoRW+pOiDZGyM+l9bVGkDvhQPYqKRWCSAqXYFJGQMYw0/0dgxf6hETnwMbqUUQsu8O0ybObQiFciMfwipRTeIChIRHVcEXSsLhQ8hHCRpt3EzPhNV+pboZqiYDRRop4/xxYkIv3IL9/5IRWpaCbR79ISpdiXSo39HZHwqsmvNYGtpoLRtPRWZ8XgotUA3UQESo+NQpKswrjJUxqo6PdaiIDkGNxJyIO1iBfNmwa1OX5XIjH+A2m5GKIu/jWyd7uimL1CSM/UhQDWy4+6jsknOBKQoSb2JmIQCaGndx88H42Hn+T4mNSQkdWMrwBci6msvvOMfAe1+A2EurUMXG0vZByNOgrTbNxGfWQV9y25o0Y3avKgspktw72o4bib9gdTUB8jnLdCzmx7KU6/jcnQiUvN5dOv5Evo4tawT6uytDI0+UJ2NuPuVsLCQ3WhqXQxUIzchGrfvl0CriyVM9bQA8MiNbU1Mau6/rbWwqb/cvJOChHv38Ieq3NWlVKWdWztuq2NTCc18O6sEebG3cLcduV2drOrysnIqkB0Xg9i0CuhbdkF5ZhaoSxXuqa07ZmhMsSrqvjIqMhH/UAqLbiIUJEYjrkgXVhaGzeuipnhToPJWMHZeNsas5dNhV5SAqLgi6Gn0KR7FieG4cuse/khNRVqJNnr0NIV2ZTqif49EfGo2as16w9JAna41+3JLeJQ+iEF0YhEEptqokBCM6wtgi1jUlFvarqu2oHYabYUvuIHb6RwMho2Uv1KKqC894bEmBPGZKTi1cgwGuPvjUsPO+UrE750Pd6/9iM1OxWk/XwTdl315wxdE4cCyCXAQT8LGPdvw9mgXjBzuiT2XjuHj1x3QZ9wWXKsFAA5pRxdixFtf4W5RHiIC3CEevQmRlfVStaQ2bhc8fX9AlrQaSQfmYcTb3yHTpDd65n+PJdO9sT9JCgjN0csyBbvmTcO/Q3JkXynxhbi8dQE8/98FZBTE4etpYjj7nkQuD1lyDNsM75VBCI+7gZ9WjoZ47DpcKJbNtTJ+L+a7e2F/bDZST/vBN+h+k6+pVLQtzEPUgWWY4CDGpI17sO3t0XAZORyLjhQ3tGxGZSIO+byB+dt+RWLyFeyY4wi7ATOxN5mHee+eyP9+CaZ774dser1gmbIL86b9GyE5ckn4XIRt9sbKoHDE3fgJK0eLMXbdBcinoJLahz9ixex58FkyHY6DZmKf/OtCLu0oFo54C1/dLUJeRADcxaOxKbISEOjDqOI8Pp09BXN3p8PSQvZpU6+rENe3+OFMhSmMKA1HF47AW1/dRVFeBALcxRi9KRIqzcqpuF5gjt498/H9kunw3p8EKYQw72WJlF3zMO3fIcipK0VOsT7MjHjwNRUoLS1DpRSt8F0AIOSf9YWLowvcRg+Cbf/p+OpmOQTmmn1JmQ+mSzXYoDYOuzx98UOWFNVJBzBvxNv4Ll3N/ZgO+gOfG4bN3isRFB6HGz+txGjxWKy7UKzksDGPwpjDWD7BAeLJATi2fwnc35iL+W8MxaAZQUitd/TSKHzp6YE1IfHITDmFlWMGwN3/UqsO0rTVxwT6Rqg4/ylmT5mL3emWkLmYHroKr2OL3xlUmBqpbMsXxuDw8glwEE9GwLH9WOL+BubOfwNDB81AUMNkFOALVMaqOj3yhZexdYEn/t+FDBTEfY1pYmf4nsyV6VilvngURB3AsgkOEE/aiD3b3sZol5F4de5G7FKXM8duwpX68z6V8dg73x1e+2ORnXoafr5BkKdeGSrHbnJNE/jSHBTrm8GI51FTUYrSskpIAZRGfQlPjzUIic9EyqmVGDPAHf6XCht8SG1eVBnThuiqm4z/Lp6K6Vtvw7SHbHFh8JIRYnYG4qbIFDV3FeuEal9RhkYf4CW4c+xjvO7QB2M3XUF1a2OgLBLbZ0zFhqg66JadxYcj+uPVCa/jjbc+Q1w3dTFZ14r+21YLldXYUW98jtsPVOeuOqV2btu4rYlNRZTJOnLEx4g0amtuVy+ryrysgsrEQ/B5Yz62/ZqI5Cs7MMfRDgNm7kUyr6HuyBYUyuu+soLLFyLm8HJMcBBjcsAx7F/ijjfmzscbQwdhRlBqQ8xoijfV1OLhjyswe54Plkx3xKCZ+yBLsar0JYC+UQXOfzobU+buRrqlhexbMb2uEF7fAr8zFTA1IhVtWxkrLahF3C5P+P6QBWl1Eg7MG4G3v0uHtEUsylCbWzqkq1ZC7aaaLn5gSyLDkbTiyAk6ERxIXq92pS4vz6G98VVERCQ59x6J+y+ncNmfRBXXaGV/HbKa8yPlcUQV11bTYPtFdFIif7/8DC221qaXV0dSDRFxGTtpvI4+DVr2GxVIEulC2F0q5jjK/daNdM3m0v+qiEh6jz57zYCcNsVTHRHVxaylgXpDaf2dugZJm1NDEasG0tBPoqiKiIjLo+AtX1NiHZE0aQsN1+tHq67XyC+9Tqv66dPIz/8gKXGU+4MHObh/SxkcEVEdJXwxjsx7LKQT5URc/jGaN2ENRcmbchk7aZyONjmuv0N1Fddo9WB7WtQ4UTqz2Jq0X15NkTUa2nIZtHO8DukPWka/FUgo8UIY3S3m5P005Qn9vnwgOa6+ThXyV2oiVtHLugNpbUwdEUkpactw0uu3ihqnt4r66Y+kz/+QEhFH+cfm0YQ1USR7m6OMneNIR9tRtS4L9pC7njGNXBdOBRwRPfk/WmilR+N2pBNHUrr32Wtk4LSJ4mWGobUD9Wjo+jsk662CwpeLSbf/aoqolnXH5R2m+XP2UCZHJL33Gb1m4ESbZI0pZu1A0hu6nlSJovZ6aRJtGa5H/VZdl8+thq6v6kf6Iz8n2dRz6Bs3PbL2OkdyUTT6bl3MWhqoY03TdsVQsZSoPH4fzbLVJl1nf4rT6EuqfFC9DWoiVtHAoZ9QlKwR5QVvoa8TVSiko/7A5dOxeRNoTaNT0s5xOqTtqMoGUnrwxSjSMXGmZSfTqIaISv83jyx1R9MXD6REJKFz74mp//Jw2ZyJqOLaSuqvY0VzfswjZR5N1EEfqwin5WJd6r86Qm5XjvIOz6c5ezI1tpU++IJG6ZiQ87KTlCabDM2z1KXRXzwgqaKM9SiL1cJc1XqsyaUfPBzI/dsM2fzrEuiLcebUY+EJKteoL44ydo4nHf1BtOy3ApIkXqCwu8VUpy5nmsymnyqIiCro2urBZL/oJDWm3sVkrf0yrY6sabetuJxvyE3PmrzOyaNIco7eE/en5Y1BRNdW9icdqzn0o6wAqM2LamOa6ih+86ukb72ITpbWj3+QPlwdSk9kfzWvExrsrQyNPsDl0rduumQy+yd5jGmKAZnMRs6bKVFKRFRHt/8zmHT7LKXLNbL2amNSU/9troXKa2xBgrrcpcTO7RhXfWwqR5msxbVtzO1qZVWVlxUEqefJ77R8oCOtvt6QYSli1cukO3AtyVKsetnU1v3GURqRPqAvRumQifMyOilzSPrfPEvSHf0FyVKshnhTQcEed9IzHknrwgtIlmIXkpXeONqRzmnQF1FF+HIS6/an1Y1FnA7Pn0N7ZEVcTVsNvqyMmghaNXAofSIrgMTlBdOWrxNlulKMRQ25pb26agsdv3OtY40Bg61h/tIQzN99AxkJx+A9UA9ACU7v+xFZDkPgWL8NxuA1eMwQo+jMDwgtLUfY7kNIGzQeE0zl7+vZwdaq8b68QF8fOgITOLuNgYXpALi5D4a5QABjY6PGW+5CMXwOX0Gwry2yLh/AtoNRkPA1qKpW9flDBGuxDTJ2TMPYhZ/heKI2PNZ9hAEixesUkSD0WBh0HZ3lG+ZFeGXVZRRnH8IMQ6Dy8gmEZd/HmcAABAQEYFtwFdw3+mOBkz7Kw3bjUNogjG+cKOxsrRq2GKhrC4E+9HUEMHF2wxgLUwxwc8dgcyVmKzuLPUef4LXXnVD/hZqwSxcYKblUOZW4fCIM2ffPIDAgAAEB2xBc5Y6N/gvgpK94bVMM8PJrw2EhAKDXG70tgVKJBDyEEPscxpVgX9hmXcaBbQcRJeFRU1Ut/2RogFG+H2F09mHsOJ4PHhwyQs5Ce+Ys9BIAQrEPDl8Jhq9tFi4f2IaDURLwNVVQZda2Xq8eTb4rf01ohVfdhsFcCBgOfBeB/x4NrfgruFqkaVBVPqjeBiJrMWwydmDa2IX47HgitD3W4SNVjttRf6i8jBNh2bh/JhABAQEI2BaMKveN8F/gBOXuIISRkSGExkPh7m4HHQCG4r7oJShDaQkBJaex78csOAxxbNj3a/CaB2aIi3Dmh1DUq1Q57fQxg1Hw/Wg0sg/vwPF8HuAyEHJWGzNn9YJAQ1uhkREMhcYY6u4OO9lk0LeXAGWlJaqPsSqLVb0rqvUoCcWxMF04OneX5TPRK1h1uRjZh2bAUKO+BNDX14HAxBluYyxgOsAN7oPNIVKTMxu+Ki0Pw+5DaRg0fgIaU68tGlKvxrFbR8npffgxywFDGoMIr3nMgLjoDH4ILdWYF9XHtAgDFvtgYuUJBIVkgweH+8ei8dJsV8jueyrUCQ32VoZGHxAYw7hxj43mGIAU6WlZqBVoyW0hgp1dLyAnHelVTbpRiYb+21wLVdVYxas00I5x1cemcp6+rKrysmInMsrO7sHRJ6/hdaeGDIsuXZr6nHrU1n1lCI1gZCiE8VB3uMscEuK+vSAoK4UsxaqPN7UYvIzXhltAlmJ7wxKlkEh4DfoCDEb54qPR2Ti84zhkZgzBWe2ZmCUr4mraavBlZYisIbbJwI5pY7Hws+NI1PbAuo8GQISWsagpt3RIV62ktX6gGi1ddBW/irFubhjrZIcuDXtZ8pH5qBJ8bW2T31YVwdbGGoLaUkgkGUj+oxQQitQKoWz7kZZW01cFEFXFYpe3Dw7kDMG7Pq6wEqgwDgBAgN6Lj+D8Hg8Yh2/F7GH94LLsBDJVfhUhhytGQVE1SkskSoorjyeFxajS7Y8Zq9di7dr6f2uwfJoDcpP/QCmEECmdqLq2/WSOo0wJCnA5D5BeLoKOdisuVgb/BIXFVdDtPwOrG2RYi7VrlmNaPxXZpQVCCIQAJ60DAAhEVYjd5Q2fAzkY8q4PXK0EzXQntF+AFbP0cHbHHsRXJ+LopZcwZ4q57E2BCFWxu+DtcwA5Q96Fj6sV1Ju1jderQ5PvPlZWNASwsLeDqRYH+fTVoMIH69TbQNB7MY6c3wMP43BsnT0M/VyW4YQKx+2oP/BPClFcpYv+M1Y38cm1WLN8GlS5Q/O4BLSEQmiBwBPA5WfiUSWP2tomv0MqsoWNtQC1pRIoValS2uJjQtgvWIFZemexY088qhOP4tJLc9DoYmraatUvgOr/FkKoBRCvwakU1K1Ojw5lBSiqLkWJpGWfrdOXctsqe1WryXy4rGTIUq/ShNTKsTXBIT/zESr5WjTvxgbWglqUSiTIUJsXNce0wGo2fN4yxqWg/UioiMGPDwZinmPj7lhFf1Rrb2Vo9AGtFmO0+LtJDAA6eG3K63gp5SJ+fcgBqMG95AyYuU3FuJY7IZSivv+21kIZyvylbbRnXPWxqYqnK6uKvKw0xXLIeZCOcpEO2pdiW1H3W6CF5ubXglDmkCCN8fZY5YfIFggFEKK+jqnTFwChPRasmAW9szuwJ74aiUcv4aU5UyAzo/q26n1ZCYLeWHzkPPZ4GCN862wM6+eCZScy5Vs9msYihyy1uaUTdaUGpUN3CsIe6NvHBFziTdxq2HvFo7amFoKeQ+DYoxu6mYtQnXALsTXNmxLfhqmVn8OK6X4onvUNNs91gmW9V6oyEDhkJTxCL89duJiciNN+g5G52xdbL9QAQhGESoxLxAHCl9DbWh/5oT/h15L6d3gUhwYhOIVg0sMKBskh2H9R0tiQS0Po2XiYdDOHqDoBt1pOFDwEatrGtfqEs5apGbrgEW5GPVT5k0NCkVAeiE0hEAdAYIIeVgZIDtmP5mKE4mxca6VoSjnOrZgOv+JZ+GbzXDgpNUwXuC9/D4Pv7cPn/t/i9ivvYIL8JkD5uRWY7leMWd9sxlwny4Zko8qs6q8XQjb1FoZVritNvmulPGwqC4tQ1Xsohr0kUO9Lqnzwd121NuCyEvColyd2XUxG4mk/DM7cDd+tF6DgVUAn+IPApAesDJIRsv8iGkXhkBZ6Fu1xB2GPvuhjwiHx5q3GffN8LWpqBeg5xBEqVKqBVvhYF3csf28w7u37HP7f3sYr70yQ38lvRdtOQJ0eE7v2hrV+PkJ/+hWNKaUYoUHBSH3paehLhpZ5N5iLqpFwK1bBdwg831m2EqJH3z4w4RJxszGIwNfWoFbQE0Mce6Cb2ryoKaYBwAiv+3hCnHgQO/yPoWzcHNirPJD059hbPQJYzNiJ3Z66uPjlZuwM/Awn9D9G6BEv2MrlVheTGmlzLVSB2tylhPaOqzI220Ibc7taWVXk5QtKMyxMzboAj24i6qHSkTTI1jl1vxFN8WbVvsWeWn3J6OK+HO8Nvod9n/vj29uv4J3GIq6xbZvgspDwqBc8d11EcuJp+A3OxG7frWhpHi2Yq80tT0lXCnSoj5raOlBdDWqUroW7YMpSHwySHMfOAymoBQA+D+cvZ2HU0g8wRt8CU+dPQbe0/VjhdwaZtUBNxm0kFHCQZGcgr0w2aYIUdQqexnO8LAHxAF/2AGn55chMeYjy6iyEn45ELleJstxYRCeUN28IyAIoZDuCblcCerb4p9+nmGVrAF09LQgtrdFdJxtRv91GfsE9nN19CNeLpSjMeoiiJ7qYvGg2euUdwXtvLsd/Q35BcOCH8AwRwcVBCMNJizDXLh1BHuMxz/87hBw/jACvTxBh6ACrqfMxpVsa9q/wwxnZRHE7oQCcJBsZeWXQUtnWXlZQCJAqKkEBgeU/8OZ4fUR/Pg8f7P4VMbd+x6GDvyO3Ie6FsLTuDp3sKPx2Ox8F985i96HrKJYWIuthEZ5UG2LSormwSw+Cx/h58P8uBMcPB8DrkwgY2iv/HM3zPHglSZjnefB8GR6k5aM8MwUPy6uRFX4akbkcKstyERud0HCtaIA3lk+pw89fJmLkO07yAsqj7EEa8sszkfKwHNVZ4TgdmQuusgy5sdFoaVYN11dZwrq7DrKjfsPt/ALcO7sbh64XQ1qYhYdFT1At0IOeLvA4NwclhdG4Fqet3nd15cNSJcpK5cFbHY/9Rx/gH58uw0gdaPClChU+aKTWBlxWCLYH3UYl9GD7Tz98OssWBrp6Su/mdNgfhJOwaK4d0oM8MH6eP74LOY7DAV74JMIQyt2BB8dJQXwTfyCSJTOeB7pMwVKfQZAc34kDKbITZnzeeVzOGoWlH4xBvUoV6biPiTDAezmm1P2MLxNH4h0nufAa2vIcBynxTQojgUByedSgGKuGavTYdTIWze6FvCPv4c3l/0XIL8EI/NATISIXOJi3Rl8ESOtaFGJVOZPki1aBxVTMn9INaftXwO9MJmpRg4zbCSjgJMjOyEOZdmvGbolATw+6eIzcnBIURl9DhutS+AyS4PjOA5B1wyPv/GVkjVqKD8bow0JtXpQgT11My3OAyHExlowpxg/HCVOndG0mT9M6ocneytDsAzw4nprcDNIQAwAk59ZiQ9ZMfLl1DXxXbML2TfMxtP6ba00xWa2+/7bXQhmK/qI+d1W3sHNsXvvGVRmbalCUFcK25fYrkffUyFqmIi8rzbCw/MebGK8fjc/nfYDdv8bg1u+HcPD33MZFvQbZhJrqviI8B05K4Jt8+JKZn4csxaqLN1VRK/fNFh/o2uBTogHwXj4FdT9/icSR76Axxapr+1itLyuFy0LI9iDIzPNP+H06C7YGupCZp2ksCjTkljJot0tXbURxE3arqEimCwc20jQbEWkJu5Pr6j10Jl5+qqQZdZR+ah1Nc3Kk8XO86f1355PPjnDKr98vzkko5ltPGmFjRqa2zjT1o420eIQdjZz7H9of9hsdWzuRrIRCsnZfR8duFhFHROVJp2nD5B4kFNnRzM/OUUplNp1YOpy6G5tRn7FetPvS9+RpY0r2U7ZTpDKRqIau+7lQn6ETyfPjjeS/ZgktCbhIsj3sj+nalknU28SErB1n0fZL52i1U18at3AjHb1RREQVlBTsS65iCzLuYk3OcwPpakHj5veKpKPk6+pAZro6ZNJ7FC05lCA/6MKRJOZb8hxhQ2amtuQ89SPauHgE2Y2cS/85GEm5nIq2XDHdPraWJloJSWjtTuuO3aQiNXvtpTm/0Yap/cnCyIRsJ6ygkNAN5Kxff4CNiB5foy2TepOJiTU5ztpOl86tJqe+42jhxqN0o4iTze+oL7k6mJGujgn1HrWEDiXUH9ZQoPQu/fzJBLIUapPY4ws6k5BMV/Yvo1GmQjJ0eo8OROVQ9omlNLy7MZn1GUteuy/R9542ZGo/hbYrGKY6fDk5Td1L2U3mxmWfoKXDu5OxWR8a67WbLn3vSTam9jRleyQpM6um6x9f20KTepuQibUjzdp+ic6tdqK+4xbSxqM3qIiTUurBf5HYrCuJZwRS1BPS7LsVf9CpLe/QuFfH0nTPD2mp9we0+fSDhgNg6n0pR40PqrZBzXU/cukzlCZ6fkwb/dfQkiUBdFHN4YsO+0NFEh31dSUHM13SMelNo5YcIpXuEHec/NwsSagtpjmB5ygx5SodWOpCpgIDcvTaR9eyOaK6dDq1bho5OY6nOd7v07vzfWhHeL7KA0yd52PVFL7ciabuzW4yFqe67fnrdNzPTTbunEA6l5hCVw8sJRdTARk4etG+a9lN+q7vTk2sqtNjRRIF+7qS2MKYulg709zAq7KDm0Rq9MVR8e1jtHaiFQmF1uS+7hjdLOKIK76tIWfa0oytZymlmoiTxNC3niPIxsyUbJ2n0kcbF9MIu5E09z8HKTK3HbYiIpKm0sF/icmsq5hmBEbREyKqSz9F66Y5keP4OeT9/rs032cHhTcWALV5MTtLfUzXI/llMU3xv9vsEFiLOlGtxt7KCkVpnAYf+IOSTm+gyT2EJLKdQVvPprQiBuoo+4d3yEZXiwCQlpaAtPVMyLLvOPI5ck926E1NTF668rP6/rOy2lQLVfmL+txV1NLOXFtrcFOUxWZLVMvaxtxepk5WdWsDZUgp57cNNLW/BRmZ2NKEFSEUusGZ9OsPNGqUTUXdVxyGiIhKKe64H7lZCklbPIcCzyVSytUDtNTFlAQGjuS17xrJUqy6eGtJ6d2f6ZMJMp/y+OIMJSRfof3LRpGp0JCc3jtAUTmt9KnqcFruNJX2Ni/iKtuev64pVpTIXHOd/Fz60NCJnvTxRn9as2QJBVzMI47KW8SiptwiS3Ft01Vb0SL6M59Zw/gz4ZK2YITzT5gUfgefvar0s/AzAI/MPZ7YavEVgt4yU3yT0Yk8H/7wFOAzscdzKyy+CgJzMcZfB4/sU/4IevImPB15FEnKUF5ZDknOXfx0OBfeoV9jUifdNHtueKFik0PSlhFw/mkSwu98hr9Xit0Dz60W+CroLTz3ZuwkOrQthMFoN1w5SiTV4MsjsPu8Fd55g4Uko3PhyksgqeZRHrEb563eAXMxxl8Jn30Evsvvwv4fg2E/YCiGjxoH10lv4K1Z7nB+9RUV261eTFhsvghwKC+RoJovR8Tu87B65w22sG4CW1y/wEiLilAmLUfpY8VdmX81UsRtHQ8rS0t0f3kpShaswChVTy1ldBrPrj88BaRx2DreCpaW3fHy0hIsWDFK5aO/GYw/BZEpuuv/jmWvueKdZevgv3ULNnz8Hua//wvsl3ihj8rDmC8YL2xsSlFUVAZpeSn+Hil2K8ZbWcKy+8tYWrIAK1gRbwbbFvKCwmVfx5EffkVKcR20zezh6vEuxtcfSX8GkGb8ij3BCej2+gLMdpb9vibj6fGs+0PnI0XGr3sQnNANry+YDWcL5mGMZ4CabESfOYXL8TmoFJrBZtgkTP/HIHR9kUOxBS9ibHLIvn4EP/yaguI6bZjZu8Lj3fENvwLzQiLNwK97gpHQ7XUsmO0sew4BowG2uGYwGAwGg8FgMDoJ9lmDwWAwGAwGg8HoJF7MxXVFBu7czWrydD1FeDxJi0dqqYrfU3xuqUZ2/D3kv2jTYjAYDAaDwXhOeAEX1zzS9y7ASBdvHM5rucrksn5HoOdw2L3igb3JL8qpAx6ld47i324OcBi/Bddkz31gMBgMBoPBYPzJvICLawFsl3yPyIh9WNi95fSEvVzh6z0OXV+oreYCmDrOxYrpYrxQ02oBj8JbN/FA1dNmGQwGg8FgMP5iWq4+XwQMbeA4pJfKn/cRmprCRNkTTZ9rBDAxNlT6KOwXhopofLX+EO6/KF84MBgMBoPBeOHo0OK6MjMeyYUcqnPuIia5BA03FCtzEH/9Mq7cysATxZ0ZtQVIjryMy9GpkCjegeQkSLt5FVeiklGguLWhMhPxyYXgqnNwNyYZJfK2ymWoRnZcEprvCpGiJDUG4VfuIKuq6evyd4vvI/rSRVy+kYbSZnLxKH0QjfCrscgsK0ZObkXTN5vA48nDRKQ94cFJUhF1JRqpzTsCAHCSNNy8egVRyQVoOUVlc1GCCv0KtDQtrSuRFSfbk82VpuFmxB1k1k+nNh9JEddwN6flTnW1MmfF4Z6sQ6TdjMCdxg6RnxSBa3dzlOx9r0RO/HVcvnILGc0cpAKZ8Sko5oHa/ERERCShQL6Q5gujsGvhOwiMSUfsb2G4lFCIhpbq/IbBYDAYDAbjT6Rdi2u+IAoHlk2Ag3gSNu7ZhrdHu2Dk8EU4UswjN2wzvFcGITzuBn5aORrisetwoZiXfaV/eSsWeP4/XMgoQNzX0yB29sXJXNkSqTTqS3h6rEFIfCZSTq3EmAHu8L9UCJ4vQNSBZZjgIMakjXuw7e3RcBk5HJ7f/qpEBk/suXQMH7/ugD5jN+FK/aquMh5757vDa38sslNPw883CPcbVq4c0o4uxIi3vsLdojxEBLhDPHoTIisBoBZxuzzh+0MWpNVJODBvBN7+Lh2KN065rCv42ms4bAbMxdfBm/D6sNcwaeJI9Be7wv96mfyqUkR96QmPNSGIz0zBqZVjMMDdH5cKeTX6VBgI6vSrDh4lN49i5UQx+o7biJDjGzBvjifefWsk+o9YibCbR/DBlJlY9N4sjOg/Bhtkk1cvc8lNHF05EeK+47Ax5Dg2zJsDz3ffwsj+I7Ay7CaOfDAFMxe9h1kj+mPMhkjU98jnhmGz90oEhcfhxk8rMVo8FusuFCI/5jCWT3CAeHIAju1fAvc35mL+G0MxaEYQUjkepTnF0DczAs/XoKK0FGWVMiuo9JuGuTMYDAaDwWD8iVA74TJ20ngdfRq07DcqkCTShbC7VJh7jOZNWENRNY3XjNPRJsf1d6gm9wfycHCnbzM4IiKqS/iCxpn3oIUnyokk5+g9cX9aHl4l772Crq3sTzpWc+jHPI6Iy6Cd43VIf9Ay+q1AQokXwuhuMadUhmKOo9xv3UjXZDb9VCHva/Vgsl90kiTy3svPLCZr7ZdpdWQNkfQeffaaATltiqc6IqqLWUsD9YbS+jt1RDURtGrgUPokSiYXlxdMW75OpDp5P02piVhF/bStyHVDGD2qI6pI2kczrYWk47SR7tYRSc69R+L+y6lxitdoZX8dsprzI8mmqGwuzcfg8lXrt46IHh+cSnpmc+l/9WM0g6Ocb9xI12AErQ3PJSkR1dz+lIZqd6GRn/xGj+qIqO4OfTpUl+x9L1E1tULmnG/ITdeARqwNp1xZh/TpUG3qMvIT+k3WId35dCjp2vvSpWoi4vLp2LwJtKZxArRznA5pO66nO3VSevDFKNIxcaZlJ9OohohK/zePLHVH0xcPpA3y61l70blquTya/IbBYDAYDAbjT6Zdd64BQKCvDx2BCZzdxsDCdADc3AdD78oJhGXfx5nAAAQEBGBbcBXcN/pjgZM+JKHHEKbrCGf5IUPRK6twuTgbh2YYouT0PvyY5YAhjvW7pA3wmscMiIvO4IfQUkCgD30dAUyc3TDGwhQD3Nwx2FygVAZzgQDGxkaNe4/Lw7D7UBoGjZ8AU/lLena2sKp/cpJQDJ/DVxDsa4usywew7WAUJHwNqqp5QGQNsU0Gdkwbi4WfHUeitgfWfTQAovq+myDQ14ee0AIu091gLQIM+ntik/dQUHw4wvOLcHrfj8hyGILGKb4GjxliFJ35AbIpKptL8zEqL6vWr2YEMDI0gJaOHYY5d4cQgI7YATYioNewUbAWARDZwqaHFsokEhBKNMtsZAgDLR3YDXNGd1mHcJB1iFGyDmFr0wNaZRJICEDlZZwIy8b9M4EICAhAwLZgVLlvhP8CJ+hDCCMjQwiNh8Ld3Q46AAzFfdFLUIbSEuWnNDX6DYPBYDAYDMafTLsX1wAUDs/xeFJYjCrd/pixei3Wrq3/twbLpzmgrKAI1aUlskVWMzjkZz5CJV+L2iabc0W2NrAW1KJU8lj2Fb+K7cTKXtbS0mp4nctKxh+lgFCkaqoCiKpiscvbBwdyhuBdH1dYCeRCCnpj8ZHz2ONhjPCtszGsnwuWnchUvRe6GSL0eaUvDFGHmso8ZD6qBF9b22T/sQi2NtYQ1JZC8li2iUHZXBpRp99+Shf8imgp7snWEkALTQ2iBYEAsl8c4fI1y9xEzw3ttdC8x4YOAf5JIYqrdNF/xuom8q/FmuXT0E/UUj4toRBaIPAtfAat9xsGg8FgMBiMPxFVK852IIBJDysYJIdg/0VJ48tcGkLPJqJrb2vo54fip19LGt7ii0MRFJyKl/r2gQmXiJu36nfmAnxtDWoFPTHE0apDQmqZd4O5qBoJt2JR0+wdAs8DKD+HFdP9UDzrG2ye6wTL+lUqAeCykPCoFzx3XURy4mn4Dc7Ebt+tuNC8oyYQqMmKrq6yGrxlfwzs1Qt9+5iAS7yJxinyqK2phaDnEDhatWaG6vQb12IfeIcR9ugEmZsjMOkBK4NkhOy/iMYZcEgLPYu4Nk9AiB5P0W8YDAaDwWAw2kOH1h8EKeqaLIoMJy3CXLt0BHmMxzz/7xBy/DACvD5BhKE9uk5ehNm98nDkvTex/L8h+CU4EB96hkDk4gDzKUvhM0iC4zsPIKUWAHjknb+MrFFL8cEY3frBIG06mBxFGQCA53gQ8eABCCymYv6UbkjbvwJ+ZzJRixpk3E5AASdBdkYeJHkPkJZfjsyUhyivzkL46UjkcpUoy41FdFwKQrYH4XYloGf7T/h9Ogu2BrrQU3WLmS9ERnq5/P85OHUqDgN9PoCrXhdMWeqDQZLj2HkgRfaLG3wezl/OwqilH6Bxii3n0hR1+hUB4DgOIF72oUEJHM/L3m94hWQfCBruDMv+z/McgFbIzPHg6z+kNO2xyY9tk6xD2d1+w0lYNNcO6UEeGD/PH9+FHMfhAC98EmEIexEPjpOC+CZ3qonk8+EBCKCnpws8zkVOSSGir8VBW5Pf8MU4v8kD/9pyqclinsFgMBgMBuMporgJuzVwxbfp2NqJZCUUkrX7Ojp2s4jqj49VJB0lX1cHMtPVIZPeo2jJoQSqaHgvmHxdxWRh3IWsnedS4NWChnZ16ado3TQnchw/h7zff5fm++yg8HyOiCum28fW0kQrIQmt3WndsZtUxKmWoTzpNG2Y3IOEIluasfUspVQTcZIY+tZzBNmYmZKt81T6aONiGmE3kub+5yBFZmfRiaXDqbuxGfUZ60W7L31PnjamZD9lO0UWXCc/lz40dKInfbzRn9YsWUIBF/MaZG5K3Z1PaYiOFY2Y7UUfrvg3ffjOTPL4z2nKkDZcQemn1tE0J0caP8eb3n93PvnsCCfZFJXPRRmq9FuVfIbWu3cnodCGZmw9SQmPm7crTzpFGyZbk1BkT29tO03xGbH0y+Zp1FsoIvuZAfR/dx/SzZD19E9rIYnsZlJAaCrVqJGZypPo1IbJZC0Ukf1b2+h0fAbF/rKZpvUWksh+JgX83116eDOE1v/TmoQiO5oZEEqpNURUkURHfV3JwUyXdEx606glhyihgqg07jj5uVmSUFtMcwLPUWLKVTqw1IVMBQbk6LWPrmVzJE09SP8Sm1FX8QwKjHpCpM5viIikqfTt5Jeo+5Q9lNZgBwaDwWAwGIynhxY1vc3IaDfS2PVwHnkSUyNuYbNja3ZAMxgMBoPBYDBeNDq0LYShBBVbMhgMBoPBYDAYLz5scd1JSEtK8JgrQ7GEPSKQwWAwGAwG4+8K2xbSCdSknsehn68gvUwKkaktxs9eBDd7HcXLGAwGg8FgMBgvOGxxzWAwGAwGg8FgdBJsWwiDwWAwGAwGg9FJsMU1g8FgMBgMBoPRSbDFNYPBYDAYDAaD0UmwxTWDwWAwGAwGg9FJsMU1g8FgMBgMBoPRSbDFNYPBYDAYDAaD0UmwxTWDwWAwGAwGg9FJsMU1g8FgMBgMBoPRSbDFNYPBYDAYDAaD0UmwxTWDwWAwGAwGg9FJsMU1g8FgMBgMBoPRSbDFNYPBYDAYDAaD0UmwxTWDwWAwGAwGg9FJsMU1g8FgMBgMBoPRSbDFNYPBYDAYDAaD0UmwxTWDwWAwGAwGg9FJsMU1g8FgMBgMBoPRSfx/wKTNMTpLLTgAAAAASUVORK5CYII=;" vertex="1" parent="1">
          <mxGeometry x="520" y="-190" width="727" height="298" as="geometry" />
        </mxCell>
      </root>
    </mxGraphModel>
  </diagram>
</mxfile>
